<svg viewBox="0 0 50 50" xmlns="http://www.w3.org/2000/svg"><path d="m296.88 395.89h2.24a1.86 1.86 0 0 0 .33 0 22.66 22.66 0 0 1 3.93.54 24.75 24.75 0 0 1 15 9.91 24.22 24.22 0 0 1 4.5 11.84c.06.52.1 1 .15 1.55v2.27a1.54 1.54 0 0 0 0 .3 22.63 22.63 0 0 1 -.59 4.18 24.76 24.76 0 0 1 -10.69 15.31 24 24 0 0 1 -11 3.94l-1.55.15h-2.24c-.1 0-.2 0-.3 0a24.15 24.15 0 0 1 -7.23-1.5 24.84 24.84 0 0 1 -13-10.92 24.26 24.26 0 0 1 -3.22-9.85c-.06-.52-.1-1.05-.15-1.57v-2.24c0-.34.07-.67.09-1a23.81 23.81 0 0 1 1.68-7.11 24.8 24.8 0 0 1 11.17-12.69 24.14 24.14 0 0 1 9.29-2.91c.54-.09 1.06-.15 1.59-.2zm-15.67 12.57v.07c5.63 4.74 11.12 9.66 16.89 14.23 5.78-4.58 11.26-9.49 16.87-14.26a2.73 2.73 0 0 0 -.68-.1h-32.36c-.24 0-.48.04-.72.06zm16.87 17-4.7-3.83-12.16 11.67v.07c.23 0 .47.05.7.05h32.54l.49-.08-12.19-11.71zm-18.43 6.42h.08l12-11.56-12.08-10.42c0 .34-.08.59-.08.84v20.26a8.4 8.4 0 0 0 .08.84zm36.85.07c0-.36.08-.65.08-.94q0-10.1 0-20.18a3.1 3.1 0 0 0 0-.43c0-.13-.06-.26-.1-.42l-12.08 10.3z" fill="var(--color-layer-top)" transform="translate(-273 -395.89)"/></svg>