<svg xmlns="http://www.w3.org/2000/svg" viewBox="0 0 50 50"><path fill="var(--color-layer-top)" d="M23.9 0H26a1.9 1.9 0 00.3 0 22.7 22.7 0 014 .5 24.8 24.8 0 0115 10 24.2 24.2 0 014.5 11.8l.1 1.5v2.3a1.5 1.5 0 000 .3 22.6 22.6 0 01-.6 4.2 24.8 24.8 0 01-10.7 15.3 24 24 0 01-11 4h-4a24.1 24.1 0 01-7.3-1.4 24.8 24.8 0 01-13-11 24.3 24.3 0 01-3.2-9.8l-.1-1.6V24v-1a23.8 23.8 0 011.7-7.1A24.8 24.8 0 0113 3.1 24.1 24.1 0 0122.3.2l1.6-.2zM8.2 12.6c5.6 4.8 11.1 9.7 16.9 14.3 5.8-4.6 11.3-9.5 16.9-14.3a2.7 2.7 0 00-.7 0H8.2zm16.9 17l-4.7-3.9L8.2 37.4l.7.1h33L29.8 25.7zM6.6 36h.1l12-11.6L6.7 14l-.1.8v20.3a8.4 8.4 0 000 .8zm36.9 0v-.9V15a3.1 3.1 0 000-.4v-.4L31.4 24.4z"/></svg>