<svg viewBox="0 0 50 50" xmlns="http://www.w3.org/2000/svg"><path d="m276.05 213c-13.81 0-25 11.47-25 25.64a25.58 25.58 0 0 0 17.09 24.32c1.25.22 1.72-.55 1.72-1.22s0-2.63 0-4.78c-6.28 1.19-7.91-1.57-8.41-3-.28-.73-1.5-3-2.56-3.62-.87-.48-2.12-1.66 0-1.7s3.38 1.86 3.84 2.63c2.25 3.88 5.85 2.79 7.29 2.12a5.38 5.38 0 0 1 1.59-3.43c-5.56-.64-11.38-2.85-11.38-12.66a10.1 10.1 0 0 1 2.57-6.89 9.39 9.39 0 0 1 .25-6.79s2.09-.67 6.87 2.63a22.88 22.88 0 0 1 12.5 0c4.78-3.34 6.88-2.63 6.88-2.63a9.45 9.45 0 0 1 .25 6.79 10.09 10.09 0 0 1 2.56 6.89c0 9.84-5.84 12-11.41 12.66a6.14 6.14 0 0 1 1.69 4.74v7.05c0 .67.47 1.47 1.72 1.22a25.64 25.64 0 0 0 17-24.32c-.06-14.2-11.25-25.65-25.06-25.65z" fill="var(--color-text)" fill-rule="evenodd" transform="translate(-251.05 -212.98)"/></svg>