<svg viewBox="0 0 50 50" xmlns="http://www.w3.org/2000/svg"><path d="m268.49 220.37h-46.25a1.86 1.86 0 0 0 -1.87 1.87v46.25a1.87 1.87 0 0 0 1.87 1.88h46.26a1.88 1.88 0 0 0 1.87-1.88v-46.25a1.87 1.87 0 0 0 -1.88-1.87zm-34.84 41.14a1.25 1.25 0 0 1 -1.25 1.25h-5a1.25 1.25 0 0 1 -1.25-1.25v-21.82a1.25 1.25 0 0 1 1.25-1.25h5a1.25 1.25 0 0 1 1.25 1.25zm0-28.16a1.25 1.25 0 0 1 -1.25 1.25h-5a1.25 1.25 0 0 1 -1.25-1.25v-4.43a1.25 1.25 0 0 1 1.25-1.25h5a1.25 1.25 0 0 1 1.25 1.25zm30.92 28.16a1.25 1.25 0 0 1 -1.25 1.25h-5a1.25 1.25 0 0 1 -1.25-1.25v-9.21a22.26 22.26 0 0 0 -.48-5.93 4.18 4.18 0 0 0 -1.56-2.1 4.49 4.49 0 0 0 -2.59-.74 6 6 0 0 0 -3.5 1.06 5.41 5.41 0 0 0 -2.11 2.83 24 24 0 0 0 -.58 6.5v7.59a1.25 1.25 0 0 1 -1.24 1.25h-5a1.25 1.25 0 0 1 -1.24-1.25v-21.82a1.25 1.25 0 0 1 1.24-1.25h4.46a1.25 1.25 0 0 1 1.25 1.25v1.66c0 .69.34.8.8.29a11.1 11.1 0 0 1 8.53-3.84 11.34 11.34 0 0 1 4.53.89 7.7 7.7 0 0 1 3.1 2.28 8.33 8.33 0 0 1 1.47 3.14 23.83 23.83 0 0 1 .41 5v12.36z" transform="translate(-220.37 -220.37)"/></svg>