<svg xmlns="http://www.w3.org/2000/svg" viewBox="0 0 50 50"><path fill="var(--color-layer-top)" d="M48.1 0H2A1.9 1.9 0 000 1.9V48A1.9 1.9 0 001.9 50H48a1.9 1.9 0 001.9-1.9V2A1.9 1.9 0 0048.1 0zM13.3 41.1a1.3 1.3 0 01-1.3 1.3H7A1.3 1.3 0 015.8 41V19.3A1.3 1.3 0 017 18.1h5a1.3 1.3 0 011.3 1.2zm0-28.1a1.3 1.3 0 01-1.3 1.2H7A1.3 1.3 0 015.8 13V8.6A1.3 1.3 0 017 7.3h5a1.3 1.3 0 011.3 1.3zM44.2 41a1.3 1.3 0 01-1.3 1.3h-5a1.3 1.3 0 01-1.2-1.3V32a22.3 22.3 0 00-.5-5.9 4.2 4.2 0 00-1.5-2.1 4.5 4.5 0 00-2.6-.7 6 6 0 00-3.5 1 5.4 5.4 0 00-2.1 2.8 24 24 0 00-.6 6.5v7.6a1.3 1.3 0 01-1.3 1.3h-5a1.3 1.3 0 01-1.2-1.3V19.3a1.3 1.3 0 011.2-1.2h4.5a1.3 1.3 0 011.3 1.2V21c0 .7.3.8.8.3a11.1 11.1 0 018.5-3.9 11.3 11.3 0 014.5 1 7.7 7.7 0 013.1 2.2 8.3 8.3 0 011.5 3.1 23.8 23.8 0 01.4 5v12.4z"/></svg>