<svg xmlns="http://www.w3.org/2000/svg" viewBox="0 0 50 50"><title>twitter</title><path d="M381.12,456.72c0-8.1,0-16.21,0-24.32,0-.66-.14-.79-.8-.79q-24.21,0-48.41,0c-.66,0-.79.13-.79.79q0,24.21,0,48.41c0,.67.13.8.79.8q24.21,0,48.41,0c.66,0,.8-.13.8-.8C381.11,472.78,381.12,464.75,381.12,456.72Zm-11.44-7.4a3,3,0,0,0-1.18,2.53c-.49,7-3.62,12.41-9.93,15.58-5.73,2.88-11.56,2.57-17.22-.47-.13-.07-.23-.16-.63-.43a13.09,13.09,0,0,0,9.29-2.6,6.66,6.66,0,0,1-5.9-4.51h2.4a7,7,0,0,1-4.69-6.4,6.49,6.49,0,0,0,2.6.57,6.6,6.6,0,0,1-2.58-5.38,6.88,6.88,0,0,1,.45-2.16c.23-.68.44-.81,1-.18a17.67,17.67,0,0,0,9.57,5.65c.14,0,.28.08.43.1.77.08,1.66.54,2.27.16s.11-1.34.21-2a6.24,6.24,0,0,1,3.86-5.16,6,6,0,0,1,6.47.87,1.62,1.62,0,0,0,1.86.33c.91-.37,1.83-.72,2.85-1.12a6.57,6.57,0,0,1-2.3,3.16c1.14.11,2-.41,3.1-.66A7.35,7.35,0,0,1,369.68,449.32Z" fill="var(--color-text)" transform="translate(-331.14 -431.61)"/></svg>