<svg viewBox="0 0 43 43" xmlns="http://www.w3.org/2000/svg"><g transform="translate(-.01 -.02)"><path d="m40.67 17.89a19 19 0 0 1 .33 3.63 19.5 19.5 0 0 1 -33.28 13.79l2-.07 29.28-17.05z" fill="#89304f"/><path d="m40.67 17.89-1.66.3-29.28 17.05-2 .07a19.48 19.48 0 0 1 -5.3-9.78l32.1-18.53a19.47 19.47 0 0 1 6.14 10.89z" fill="#311d3e"/><path d="m34.53 7-32.11 18.53a20.35 20.35 0 0 1 -.41-4 19.5 19.5 0 0 1 32.52-14.53z" fill="#c54f61"/><path class="theme-outline theme-three-outline" d="m40.67 17.89a19 19 0 0 1 .33 3.63 19.5 19.5 0 0 1 -38.59 4 20.35 20.35 0 0 1 -.41-4 19.5 19.5 0 0 1 38.66-3.63z" fill="none" stroke-width="4"/></g></svg>