<svg viewBox="0 0 43 43" xmlns="http://www.w3.org/2000/svg"><g transform="translate(-.01 -.02)"><path d="m38.52 12a19.5 19.5 0 0 1 -33.77 19.48l.25-.14 33.24-19.19z" fill="#270f3e"/><path d="m38.52 12-.28.17-33.24 19.17-.26.14a19.3 19.3 0 0 1 -2.74-9.96 19.5 19.5 0 0 1 36.52-9.52z" fill="#bf4183"/><path class="theme-outline theme-three-outline" d="m38.52 12a19.5 19.5 0 0 1 -33.77 19.48 19.3 19.3 0 0 1 -2.75-9.96 19.5 19.5 0 0 1 36.52-9.52z" fill="none" stroke="transparent" stroke-miterlimit="10" stroke-width="4"/></g></svg>