<svg xmlns="http://www.w3.org/2000/svg" preserveAspectRatio="none" viewBox="0 0 1920 900"><title>brainwave-vA</title><path d="M0,0V94.57c160,47.18,248.88,121.6,301,183.52,66.25,78.64,69.78,133,163.78,222.83C546.76,579.27,636.52,626.39,651.3,634,767.05,693.84,823.47,688.69,875,750c41.48,49.35,51.83,109,54.38,150H986.6c4-32.82,14.08-81.54,42.89-131.59,67.25-116.83,169-123.18,280.42-197.1,201.84-133.84,146-297.09,353.23-453.93C1756.82,46.48,1853.54,15.27,1920,0Z" fill="var(--color-layer-top)"/><path d="M0,94.57c160,47.18,248.88,121.6,301,183.52,66.25,78.64,69.78,133,163.78,222.83C546.76,579.27,636.52,626.39,651.3,634,767.05,693.84,823.47,688.69,875,750c41.48,49.35,51.83,109,54.38,150H891.77A1462.6,1462.6,0,0,0,612.89,691.09c-41.74-24.06-82.41-44.72-121.34-62.51,0,0-117.81-42.08-159.81-66.69l-.36-.2c-22.69-13.3-35.33-20.08-36.23-20.6l-.23-.12-.44-.24-.38-.21c-50.83-28.26-91.31-84.36-91.31-84.36C183.4,429.29,133.7,397.82,0,378.42Z" fill="var(--color-layer-middle)"/><path d="M986.6,900c4-32.82,14.08-81.54,42.89-131.59,67.25-116.83,169-123.18,280.42-197.1,201.84-133.84,146-297.09,353.23-453.93C1756.82,46.48,1853.54,15.27,1920,0V332.57a911,911,0,0,1-155.1,137.59c-163.39,114.41-281.61,115.79-442.36,195C1241.61,705,1131.37,774,1017.84,900Z" fill="var(--color-layer-middle)"/><path d="M0,378.42c133.7,19.4,183.4,50.87,202.79,77.74,0,0,40.48,56.1,91.31,84.36l.38.21.44.24.23.12c.9.52,13.54,7.3,36.23,20.6l.36.2c42,24.61,159.81,66.69,159.81,66.69,38.93,17.79,79.6,38.45,121.34,62.51A1462.6,1462.6,0,0,1,891.77,900H849c-160.25-7.62-262.33-54.15-326.43-96.07-63.22-41.36-87.17-76.71-164-101.51C285.94,679,246.42,690.89,150,669A727.79,727.79,0,0,1,0,617.2Z" fill="var(--color-layer-bottom)"/><path d="M1052,899.09c124.5-8.93,211.86-42.64,267.58-70.74,122.27-61.65,139.24-120,247.07-140.23,85.15-16,119.39,12,206.36-14.5,68.12-20.78,117-59.26,147-87.75V332.57a911,911,0,0,1-155.1,137.59c-163.39,114.41-281.61,115.79-442.36,195C1241.61,705,1131.37,774,1017.84,900H1052" fill="var(--color-layer-bottom)"/></svg>