<svg xmlns="http://www.w3.org/2000/svg" preserveAspectRatio="none" viewBox="0 0 1920 900"><path fill="var(--color-layer-top)" d="M0 0v95a597 597 0 01301 183c66 79 70 133 164 223 82 78 172 125 186 133 116 60 172 55 224 116 41 49 52 109 54 150h58c4-33 14-82 42-132 68-116 169-123 281-197 202-134 146-297 353-454 94-71 191-102 257-117z"/><path fill="var(--color-layer-middle)" d="M0 95a597 597 0 01301 183c66 79 70 133 164 223 82 78 172 125 186 133 116 60 172 55 224 116 41 49 52 109 54 150h-37a1463 1463 0 00-279-209c-42-24-83-45-121-62 0 0-118-42-160-67h-1c-22-14-35-20-36-21h-1c-51-29-91-85-91-85-20-27-69-58-203-78zM987 900c4-33 14-82 42-132 68-116 169-123 281-197 202-134 146-297 353-454 94-71 191-102 257-117v333a911 911 0 01-155 137c-163 115-282 116-442 195-81 40-192 109-305 235z"/><path fill="var(--color-layer-bottom)" d="M0 378c134 20 183 51 203 78 0 0 40 56 91 85h1c1 1 14 7 36 21h1c42 25 160 67 160 67 38 17 79 38 121 62a1463 1463 0 01279 209h-43c-160-8-262-54-326-96-64-41-88-77-164-102-73-23-113-11-209-33A728 728 0 010 617zM1052 899c125-9 212-43 268-71 122-61 139-120 247-140 85-16 119 12 206-14 68-21 117-60 147-88V333a911 911 0 01-155 137c-163 115-282 116-442 195-81 40-192 109-305 235h34"/></svg>