<svg viewBox="0 0 223.67 122.36" xmlns="http://www.w3.org/2000/svg" preserveAspectRatio="none"><g transform="translate(1183.83 466.4)"><path d="m-971.09-429.06c1.36 1.69 2.71 3.39 5 3.86a12 12 0 0 1 3.92 3.17l2 2.93v1c-1.49 2.25-1.43 5.2-3.23 7.32-1.37 1.4-2.08 3.54-4.33 4a8.58 8.58 0 0 0 -2.42-.34c-1.34-1.42-1.22-3-.53-4.63a4.27 4.27 0 0 1 .94-1.05c2.6-1.22 3.83-3.13 3-6a24.61 24.61 0 0 0 -9.67-7.47 3.28 3.28 0 0 1 -1.44-1.61 5.21 5.21 0 0 1 -.26-2.25 2.84 2.84 0 0 1 1.1-2l1.93.14a5.66 5.66 0 0 1 3.99 2.93z" fill="#0c0606"/><path d="m-969.11-407.17c.46-.71.79-.51 1.06.14 1.33 2.23-.26 3.75-1.43 5.23-1.53 1.92-3.22 3.71-4.66 5.71a14.4 14.4 0 0 1 -1.41 1.51c-.89 1.09-2.29 1.44-3.32 2.33l-1.22 1.87a7.92 7.92 0 0 1 -4.88 5.1c-1.88 1.21-3.88 2.32-4 4.95l-.3.6a46.89 46.89 0 0 1 -3.51 3.25 5.39 5.39 0 0 1 -2.68 1.08c-2-.19-3.6-.66-2.37-3.21a23.92 23.92 0 0 1 3-1.88c3.23-3.1 6.73-6 8.67-10.17.51-1 .91-2.06 1.41-3.07a8.86 8.86 0 0 1 3.41-3.3c4-1.68 4.9-6.06 7.79-8.7 1.15-1.43 2.94-.99 4.44-1.44z" fill="#0a0e0a"/><path d="m-1145-371.43c-1.62-2.83-4.62-4.06-7-6l-.58-.24c-.83-.63-1.57-1.39-2.46-2-1.89-1.5-3.91-2.89-4.61-5.4 0-1.64.35-3.35-.77-4.82a3.68 3.68 0 0 1 -.26-1.26 2.54 2.54 0 0 1 .44-1.21 2.67 2.67 0 0 1 2.5 0 6.12 6.12 0 0 1 1.13.6 16.55 16.55 0 0 1 3.08 3.12 22.66 22.66 0 0 0 1.48 2.05 29.79 29.79 0 0 1 3.84 4.48 4.82 4.82 0 0 0 2.1 2.16 6.42 6.42 0 0 1 1.49 1.09 9.76 9.76 0 0 1 1.47 2c.42.72.83 1.45 1.3 2.15.89 1.64 3 2.82 2 5.19-1.12.77-2.14.21-3.18-.2a3.74 3.74 0 0 1 -1.97-1.71z" fill="#080302"/><path d="m-986-439.91 1 1.2a2.35 2.35 0 0 1 -.21 1.95 4.8 4.8 0 0 1 -1.73 2 2 2 0 0 1 -1.29-.12c-1.31-1.51-3.31-1.92-4.88-3a10.3 10.3 0 0 0 -7.17-5.18 6.86 6.86 0 0 1 -3.55-2.5c-1-1.64-1.45-3.32-.48-5.14 1.15-1.1 2.34-.48 3.53-.08 2.37 1.57 5.33 2.36 6.74 5.17l4.08 2.75a3 3 0 0 1 1.8.62 8.46 8.46 0 0 1 2.16 2.33z" fill="#0a0504"/><path d="m-987-434.88a2.27 2.27 0 0 1 1-2.12c1.6-.91 2.64.79 4 .87 2.54.22 3.69 2.17 5 4v2.12c-2.88.34-5-2-7.68-2.23a5 5 0 0 1 -1.31-.34c-.84-.59-1.42-1.24-1.01-2.3z" fill="#110704"/><path d="m-982-436.13c-1.71 1.42-2.65-.68-4-.87l.93-1.71a4.85 4.85 0 0 1 3.07 2.58z" fill="#0a0b17"/><path d="m-1173.93-403.15q-4-5.52-7.91-11.06c-.14-2.06-2.37-3.41-1.93-5.66 1.56-4.29 5.36-6.11 9-8.14a1.39 1.39 0 0 0 .86-.29 2.12 2.12 0 0 1 1.34-.35 2.58 2.58 0 0 1 2 1.76c-.82 2.65-3.56 3.68-4.94 5.85-2.81 2.12-2.89 4.5-.71 7.12 1.8 2.16 3.41 4.41 3.54 7.37a3.94 3.94 0 0 1 -1.25 3.4z" fill="#090606"/><path d="m-977.13-427.85 1 .84a3 3 0 0 1 1.94 2.66c.06 3.17 3.23 4.67 4 7.42a3.77 3.77 0 0 1 .43 1.13c0 .8-.56 1.34-.86 2a6 6 0 0 0 -.08 1 16.67 16.67 0 0 1 .06 1.73 2.58 2.58 0 0 1 -2.58 2.44 2.35 2.35 0 0 1 -1.23-.58 8.24 8.24 0 0 1 -1.15-4c1.36-3-.21-4.88-2.55-6.44-1.63-1.09-3.44-1.83-5.15-2.79-.87-.7-2.15-1.16-1.65-2.69 1.67-1.3 4.62-.65 5.29-3.48a2 2 0 0 1 2.53.76z" fill="#bd4b4a"/><path d="m-977.13-427.85-2.86-.33c-1.48.26-2.55-.53-3.6-1.39-.82-1-2.11-1.81-1.44-3.44 3.29-.71 5.6 1.21 8 3-.05.7-.08 1.43-.1 2.16z" fill="#180000"/><path d="m-975-424.23c.3-1.21-.63-1.91-1.16-2.78 4.69.95 7.8 3.9 10.09 7.91.44.84-.06 1.11-.75 1.26a4.9 4.9 0 0 1 -1.94-1.55c-.9-.85-2-1.44-2.93-2.25a8.1 8.1 0 0 0 -2.48-1.75 1.7 1.7 0 0 1 -.83-.84z" fill="#1e0a09"/><path d="m-966.7-418.1.62-1c2 3.73 1 6.07-3.24 6.86a2.23 2.23 0 0 1 -.69-1.41 3.88 3.88 0 0 1 .12-1.59c-.05-.25-.09-.51-.12-.76l.27-.53c.93-.68 1.67-1.74 3.04-1.57z" fill="#140808"/><path d="m-972.7-409c.86-.79 2-1.43 1.81-2.87.07-.15.13-.31.2-.46h.51v.51c.33 1.56-.59 3.4 1 4.68l-4 2c-1 .26-1.37-.34-1.65-1.12a2.31 2.31 0 0 1 2.13-2.74z" fill="#230706"/><path d="m-969.06-414.07c-.09.61-.17 1.22-.26 1.83a1.09 1.09 0 0 0 -.82.39c0-.18.07-.36.11-.53a1.24 1.24 0 0 1 -.48-1.16c.31-.65.66-1.22 1.45-.53z" fill="#ba5d53"/><path d="m-1021.83-357.56c-2.93.43-5.29 2.22-7.92 3.34l-19 6.64a15.49 15.49 0 0 0 -6.79 1.19 1.76 1.76 0 0 1 -2.13 0 3.35 3.35 0 0 1 .9-3.53c1.94-1.82 4.59-1.6 6.88-2.4a89.17 89.17 0 0 1 11.92-2.88 5.57 5.57 0 0 0 4.38-2.7 4.23 4.23 0 0 1 1.66-1.3 8 8 0 0 1 2.06-.47c2.14 0 3.94-1 5.76-2 3.2-2 6.71-3.48 9.91-5.5a4.71 4.71 0 0 1 4.19-.85 2.89 2.89 0 0 1 1.49 1.53c-.42 3.48-3.59 4.08-5.86 5.63a7.76 7.76 0 0 1 -3.34.58c-2.16-.23-2.28 2.45-4.11 2.72z" fill="#0a0504"/><path d="m-985.17-390.66c-1.18 5.14-6 7.43-8.8 11.33-.74-.67-1.7 0-2.48-.41a1.56 1.56 0 0 1 -.81-1c.11-1.51 1.13-2.4 2.17-3.29 1.82-1 2.5-3 3.84-4.41a6.7 6.7 0 0 1 1.69-1.09c1.42-.53 2.64-1.86 4.39-1.13z" fill="#180808"/><path d="m-994.83-376.29-3 2a7.28 7.28 0 0 1 -4.31 1.43 2.53 2.53 0 0 1 -2-1.51c.08-2.1 2.26-2.36 3.21-3.7a9.63 9.63 0 0 1 2.81-2.55 1.21 1.21 0 0 1 1.18.26l.15.16a1.26 1.26 0 0 1 -.12 1.85c-1.36 2.75 1.1 1.66 2.08 2.06z" fill="#180808"/><path d="m-974.12-406.24 1 1.08c-2.59 3.07-3 8.19-8.25 8.76a5.26 5.26 0 0 1 .82-3.85 5.35 5.35 0 0 1 .92-1c2-1.18 3-3.18 4.23-5a1.05 1.05 0 0 1 1.28.01z" fill="#29100f"/><path d="m-979.62-400.07c0 1.49-1 2.52-1.71 3.67q-1.44 1.56-2.9 3.1a1.45 1.45 0 0 1 -1.27.48 1.2 1.2 0 0 1 -.83-1.06 4.44 4.44 0 0 1 .81-2c1.85-1.57 2.12-5.37 5.9-4.19z" fill="#cc565d"/><path d="m-986-393.22 1.79-.08c.41 1.14-.52 1.8-.94 2.64-1.69 0-2.35 1.77-3.82 2.12-1.15-2.9.85-3.82 2.97-4.68z" fill="#a74d4e"/><path d="m-996.95-378.36.12-1.85c1.08-.11 2.16-.24 2.86.88z" fill="#0d0f05"/><path d="m-1154.16-388.25a7.24 7.24 0 0 1 -3-2.94 4.21 4.21 0 0 1 1.33-2.88c1.3-1.34 1.18-3.19 1.76-4.8.41-.91.93-1.68 2.09-1.63a4.74 4.74 0 0 1 2.68 2.5c.65 2.19 1.45 4.36 1.07 6.73-.45 1.49-.55 3.13-1.75 4.32-1.83.95-3.02.02-4.18-1.3z" fill="#d04741"/><path d="m-1140.18-369.19c.3-2.44-2.2-3.31-2.9-5.18 1.63-1.33 3.16-.26 4.72.19a11.62 11.62 0 0 1 1.84 1.07c1.93 1.89 5.4 2.28 5.65 5.8a4.92 4.92 0 0 1 -4.21 2.56c-2.25-.84-4.64-1.54-5.1-4.44z" fill="#110505"/><path d="m-1164-389.16a7.6 7.6 0 0 0 -.83-.16c-.46-2.61-1.54-4.8-4.06-6a1.22 1.22 0 0 1 .08-.9c1.07-2.25 2.79-2.81 5.06-1.91a5.5 5.5 0 0 1 2.23 1.54c.78 1.32 2.1 2.45 1.57 4.26v1.09c-1.31.84-2.84 1.18-4.05 2.08z" fill="#080704"/><path d="m-1144-376.67-1-1.94c-.55-1.64.65-2.78 1.15-4.13a3.26 3.26 0 0 1 .92-.93 2.54 2.54 0 0 1 1.95-.07c1.69.89 2.55 2.48 3.42 4.07a6.37 6.37 0 0 1 .83 3.25 3.84 3.84 0 0 1 -1.31 2.32 1.88 1.88 0 0 1 -1.28 0c-1.11-.93-2.15-2.05-3.82-1.83a1 1 0 0 1 -.86-.74z" fill="#c34c52"/><path d="m-1154.16-388.25 4.11 1c1.13-.78.82-2.45 2-3.21 1.45-.11 2 .91 2.43 2a3.48 3.48 0 0 1 0 1.4 4.6 4.6 0 0 1 -3.46 3.23c-1.74-.12-2.55-1.87-4.09-2.35-.94-.42-.83-1.3-.99-2.07z" fill="#cc4946"/><path d="m-1164-389.16c.06-3.15 2.11-2.49 4-2.1v1c.06 1.14.09 2.26-1 3z" fill="#060207"/><path d="m-1161-387.26c0-1.1-.15-2.28 1-3 2.63 1.27 2 3.14 1 5.09z" fill="#040405"/><path d="m-1160-392.35c-.64-1.32-2.15-2.15-2.16-3.83a2 2 0 0 1 2-.51 4.69 4.69 0 0 1 2.68 2.51 2.62 2.62 0 0 1 -.57 2.78z" fill="#ad4d46"/><path d="m-1143.09-382.3c.13 1.61-1.23 2.46-1.85 3.69l-1.29-.68a2.39 2.39 0 0 1 -1.34-2.09c1.14-2.02 2.78-1.62 4.48-.92z" fill="#c24a48"/><path d="m-1153.17-386.22c1.79-.28 2.72 1.32 4.12 1.88s1.81 1.67 1.17 3.09c-.54.4-.9.28-1.09-.36z" fill="#ab4b47"/><path d="m-1158-391.4v-2.85c.72-.95 1.69-1.52 2.8-1 .79.39.78 1.24.18 2l-2.12 2.06a2.36 2.36 0 0 1 -.86-.21z" fill="#d75550"/><path d="m-1139.09-374.52a4.22 4.22 0 0 0 .93.23.63.63 0 0 1 -.12 1l-4.8-1-.9-2.3 1.09-.3a7 7 0 0 1 3.8 2.37z" fill="#210505"/><path d="m-1149-381.61a5.79 5.79 0 0 0 .93 0c.53-.28.81-.1.87.47.31.61.63 1.21.94 1.81-2.42 1.08-2.11-1.13-2.74-2.28z" fill="#100605"/><path d="m-1057.58-346.66c-1.58.67-3.49 0-5 1.15a3.71 3.71 0 0 1 -2.32 1.25c-4.44.91-8.68-1.3-13.09-.81-1.82-.9-3.87-.8-5.77-1.36l-4.73-.37c-2.11-1.75-4.85-.79-7.17-1.63l-4.73.09c-2.64-2-6.12-1.6-8.9-3.17a1.08 1.08 0 0 1 0-1.45 4.85 4.85 0 0 1 3.73-1.4c8.74 2.89 17.88 2.94 26.91 3.77 1.48.31 2.62 1.34 4 2 3.31 1.57 5.92.31 8.35-1.92 3.28-.22 6.65-1.29 9.65 1z" fill="#000a00"/><g fill="#0a0504"><path d="m-1106.31-353.48-3.21 1.09a1.38 1.38 0 0 1 -1.76.08c-2.12-1.32-4.32-2.4-6.91-2.29a12.05 12.05 0 0 0 -7-3l-1-1-.93-.92c-2.2-1.53-4.34-3.16-6.94-4-.4-.64-.81-1.27-1.21-1.9l4.17-2.07a1.47 1.47 0 0 1 1.23-.3 19.9 19.9 0 0 1 5.57 3.36 7.69 7.69 0 0 1 .87.94c.78 1.41 2.18 1.78 3.58 2.14a6.28 6.28 0 0 1 1.15.51c1.2.78 2.32 1.73 3.85 1.79a5.41 5.41 0 0 1 2.87 1.33c1.16 2.46 5.22.93 5.67 4.24z"/><path d="m-1095.61-348.43c2.47.19 5.27-1.09 7.17 1.63-2.37-.62-4.99-.14-7.17-1.63z"/><path d="m-1078.48-345.68-2 .26-3.25-1c1.79.03 3.67-.66 5.25.74z"/></g><path d="m-1106.31-466 7 1 2.95.26c1.13 1 2.24 2.11 4 1.65 3-.66 5.62.62 8.34 1.43a2.94 2.94 0 0 1 1 .92c.55 1.33 2 1.48 3 2.25s1.32 1.42.14 2.25c-2.91 1-5.5-.19-8-1.41a29.63 29.63 0 0 0 -7-2.11 7.06 7.06 0 0 1 -2-.91c-3.61-2.52-7.37-.73-11.08-.36-.43.14-.87.24-1.32.34-6.73 1.73-13.49 3.37-19.31 7.44-1.42.72-2.73 1.65-4.17 2.34-4.33 2.38-8.83 4.52-12 8.58a6.43 6.43 0 0 1 -1.73 2.18 11.21 11.21 0 0 1 -4.51 2 3.09 3.09 0 0 1 -2-.52c-.92-1.82 0-3.2 1.37-4.09a6.6 6.6 0 0 0 2.53-3.32c1.29-2.42 4.28-2.3 6-4.05 1.22-1.61 3.25-1.86 4.85-2.82l8.11-4.85c1.51-2.2 4-2.9 6.18-4.05 5.77-1.88 11.13-5.47 17.65-4.15z" fill="#0b0605"/><path d="m-1149.11-446.08c-.22 1.33 2 3.53-1.54 3.73-1.48.08-1.64 2.17-2.39 3.35-.52 3.05-4.67 2.6-5.31 5.53-1.63 2.66-4.36 3.88-6.94 5.28a14.54 14.54 0 0 1 -3 1.82 2.58 2.58 0 0 1 -2.65-.66l-2.25-1.12c.6-3.51 3.49-4.57 6.22-5.78a3.72 3.72 0 0 0 3.06-2c2.53-2.15 5.94-3.13 8-6z" fill="#060505"/><path d="m-1079.45-456.9c-.79-1.66-3.85-.39-3.87-3 1.9-1.76 3.86-1.05 5.83-.14l1 .4a12.28 12.28 0 0 0 7.89-1 7.77 7.77 0 0 1 1.34-.35c1.35-.19 2.72-.14 4.08-.22a10.09 10.09 0 0 0 2.55-.49c1.44-.42 2.87-.89 4.29-1.36 1.6-.55 3.27-.83 4.87-1.39.38-.18.77-.33 1.17-.48 1.78-.77 3.74-.54 5.59-.95l2-.15c2-.36 4-.78 5.93.29 1.75 1.47 4.28.14 6 1.69 9.32 2.61 17.73 7.13 25.84 12.27 1 2.44-.53 3.2-2.47 3.65a3.94 3.94 0 0 1 -1.43-.3c-3-3.28-7.14-4.81-10.74-7.18-1.31-.52-2.6-1.07-3.87-1.66a40.87 40.87 0 0 0 -18.74-4.54c-6.15.36-11.11 4.24-16.88 5.7a43.18 43.18 0 0 0 -10.18 1.19 11.74 11.74 0 0 1 -10.2-1.98z" fill="#040b04"/><path d="m-1003.86-452.06a5 5 0 0 1 .08.86 9.07 9.07 0 0 0 .82 5.4c-1.17.87-2.26.33-3.36-.17-1-.66-2-1.41-1.81-2.83 1.78-.22 3.1-.93 3.23-3z" fill="#160807"/><path d="m-1073.5-459.89 5 .23c-2.63 2.58-5.27 1-7.9 0z" fill="#100a0a"/><path d="m-1000-443.93c3.56.42 6.6 1.49 7.22 5.65l-.41.54a4.92 4.92 0 0 1 -3.84-.88 5.78 5.78 0 0 1 -1.08-1.6c-.39-1.38-2.3-1.97-1.89-3.71z" fill="#230100"/><path d="m-1000-443.93c.69 1.28 2.65 1.27 2.95 2.94-4.31.95-7.11-1.17-9.3-4.54a1.64 1.64 0 0 1 .5-1.37l2.94 1.1z" fill="#b14e4e"/><path d="m-987-434.88 1.1 1.82c-1 1.18-2.33 1.14-3.7.85a3.86 3.86 0 0 1 -2.82-2.6 2.14 2.14 0 0 1 .47-1.48c1.77-1 3-.24 4 1.2a1.6 1.6 0 0 0 .95.21z" fill="#ca5157"/><path d="m-988-435.09-3.84-1.3c-1.05-.07-1.6-.5-1.14-1.62l.12-.27c2.1.38 4.63.06 4.86 3.19z" fill="#2a0f0f"/><path d="m-990-433h4l.91.05 2.14 2.64c.74 1.88.55 3.48-1.37 4.56-1.58.3-2.66-.9-4-1.32-1.45-.76-3.14-.54-4.64-1.11-.89-.48-1.5-1.08-.83-2.16a12 12 0 0 1 3.79-2.66z" fill="#cc443b"/><path d="m-1163.83-397.28c-1.91-.83-3.38.46-5 1l-5.1-6.91v-4a1.08 1.08 0 0 1 1.21-.22c2.77 1.74 3.25 5.88 7 6.65 1.13.89 2.24 1.76 1.89 3.48z" fill="#0e0405"/><path d="m-1172.93-407.17h-1c-.24-2.67-2.09-4.39-3.63-6.31-2.81-3.5-2.37-5.73 1.64-8.59a1.86 1.86 0 0 1 .57 1.19 5.87 5.87 0 0 0 1.54 7.37 5.17 5.17 0 0 1 1.92 3.79 3 3 0 0 1 -1.04 2.55z" fill="#160707"/><path d="m-1175.77-420.82-.12-1.26 5-4.95 2.93-.05c.51 2.77-2.24 3.18-3.41 4.73-1.32.96-2.46 2.4-4.4 1.53z" fill="#300e0d"/><path d="m-983-423.14c2.62.63 4.72 2.22 6.94 3.65 2.86 1.85 3.08 3.87 1.09 6.41.19.89-.33 1.23-1.08 1.37-1.55-4.2-5.93-6.51-7.29-10.84.14-.2.25-.4.34-.59z" fill="#1f0a09"/><path d="m-971-422.13c1.06.58 2.34.94 2.53 2.44.58 1.62-.73 2.52-1.41 3.66h-.1c-2.5-2.24-4.73-4.64-5-8.23l1 .16c1.04.56 1.88 1.44 2.98 1.97z" fill="#d6514c"/><path d="m-974.12-406.24-.79.16c-.76.49-1.12 1.46-2.06 1.74a18.56 18.56 0 0 1 -3.36.84 2.46 2.46 0 0 1 -2-.66 2.1 2.1 0 0 1 .1-2.07c1.51-1.21 3-2.49 4.54-3.62a3.32 3.32 0 0 1 3.56.65l1.4.16z" fill="#cd4c43"/><path d="m-985-426.07a6.41 6.41 0 0 0 2.11-4.3l2.9 2.19 1.35 3.26h-6.49l-.17-.6z" fill="#cc464c"/><path d="m-985.13-424.92 2.16 1.78-.18.23c-1.61 1.32-3.57 2.06-5.38 1-1.63-.94-1.24-2.78-.54-4.36 1.78-1 2.89.05 3.93 1.31z" fill="#1f0a09"/><path d="m-974.1-409.2-3.93.07a1.76 1.76 0 0 1 -.5-1.18c.19-1.47 1.58-1.3 2.48-1.8l1.11-1c1.29 1.11.75 2.58.84 3.91z" fill="#c8555c"/><path d="m-969.06-414.07-1.05.93-.54.43-.62-.31q-.39-.57-.81-1.11c.47-.87 1.33-1 2.19-1.11.55.24.94.51.83 1.17z" fill="#c94842"/><path d="m-972.08-414.13 1 1a.61.61 0 0 1 -1 0c0-.34 0-.67 0-1z" fill="#d25753"/><path d="m-972.09-413.14h1a.72.72 0 0 1 .3.72c-.06.26-.14.39-.22.39l.13.12z" fill="#b33a36"/><path d="m-969.91-416a3.17 3.17 0 0 1 1.41-3.67c1.3-.25 1.3 1 1.8 1.6-.11 2.15-1.62 2.17-3.21 2.07z" fill="#a2454b"/><path d="m-971-422.13a2.78 2.78 0 0 1 -3-1.94c1.91-.78 2.13 1.07 3 1.94z" fill="#bb585d"/><path d="m-971-412c0-.37-.05-.74-.08-1.11h1a3.84 3.84 0 0 0 .08.76z" fill="#bd6258"/><path d="m-1106.31-353.48c-1.32-1.51-3.35-1.09-5-1.78-1.25-.53-1.51-1-1-2.09 2.71-2.17 5 0 7.54.62 5.77 1.57 11.48 3.42 17.49 4 1.91.21 3.76.86 5.71.85 9.54.06 19.09.19 28.6-.93a4.27 4.27 0 0 1 3.31 1.38c-2.06 1.57-4.75.93-7 2l-10.89.05c-3.34 2.07-6.67 1.51-10 0-8 .3-16-1.11-23.88-2.11-1.64-.3-3.23-1.33-4.88-1.99z" fill="#110505"/><path d="m-1003.8-374.36 1.86 1c-.62 4.66-4.44 5.08-7.91 6-5.21 1.17-9.23 4.75-13.93 6.95a2.61 2.61 0 0 1 -.75-1.1 3.3 3.3 0 0 1 .24-2 3.84 3.84 0 0 1 1.39-1.41 7 7 0 0 1 1.83-.61 11.52 11.52 0 0 0 2.92-1 24.48 24.48 0 0 0 4.24-2.65 28.23 28.23 0 0 0 4.69-3.53 13.6 13.6 0 0 1 2.94-1.31 5 5 0 0 1 2.48-.34z" fill="#170908"/><path d="m-1049.63-351.47-3.28-.18a2.51 2.51 0 0 1 1.36-2.43 6.35 6.35 0 0 1 2.08-.59 20.77 20.77 0 0 0 9.24-2.3 8.55 8.55 0 0 1 1.31-.48 27.4 27.4 0 0 1 4.77-.85 2.83 2.83 0 0 1 1.28.52c-.49 2.44-1.49 3.63-4.45 3.8-4.14.25-8.21 1.62-12.31 2.51z" fill="#1a0a08"/><path d="m-1023.78-363.41-.11 1.72c-1.59 2-4.12 2.13-6.23 3.08l-1.68-.06a1.84 1.84 0 0 1 -1.49-1.73c2.48-4.2 4.86-4.96 9.51-3.01z" fill="#be4a48"/><path d="m-1032.75-359.45 1 .78-1.07.89h-.48l-.47-.05c-1.85-.45-3.23.78-4.81 1.32l-1 .22c-2.47-.8-4.88.47-7.33.2-.93-.4-1.91-.76-1.89-2 2.14-2.54 5.18-2.37 8-2.71h2.47c2-.09 3.98-.11 5.58 1.35z" fill="#cd4944"/><path d="m-1009.85-367.39c2.86-1.69 6.1-2.89 7.91-6 1.37-.32 2.42-2.07 4.11-.94a2.7 2.7 0 0 0 -.11.93c-1.07 2.78-3.56 3.84-6 5-2.14-.59-2.53 2.85-4.76 2.07z" fill="#091304"/><path d="m-1030.12-358.61c1.73-1.72 4-2.3 6.23-3.08 0 .41.07.83.11 1.25-2.03.91-3.88 2.44-6.34 1.83z" fill="#1a0a08"/><path d="m-997-380.37-.85.12a2 2 0 0 1 -1.92.31c-1.7-1.64.31-3.37-.12-5.05.17-1.92.22-3.93 2.73-4.39 2 1.68 5 3 2.25 6.34z" fill="#c24b4c"/><path d="m-994.89-383c1.62-2.83-2.4-3.81-2.05-6.22l.18-.62a3.87 3.87 0 0 1 3.3-1.71c1.32.5 1.8 1.74 2.46 2.83.06.2.11.41.16.61-.52 2.32-1.56 4.27-4.05 5.11z" fill="#ce4534"/><path d="m-986-393.22c-.69 1.75-2.93 2.52-3 4.68l-1.85.39-.21-.22c-.94-1.31-.24-2.37.5-3.43 1.28-1.12 2.39-2.81 4.48-1.46z" fill="#c94942"/><path d="m-1003.8-374.36c-.47.84-1.29.89-2.11.92a1.55 1.55 0 0 1 -1.09-2.14 8 8 0 0 1 5.49-2.47 2.15 2.15 0 0 1 1.17.66c-.66 1.54-2.94 1.3-3.46 3.03z" fill="#ac4a44"/><path d="m-1000.34-377.39-.69-.14a1.71 1.71 0 0 1 -.34-1.73 1.91 1.91 0 0 1 1.44-1.06l2.1.07c-.83.96-1.67 1.91-2.51 2.86z" fill="#b74448"/><path d="m-979.62-400.07c-3 .26-3 3.86-5.38 4.85l-.58-.24a5 5 0 0 1 -2.11-2.31 3.07 3.07 0 0 1 .35-2.54 3.55 3.55 0 0 1 1.1-.74 11.88 11.88 0 0 0 4.24-1.64 2.77 2.77 0 0 1 2 .08 2 2 0 0 1 1 2.42l-.3.15z" fill="#ce4540"/><path d="m-979-400.19-1-2a2.31 2.31 0 0 1 .89-1.61 8.08 8.08 0 0 0 2.08-1.35l2.11-.93c-.02 2.88-2.08 4.38-4.08 5.89z" fill="#a64b52"/><path d="m-986.07-393.26c-1.69-.09-2.55 1.44-3.9 2a2 2 0 0 1 -.47-2 3.84 3.84 0 0 1 1.39-1.67c1.3-.69 2.59-1.5 4-.32z" fill="#cf4243"/><path d="m-1150.08-398.12-2.25-2c-1.42-.88-4.41-.2-3.44-3.46 4.45-1 7.64.65 9.4 4.78 1.19 2.77 3.75 5.06 3.11 8.5a2.58 2.58 0 0 1 -.82 1.23c-2.69-.09-3.19-2.25-3.94-4.18-.64-1.65-.98-3.42-2.06-4.87z" fill="#2c0401"/><path d="m-1155-393.25c-.23-2.61-2-.63-3-1l-2-2 .27-.56c1.35-1 1.92-2.68 3.09-3.85 2.12-.58 2.71 1.13 3.61 2.39-.97 1.59.03 3.9-1.97 5.02z" fill="#d0483d"/><path d="m-1150.08-398.12c3.47 2 2.77 6.68 5.74 9 .76.44.76 1.07.46 1.78-1.18.73-1.66-.22-2.23-.93l-2-2c-.88.2-1.38 0-1-1z" fill="#b54f4b"/><path d="m-1153-398.25c-1.37-.56-2.24-2.1-4-2a5.27 5.27 0 0 1 -2.52-1.36 18.4 18.4 0 0 1 -1.9-1.38 8 8 0 0 1 -1.9-2.38 1.61 1.61 0 0 1 .38-1.17 2.94 2.94 0 0 1 1.87-.46 10.26 10.26 0 0 1 4 2.13 2.17 2.17 0 0 1 .86 1.72c1 1.36 3.14 1.25 3.83 3z" fill="#bf5454"/><path d="m-1149.06-391.26c.33.33.66.67 1 1 0 1.44 0 2.86-2 3 .13-1.4-.44-2.95 1-4z" fill="#d74d44"/><path d="m-1124.12-364c-2.56-.15-4.1-2.14-6.05-3.37-1.59-2.74-4.24-4-7-4.95l-1.06-1a1.93 1.93 0 0 0 .12-1 2.26 2.26 0 0 1 1-2.06 3.52 3.52 0 0 1 2.35-.25 6.59 6.59 0 0 1 1.57 1c1.31 1.61 3.39 1.84 5 2.82a2.25 2.25 0 0 1 .55 1.2c.88.46-1.79 1.13.17 1.73a5.27 5.27 0 0 1 3.9 4.59 2.34 2.34 0 0 1 -.55 1.29z" fill="#c4494f"/><path d="m-1137.22-372.32c3.42.12 6.24 1.09 7 4.95a5.26 5.26 0 0 1 -.89-.07c-1.28-2.56-4.27-2.99-6.11-4.88z" fill="#a44b4c"/><path d="m-1161-403.2a2.1 2.1 0 0 1 2 1 46 46 0 0 0 -1 5.94l-2.11.05-1.7-1.1-2.31-2.89a3.88 3.88 0 0 1 -.55-1.25 2.07 2.07 0 0 1 1.31-2.18c1.46-.03 3.01-.81 4.36.43z" fill="#c74b48"/><path d="m-1147.17-381.1-.87-.47c-.34-.93-.67-1.85-1-2.77l2.94-2.94a5.28 5.28 0 0 1 2.39 2.09 5.68 5.68 0 0 1 .64 1.12c0 .21.09.43.13.64 0 .38-.1.75-.14 1.13z" fill="#ce474a"/><path d="m-1144.23-387.27c0-.62-.07-1.23-.11-1.84l.43-.18c1.58-.4 2.39.68 3.25 1.67a4.93 4.93 0 0 1 .92 3.06 1.63 1.63 0 0 1 -1.38 1.19l-1.83-.06v.07a1.69 1.69 0 0 1 -.64-1c-.31-.96-1.16-1.79-.64-2.91z" fill="#140f0a"/><path d="m-1141.12-383.37 1-.92c2.37.77 4 2.06 3.32 4.89a1.2 1.2 0 0 1 -1.33.28c-1.02-1.41-2-2.83-2.99-4.25z" fill="#330c09"/><path d="m-1139.09-374.52a7 7 0 0 1 -3.8-2.45c2.33-.83 3.41.27 3.8 2.45z" fill="#ac4a46"/><path d="m-1138.16-379.12a2.37 2.37 0 0 1 .92 0 2 2 0 0 1 1.7.66c.41.69 1.1 1.37.14 2.16-.59.21-1.18 1-1.74 0z" fill="#ac4a46"/><path d="m-1144.23-387.27c.47.93 1.83 1.53 1.11 2.92-.3.4-.63.4-1 0l-2-3c0-.33 0-.66 0-1z" fill="#c85d60"/><path d="m-1077.49-349.46h10c.21 1 1.44 2.7-.38 2.67-3.32-.06-7.29 1.28-9.62-2.67z" fill="#0a0504"/><path d="m-1124.12-364a1.37 1.37 0 0 1 0-.57c1-1.77 2.42-1 3.77-.57 6.07 1.38 11.21 5.07 17.12 6.84.37 1.69-.76 2.18-2 2.54-2.41-.21-4.48-2-7-1.59l-2.83-1.42a8.43 8.43 0 0 1 -4.07-1.8l.06.05c-1.64-1.07-4.05-.76-5.1-2.86-.01-.21.03-.41.05-.62z" fill="#b74b4b"/><path d="m-1124.22-363.38c1.62 1.09 4.15.56 5.1 2.86-2.3.11-4.72.44-5.1-2.86z" fill="#110505"/><path d="m-1119.18-360.57c1.66-.08 3.2.1 4.07 1.8-2.29 1.51-3.15-.23-4.07-1.8z" fill="#110505"/><path d="m-1147-440.86c.88-.41.89-1.24 1-2 1.29-.8 2.22-2.15 3.83-2.47 1.49.18 3.11-.59 4.49.56.37 2.92 1.65 4.61 5 4.71a7.85 7.85 0 0 1 5 2.06 3.1 3.1 0 0 1 .35 2.21 2.52 2.52 0 0 1 -.88 1.31 5.53 5.53 0 0 1 -4 .44c-4.24-1-8.43-.43-12.62.35a11.87 11.87 0 0 1 -5.39-.46c-2-1.4-1.37-2.66.3-3.72 1.12-.82 2.51-1.37 2.92-2.99z" fill="#d04844"/><path d="m-1079.45-456.9c6.91 2.64 13.81-1.59 20.72 0l.21.78c-3 2.64-6.65 2.42-10.23 2.61a39.08 39.08 0 0 0 -5.92.3 6.18 6.18 0 0 1 -1.55.07c-1.47-.24-3-.51-4.41-.85-2.82-.72-5.78-.75-8.55-1.69a15.24 15.24 0 0 1 -4.52-2.27c-.84-.79-2.13-1.32-1.68-2.86 3.77-.31 6.85 1.64 10.16 2.94a11.48 11.48 0 0 0 5.77.97z" fill="#160606"/><path d="m-1147-440.86c1 1.51.77 2.6-1 3.35-1.22.51-3 .49-3 2.5-.35 2.44-2 3.47-4.23 3.75s-2.67 1.39-1.59 3.26c-.11 2.43-1.53 2.44-3.3 1.82-1.57-.79-3.3-1.21-4.89-2a2.62 2.62 0 0 1 -.91-.93c2.45-1.42 5.2-2.41 7-4.83a34.57 34.57 0 0 1 8-5.07z" fill="#c74945"/><path d="m-1129.18-453.92c5.69-5 12.88-6.26 19.91-7.92a1.17 1.17 0 0 1 .32.84c0 .31 0 .47-.11.47a3.34 3.34 0 0 1 -1.55 1.42 70.12 70.12 0 0 0 -12.06 4.83 15.68 15.68 0 0 1 -3.26 1.25 6.13 6.13 0 0 1 -1.42.09 2.54 2.54 0 0 1 -1.83-.98z" fill="#160606"/><path d="m-1142-444.74c-1.58.11-2.3 2.12-4 1.84 3.45-4.23 8.1-6.74 12.93-9a1.83 1.83 0 0 1 .58 1.18 4.62 4.62 0 0 1 -1 2.51 4.21 4.21 0 0 1 -1.64 1.18c-2.45.42-4.36 2.28-6.87 2.29z" fill="#160908"/><path d="m-1109.31-460.83c0-.34 0-.68 0-1h1c4-.62 7.93-1.23 11.89.05l1 1 2 2c-2.12 1.83-4.23.25-6.35 0-2.98-1.56-6.73.49-9.54-2.05z" fill="#380602"/><path d="m-1151.06-439a24 24 0 0 1 -8 5.07c.23-3.77 4.22-3.12 6-5.09z" fill="#120a07"/><path d="m-1096.4-461.81-11.89-.05c3.97-.93 7.94-3.07 11.89.05z" fill="#160606"/><path d="m-1133-450.55c0-.45-.07-.89-.1-1.34 1.34-.63 2.24-2.11 4-2h2.07c-.81 3.31-2.92 4.19-5.97 3.34z" fill="#310401"/><path d="m-1166-429.08 1 .06a2.54 2.54 0 0 1 .52 2.69c-.69 1.32-2 2-3.09 2.84-1.15.72-2.07 1.91-3.62 1.85-.68-.27-1.27-.6-.84-1.49.76-1.9 3.47-1.81 4-3.95.73-.66 1.4-1.33 2.03-2z" fill="#b85a56"/><path d="m-1058.73-456.94c5.49-2.53 10.58-6.21 17-5.92.88.58 2.76.34 1.88 2.34-1.66 1.19-3.67 1.36-5.55 1.93-2.44.43-4.69 1.51-7.11 2-2 .28-3.94 1.43-5.89-.06z" fill="#2d0401"/><path d="m-1039.65-461.27-2-1.59a31.68 31.68 0 0 1 18.93 4.87c-.09.23-.17.45-.25.68a2.27 2.27 0 0 1 -1.91.85c-1.67-.32-3.2-1.14-4.93-1.28-3.19-1.45-7.49.19-9.84-3.53z" fill="#120706"/><path d="m-1018.84-456.87c2.77 3.32 8.45 2.95 10 7.85a1.93 1.93 0 0 1 -1.15.66 6.12 6.12 0 0 1 -3.21-1c-2.26-1.8-5.08-2.87-6.84-5.31-.36-1.15.45-1.66 1.2-2.2z" fill="#160807"/><path d="m-1009.83-448.83 1-.19a.82.82 0 0 0 .72.22l2.23 1.9v1c-2.11 1.39-3.47.57-4.42-1.48a1.66 1.66 0 0 1 .47-1.45z" fill="#bd5c5d"/><path d="m-1018.84-456.87-.95 1.78a1.34 1.34 0 0 1 -1.19.53c-1.38-.5-2.68-1.06-2.06-3a2.29 2.29 0 0 1 .29-.47z" fill="#25110e"/><path d="m-1009.91-447.93c.79 1.75 2.31 2.07 4 2 2.27 2.82 5.58 3.79 8.8 4.91l.51 1.83c-1 1.73-2.55 2.06-4.37 1.49a3.79 3.79 0 0 0 -4.69 0c-1.43.77-2.78.39-4.14-.24-2.38-1.13-4.67-.67-6.9.5-4.5-1.34-4.5-2.27 0-6.73a33.13 33.13 0 0 1 3.31-2c1.81-.08-.24-1.34.53-1.74a2 2 0 0 1 2.95-.02z" fill="#cc4944"/><path d="m-1000.91-439c1.51 1.72 2.86-.43 4.32-.19 1.45-.37 2.49.57 3.64 1.15l1.14 1.62c-.06.46-.11.92-.16 1.38-1.12 1.17-2.54 1.15-4 1-4-1.16-8-.28-12-.57a12.54 12.54 0 0 1 -3.91-.5c-1.1-.46-1.3-.22-.79.82-1.49 1.63-3 1.49-4.48.06a3.13 3.13 0 0 1 -.38-1.37c.09-.58.14-1.3.74-1.51 1.14-.42.19-.62 0-.91 2.16-3.07 5-2.47 7.67-1.12 1.24.62 2.1 1.53 3.27.13a5.69 5.69 0 0 1 4.94.01z" fill="#d14744"/><path d="m-995.95-435h4l2 2c0 1.94-1.7 2.28-3 3-1.58-.53-3.25-.33-4.86-.64-1.56-.1-3.14-.12-4.44-1.19-1.61-2.18-.6-3.32 1.64-3.54 1.51-.2 3.17-.56 4.66.37z" fill="#cc4b39"/><path d="m-996.94-432a5.46 5.46 0 0 1 4 2 4.46 4.46 0 0 0 -.37.72c0 .05.23.19.36.28a1 1 0 0 1 -.13 1.4 3.88 3.88 0 0 1 -1.45.65c-3.32-.29-6.84.15-9.55-2.5.13-1.27 1.09-1.64 2.11-1.93 1.63-.44 3.44.38 5.03-.62z" fill="#c04e47"/><path d="m-994.32-427.87 1.41-.25a6.07 6.07 0 0 1 4.91.12 3.08 3.08 0 0 1 3 2c0 .37-.1.75-.14 1.12l-3.84-.95c-1.78 1.11-3.3.2-4.83-.65a1.7 1.7 0 0 1 -.51-1.39z" fill="#b85551"/><path d="m-988-428-4.92-.07c0-.31-.06-.62-.07-.93 1.69.18 3.6-.68 4.99 1z" fill="#d2494d"/><path d="m-1166-401.16c-.06.33-.11.66-.16 1-4.69 0-4.87-4.34-6.79-7 0-1 0-1.92 0-2.88 1-.77 1.65-.07 2.37.46a32.51 32.51 0 0 1 2.56 3.81c1.02 1.38 1.02 3.22 2.02 4.61z" fill="#2c0406"/><path d="m-1171.32-409-1.65-1a55.83 55.83 0 0 0 -3.28-4.62c-2-2.29-1.8-4.26.48-6.15l3.82-2.31 1 1a2.11 2.11 0 0 1 .67 1.85c-.17 1.11-.4 2.21-.55 3.33a3.94 3.94 0 0 1 -.73 1.78c-.4.26-.8.5-1.2 0 0 .79.65.38 1 .54 1.34.22 2.07 1.48 3.32 1.84a3.59 3.59 0 0 1 1.14.73c.6.84.92 1.68.06 2.55-1.24.95-2.58 1.39-4.08.46z" fill="#be4d48"/><path d="m-993.91-427.1 4.93 1.2c0 4.75 3.63 2.51 5.84 3 .74 1.09 1.28 2.83 2.27 3.15 3.91 1.25 4.7 4.17 4.82 7.65l-2.06 1.82a2.39 2.39 0 0 1 -1 .84 6.24 6.24 0 0 0 -5.21 3.11 3 3 0 0 1 -1.12.67c-1.74.19-3.34.6-3.84 2.62a4.92 4.92 0 0 1 -.48 1.22 3.56 3.56 0 0 1 -2.24 1.35c-2.36.12-3.28 2.09-4.59 3.58a6.68 6.68 0 0 1 -1.13.92c-1.28.46-2.59 2.15-3.83-.06-.33-2.93 1.11-5.45 1.91-8.1a59 59 0 0 0 2.29-18.06c0-1.15.65-2.41-1-3.17-.83-.38-1.28-1.46 0-2.2 1.47.16 3.03-.37 4.44.46z" fill="#050302"/><path d="m-979-410.12.87-.17c0 .39.05.77.08 1.16-.18 2.45-1.77 3.05-3.89 3l-.48-.51c-.58-2.89 1.94-2.69 3.42-3.48z" fill="#ba5a5b"/><path d="m-981.92-406.17-.1 2c.63 1.05-.35 1.53-.78 2.21a2.2 2.2 0 0 1 -1.29.14 4 4 0 0 1 -2.24-2.32 1.82 1.82 0 0 1 1.37-2v.05a1.94 1.94 0 0 1 2.82-.23z" fill="#ba474a"/><path d="m-977-405.15a1.92 1.92 0 0 1 -2 2c-1.06.37-1.26-.12-1-1 .7-1.19 1.87-1.01 3-1z" fill="#cb4436"/><path d="m-980-404.19 1 1-1 1h-2a.64.64 0 0 1 -1 0c.35-.65.69-1.31 1-2z" fill="#ce4c4d"/><path d="m-1051.49-353.38c-.47.58-.94 1.16-1.42 1.73a143.86 143.86 0 0 1 -29.48 1c.44-2.47 2.58-1.85 4.14-2.28 5.33-.1 10.68.2 16-.86 2.12-.16 4.28.19 6.36-.52a7.19 7.19 0 0 1 2.4-.2 2.87 2.87 0 0 1 2 1.13z" fill="#c25358"/><path d="m-1105.24-355.76 1.9-1.7c2.65-.36 5.08.8 7.64 1.11 1.12.32 2.22.69 3.33 1a30.33 30.33 0 0 1 4 1.32c.77.65 1.42 1.35.88 2.47a60.4 60.4 0 0 1 -17.75-4.2z" fill="#bb4d55"/><path d="m-1087.48-351.52-.94-1.94c.07-2.39 2-2 3.44-2.32 3.28-.3 5.12 1.63 6.5 4.25-1.33.17-2.81-.38-3.91.86-1.84.67-3.42-.41-5.09-.85z" fill="#c74641"/><path d="m-1078.48-351.53c-2.26-.42-3.17-3.59-6-3a3.92 3.92 0 0 0 -1-.78c-1.12-.46-2.75.07-3.23-1.65 1.07-1.93 2.87-.63 4.28-1.06-1.84.37-4.24-1-5.28 1.8-.1.21-.21.41-.32.62a2.45 2.45 0 0 1 -1.18.74c-1.4-.28-2.91.18-4.22-.65-2.84.07-5.63-.08-8-2-6.58-.74-11.63-5.38-17.89-7a2.69 2.69 0 0 1 1-.83 17.36 17.36 0 0 0 4.9-1.79 5.65 5.65 0 0 1 1.28-.29c1.5-.06 3.37.51 3.44-2a16.14 16.14 0 0 0 0-2.41 5.17 5.17 0 0 0 -1.49-2.61c-.71-1-1.08-2.06-.23-3.19 1.2-.55 2.45-.14 3.68-.19a13.72 13.72 0 0 1 5.24.68c4.84 2 9.84 2 14.91 1.17 3.08.2 6.13.23 8.88-1.53a38.58 38.58 0 0 1 12.73.1c3.24 2.1 6.89 1.5 10.44 1.55 4.68.11 9.36-.19 14 .19a4.77 4.77 0 0 1 1.37.49c1.12.28 1 2.44 2.71 1.82a6.72 6.72 0 0 1 1.94-1.44 1.58 1.58 0 0 1 1.16.53 4.16 4.16 0 0 1 .66 1.89c.25 2.54-1.66 6.73 4 5.15a4.78 4.78 0 0 1 2 .22 5.3 5.3 0 0 0 3.28.73c1.16 0 2.8-.25 2.58 1.86l-1 .91c-3.46.26-7.47-.72-9 4h-6a2 2 0 0 1 -.62-1.84c-.08-.76.92-1.27.49-2.11a3.51 3.51 0 0 0 -.79 1.59 3.57 3.57 0 0 1 -1.07 2.36 15.15 15.15 0 0 0 -8 2 2 2 0 0 1 -1.94.36 17.2 17.2 0 0 0 -6.47-.17c-.53.3-.7-.59-.4 0s-.53.58 0 .33a5.92 5.92 0 0 1 2.2-.5h2.93a29.68 29.68 0 0 0 4.5.61c.72.75.28 1.31-.31 1.85-1.69 1-4-.21-5.47 1.46h-2c-1.87 1.05-4.38-1.74-6 1-5.36 1.45-11.03 1.04-16.69 1.03z" fill="#d04842"/><path d="m-1013.76-368.19a9.27 9.27 0 0 1 -4.09 2.59c-1.23-.29-1.75-1.26-2.21-2.28-.42-1.18-1.43-2.24-.89-3.65 1.11-.93 2.05-2 3.09-3 1.3-.23 1.87.79 2.64 1.49 2.28 1.04 5.45 1.89 1.46 4.85z" fill="#c74a4c"/><path d="m-1022.75-364.32c-1-1.43-2.14-.95-3.37-.47-1.54.6-2.45.05-2.64-1.62 1.35-3.81 4.52-3.14 7.46-3a5.4 5.4 0 0 1 1.44.72c1.13 1.71.29 3-.94 4.18z" fill="#d6443b"/><path d="m-1013.76-368.19c3.57-3.64-2.38-2.35-2.2-4.24a.85.85 0 0 1 .05-1.15c1.7-.22 3.33-.75 5-1.1a2.93 2.93 0 0 1 2.17 2.37c-.81 2.44-2.9 3.31-5.02 4.12z" fill="#b34b54"/><path d="m-1008.74-372.31-2.1-1.8c.34-1.39 1.53-1.89 2.63-2.48a1.74 1.74 0 0 1 1.21.14.82.82 0 0 1 .29.71c0 .26-.08.39-.15.39.32.64.64 1.27 1 1.91-.66 1.21-1.9.86-2.88 1.13z" fill="#b75658"/><path d="m-1020.8-364.54 1-3.85c.33-.39.66-.41 1 0 .33.93.65 1.86 1 2.79a3.1 3.1 0 0 1 -3 1.06z" fill="#ca4543"/><path d="m-1048.67-355.46 1-1c.32-.4.64-.38 1 0 2.37-.33 4.83-3.73 7.07.22-2.92 2.44-6.32 3.07-10 2.71-.6-1.11.44-1.39.93-1.93z" fill="#c35051"/><path d="m-1048.67-355.46c-.31.63-.62 1.27-.94 1.91l-1.88.17-2.13-.11c.67-3.12 3.2-1.58 4.95-1.97z" fill="#c54344"/><path d="m-1038.63-356.48c1.35-1.35 2.73-2.63 4.81-1.32-1.52.8-2.96 1.8-4.81 1.32z" fill="#b96064"/><path d="m-1046.68-356.48h-1-5c-.1-1.85.85-1.59 2-1h2a2.06 2.06 0 0 1 2 1z" fill="#c83f38"/><path d="m-1040.69-359.45v-3c1.1-.53 1.61.1 2 1v2z" fill="#ce4843"/><path d="m-996.94-389.26a5.79 5.79 0 0 0 -2 4.93c-.48 1.49-1.69 2-3.07 2.38a1.69 1.69 0 0 1 -1.46-1.31 3.71 3.71 0 0 1 .09-1.41c1.51-2.65 2.46-5.78 5.81-6.88 1.14.49 1.43 1.23.65 2.27z" fill="#b75957"/><path d="m-1001.91-382.31 3-2c2 1.9-1.66 2.43-1 4l-1 1c-.83 1-2 2.37-2.94.73s.3-2.99 1.94-3.73z" fill="#dd4a4a"/><path d="m-996.93-389.28c-.29-.66-.58-1.32-.88-2-.7-.89-.14-1.64.27-2.41a29.53 29.53 0 0 0 2.26-3.94 2.32 2.32 0 0 1 1.75-.91c1.31.46 1.52 1.57 1.61 2.75a5 5 0 0 1 -1.45 3.47 2.92 2.92 0 0 0 -.6 1z" fill="#c24b4c"/><path d="m-994-391.25-1-1c1.62-.48 3.1-1.67 4.95-1v2l-1.08 2.89c-2.09.24-1.51-2.29-2.87-2.89z" fill="#d64540"/><path d="m-1001.91-382.31c-.29 1.2-1.65 2.07-1.08 3.44a10.94 10.94 0 0 0 2.09-.45c0 .6-.08 1.19-.13 1.79l-5.83 2.18-.12-1.1c0-.2-.09-.4-.14-.59a5.53 5.53 0 0 1 -.45-1.82 4.4 4.4 0 0 1 1.18-3c1-.86 1.82-2.16 3.47-1.46z" fill="#c74b4f"/><path d="m-990-393.25a8.06 8.06 0 0 1 -4.95 1c.61-1 2.11-1.45 2-3 1.15-1.95 1.77-4.28 4-5.39a1.82 1.82 0 0 1 1.93.42v3c-.06 1.39-1.19 2.07-2 3z" fill="#ca493e"/><path d="m-987-400.21h-2a.94.94 0 0 1 -1.27 0 1.66 1.66 0 0 1 .26-2 5 5 0 0 0 .17-.86 3 3 0 0 1 3.73-1.11 3.58 3.58 0 0 1 2.08 2c.62 1.95-1.53 1.12-2 2z" fill="#ce4c4d"/><path d="m-989-394.25a3 3 0 0 1 2-3 1.82 1.82 0 0 1 2 2z" fill="#d44841"/><path d="m-986-400.23 2-2h1 1c-.38 2.65-2.43 1.85-4 2z" fill="#d44f45"/><path d="m-1168-412.17c-.28-.09-.57-.17-.86-.24a2 2 0 0 1 -.87-1.86c.89-3.69 4.28-5.64 6.09-8.7a4.53 4.53 0 0 1 2.71-1.21 7.49 7.49 0 0 1 5.65 1.79c1 2.16-.91 2.31-2.06 3-1.55.14-3.15.15-3.9 1.91-2.69 2.53-.23 3.5 1.42 4.71a42 42 0 0 0 4.1 3.06c.86-.07 1.54 2.82 2.52.12-.06-.42-.09-.84-.12-1.26-.06-1.11-.08-2.21-.09-3.3-.38-2.4.83-4.9-.52-7.22a2 2 0 0 1 -1.39-1.19c1-3.37 3.06-5 6.66-4.14 1.48.93.92 2.56 1.31 3.87.86 3.72.25 7.54.9 11.27.1 2.77 1.41 5.32 1.45 8.09-.12 1.43-.36 2.9 1.1 3.88a7.47 7.47 0 0 1 1.38 2.14c.4 1 .68 2 1.1 3 .36.78.75 1.56 1.13 2.33a7.16 7.16 0 0 1 .92 3.28c-.23.95-.41 1.94-1.78 1.61l-2.8-2c-1.22-8.57-5.12-13-12.25-13.84l-1-.77c-3.42-2.97-6.41-6.55-10.8-8.33z" fill="#070201"/><path d="m-1160-396.24c-1.86-2.34-1.89-4.38 1-5.94l2 1.95c1.15 2.93-.84 3.52-3 3.99z" fill="#d64334"/><path d="m-1168-412.17c.1-1.62.81-1.4 1.86-.69 3.57 2.41 6.81 5.14 9 8.95l-3.85-2.28c-1.76-.82-3.79-1-5.38-2.26-.55-.44-1-.93-.72-1.7z" fill="#210b0a"/><path d="m-1166-401.16a6.52 6.52 0 0 1 -2.88-4 6.14 6.14 0 0 1 3.83-2.42 2.06 2.06 0 0 1 2 1.42v1a2.28 2.28 0 0 1 -2 2 2.18 2.18 0 0 0 -.95 2z" fill="#c44d45"/><path d="m-1165-403.19 2-2a1.86 1.86 0 0 1 2 2c-1.31-.34-2.64 1.75-4 0z" fill="#c84749"/><path d="m-1163-406.18-2-1c-1.67.12-1.56-.72-1-1.82 2.32-.23 3.47 1.61 5 2.79z" fill="#aa484c"/><path d="m-1120.23-364.42h-1a2.8 2.8 0 0 0 -2.86-.16c0-3.07-4.52-3.46-4.08-6.81a6.28 6.28 0 0 1 1.55-1.22c2-.48 3.19-2 4.13-3.69 3.28-1.6 4.43 1.35 6.23 2.92a4 4 0 0 1 .61 1.26 3.26 3.26 0 0 1 -.1 1.39 2 2 0 0 1 -1 .91c-1 .85-3.53-1.16-3.31 1.84a4.2 4.2 0 0 1 .55 1.15 2.41 2.41 0 0 1 -.72 2.41z" fill="#cb4a43"/><path d="m-1135.4-376.31-.84-1.85c-.51-1.93 1.43-2.22 2.19-3.3.41-.45.82-.9 1.21-1.38a6.18 6.18 0 0 1 1.75-1.78c1.29-.12 2.69-.63 3.49 1 .34 1.32-.18 2.59-.17 3.9 0 6.5-.76 7-6.39 4.36z" fill="#030102"/><path d="m-1134.16-375.38c4.31-.16 4.29-.17 5.11-5.67a29.28 29.28 0 0 1 .84-3.25c-1.84-2.57-1.91-5.14 1-6.67 1.74-.91 4.47-2.28 5.31 1.47-3.37 1.6-4.17 4.3-4 7.9.13 3.09 1.15 6.73-2.43 8.93-2.67.75-4.61-.26-5.83-2.71z" fill="#2b0906"/><path d="m-1128.33-372.67c1.44-4 1.29-8.16 1.12-12.23s1.32-5 4.87-4.14a1.56 1.56 0 0 1 .62 1.07 2.48 2.48 0 0 1 -.43 1.17 4.43 4.43 0 0 0 -1.84 3.66 11.18 11.18 0 0 1 -.09 1.29 14.65 14.65 0 0 1 -.35 2c-.67 2.82 1.13 6.14-1.76 8.49h-2c-.04-.45-.09-.88-.14-1.31z" fill="#c04e4a"/><path d="m-1144.09-384.31h1c0 .33.09.66.14 1z" fill="#d35755"/><path d="m-1133.15-381.16c0 2.1-2.51 1.54-3.09 3l-1-1c.38-2.48-2.18-3.3-2.91-5.16l-1-3a2.92 2.92 0 0 0 1.15-2.4 2.12 2.12 0 0 1 1.24.17 31 31 0 0 1 3.14 3.14c1.04 1.69 2.26 3.24 2.47 5.25z" fill="#070403"/><path d="m-1016.83-438 2.14.43-2.14 1.55c-2.38 2.05-5.28 1.2-8 1.43-5.11-.2-10.26.68-15.33-.53a21.67 21.67 0 0 0 -17 0c-10.26.67-20.53 1.32-30.73-.64-5.51-1.09-11-1.81-16.45.43-5.34 1.66-10.8.31-16.2.62-2.61-.07-5.37.69-7.65-1.3v-2c-.44-2.61 1.69-2.75 3.25-3.24a4.44 4.44 0 0 0 3.43-4.13c0-.69.55-1.54-.52-1.95a2 2 0 0 0 -1.71 1.42 5.57 5.57 0 0 1 -.74 1.18 16.7 16.7 0 0 1 -6.25 3.63c-4 1.53-5.09.82-6.24-3.74a3.51 3.51 0 0 1 .58-1.33c4-1.17 7.48-3.45 11.24-5.13a2.17 2.17 0 0 0 2.31-2.19 2.7 2.7 0 0 1 .78-1.1 34.24 34.24 0 0 1 8.68-3.27 3.4 3.4 0 0 1 3.13 1c1 .52-1.44 1.34.17 1.81 2.75-.6 6.16 1.19 8-2.34 2-1.15 4 0 6.07.13a37.75 37.75 0 0 1 6.46.48l9.34 1.73c.9 1.67 2.75 0 3.82 1.09h.73c2.07-.85 4.26-.51 6.35-.37 6.21.44 12-1.65 17.92-2.78 1.72-.67 3.5-1.14 5.26-1.69 2 .23 3.88-1.16 5.94-.58a1.5 1.5 0 0 1 .82 1.11 2.59 2.59 0 0 1 -1.08 1.78 7.93 7.93 0 0 1 -2.9.92c1 .49 1.92-.14 2.84.09a25.27 25.27 0 0 0 4.68.3c.91 0 1.82 0 2.73-.07a26.19 26.19 0 0 1 3.54-.22c1.94.36 4 .58 5.23 2.38a6.44 6.44 0 0 1 .74 2.74 12.79 12.79 0 0 0 1.08 4.51c.11 1-.93 2-.26 2.79.86 1 1.7-.2 2.48-.62 1.44-.77 2.84-1.73 4.41-.28-.83 1-1.63 2-2.49 3-1.94 2.23-.33 2.65 1.54 2.95z" fill="#d04842"/><path d="m-1136.15-445c.33 3.61 2.27 4.29 5.24 2.78 2.28-1.16 4.47-2.49 6.71-3.74a2.86 2.86 0 0 1 4 0c.21 3.44-.79 5.93-4.8 6a3.24 3.24 0 0 0 -3.15 2c-3 .47-5.5-1.27-8.41-1.48-3.79-.27-1.12-3.55-1.54-5.46a1.39 1.39 0 0 1 1.95-.1z" fill="#cd4a42"/><path d="m-1157-428c-1.34-.21-2.84-.34-2.21-2.33.34-1.08.8-2.39 2.33-2 2.72.71 4.1-1.34 5.85-2.64h6c1.18.9 3.77.47 3 3.19a3.93 3.93 0 0 1 -1.94 1c-4.2.55-8.19 2.08-12.34 2.9z" fill="#ce4a39"/><path d="m-1142.1-432-3-3c4.3-1 8.61-2.05 12.92 0 1.22 1.21 4.15-.21 4.24 2.76a2.38 2.38 0 0 1 -1 1c-2.43.62-4.84 1.41-7.41 1-1.85-.69-4.21 0-5.75-1.76z" fill="#ca473f"/><path d="m-1128.18-432c-.9-2.44-3.26-1.63-5-2.28-.62-.23-.41-.9.08-.46.13.11.6-.15.91-.24h4c2.46-1 5-.29 7.54-.44a22.09 22.09 0 0 0 5.14 1.14c1.42.22 3.48 0 3.2 2.54a4.22 4.22 0 0 1 -2.42 1c-4.49-.34-9.19 1.42-13.45-1.26z" fill="#ce4b43"/><path d="m-1136.15-445-2 .06c-1.27.45-2.51 1.68-3.88.19 2.24-1.08 3.82-3.64 6.8-3.11.62 1.09-.4 1.38-.93 1.91.01.33.01.65.01.95z" fill="#c55d5d"/><path d="m-1120.23-435h-8v-1h8a.64.64 0 0 1 .23.67c-.08.21-.15.33-.23.33z" fill="#cc443d"/><path d="m-1050.61-456.88c-8 3.62-16.52 3.18-25 2.91 4.64-2 9.77-.23 14.45-1.87.92-.32 1.87-.53 2.81-.79l5.79-1.06c.56.49 1.56.05 1.95.81z" fill="#bb595a"/><path d="m-1089.5-456.8c-1.83 1.08-3.92.45-5.84.9a30 30 0 0 0 -6.48-2.45c-.61-.53-1-1.1-.33-1.85a4 4 0 0 1 2.93.25l5.85 1.05z" fill="#bc5c5a"/><path d="m-1076.34-454c-1.25-.46-3.15 1.38-3.82-1.09 1.34.14 2.87-.39 3.82 1.09z" fill="#be575a"/><path d="m-1161-423.09c-.8 0-1.57 0-2 .84a.7.7 0 0 1 -1.1.3 2.7 2.7 0 0 1 -.47-1.31 4.75 4.75 0 0 1 1.39-3.11 5 5 0 0 1 3.18-.63c1.37.75 2.4.54 3-1 2.37-.05 4.66-2.38 7.11-.26a1.53 1.53 0 0 1 -.09 1.45c-3.67 1.24-7.02 3.54-11.02 3.72z" fill="#b54b48"/><path d="m-1160-427c-.73 1.13-1.89.95-3 1a1.39 1.39 0 0 1 -2 0c0-1 0-2 0-3 1.83.39 3.66.6 5 2z" fill="#cb4546"/><path d="m-1113.27-456.89-8.92 3c-1 .2-1.34-.13-1.06-1.1 4-2.55 8.17-4.55 13-4.94 1.86-.82 3.79-.37 5.71-.31 1 1.5-.3 1.79-1.17 2.33-2.44 1.02-5.16-.16-7.56 1.02z" fill="#be5051"/><path d="m-1133-450.55a12.56 12.56 0 0 0 5.92-3.34 1.69 1.69 0 0 1 .89.14 2.13 2.13 0 0 1 .68 1.44c-2.07 3.07-4.49 5.27-8.51 3.27z" fill="#b15b5c"/><path d="m-1104.32-459.86-6-.06 1-.91c3.36.32 6.88-1.16 10.09.88l-3.11.08a1.32 1.32 0 0 1 -1.98.01z" fill="#a65652"/><path d="m-1126.19-452.92c0-.28 0-.56 0-.83l3-1.23 1.06 1.1q0 .48 0 1a2.65 2.65 0 0 1 -2 .9 3 3 0 0 1 -2.06-.94z" fill="#c45b56"/><path d="m-1126.19-452.92h2a1.36 1.36 0 0 1 0 2c-3.63 2.49-7 5.53-11.93 5l.93-1.91c.38-.4.77-.79 1.16-1.19 3.35.2 6.29-.45 7.84-3.9z" fill="#cc4742"/><path d="m-1164-423.08v.89a3 3 0 0 1 -1.65 1.22c-1.77.24-3.34 1.76-5.3.86 0-.66 0-1.32 0-2 1-.63 1.44-2.13 3-2 1.66-1.01 3.04-.89 3.95 1.03z" fill="#ca4946"/><path d="m-1164-423.08a7 7 0 0 0 -4-1 3.09 3.09 0 0 1 3-2h2z" fill="#cb554a"/><path d="m-1039.69-458.87c-2 .32-3.89 1.34-6 1a1.2 1.2 0 0 1 0-1.83l6-1.54 10.93 2.61c1 1 3.42.65 2.9 3.08a3.08 3.08 0 0 1 -2.7.41 16.22 16.22 0 0 0 -4.56-1.47 17.7 17.7 0 0 1 -2-.46c-1.54-.59-3.34-.45-4.57-1.8z" fill="#c14c4f"/><path d="m-1045.67-459.73v1.83l-4.92 1-2-.81z" fill="#b85f5c"/><path d="m-1023-457.52c-.23 1.72 1.67 1.58 2.26 2.58a.83.83 0 0 1 -.13 1.28 4.21 4.21 0 0 1 -4.17-1.16 1.86 1.86 0 0 1 .32-2.09z" fill="#b36260"/><path d="m-1024.76-456.91v2c-.89.26-1.26 0-1-1l-2.94-2.78a5.07 5.07 0 0 1 3.94 1.78z" fill="#bc4b43"/><path d="m-1020.81-453.92v-1l1-.15c2.35 1.7 5.29 2.57 7.08 5a2.36 2.36 0 0 1 -2.53.87c-1.83-.54-3-2-4.56-3a2.65 2.65 0 0 1 -.99-1.72z" fill="#ac5855"/><path d="m-1015.83-449.94 3.12-.1 2.88 1.21c0 .3-.06.6-.08.9-1.08 0-2.23-.15-2.94 1a1.09 1.09 0 0 1 -1.2.24c-.95-.9-2.27-1.57-1.78-3.25z" fill="#c24549"/><path d="m-1015.83-444a5.23 5.23 0 0 0 -4 1.46c-1.25 1.08-2.86 3.22-4.45 1.55s0-3.61 1.51-5a4.21 4.21 0 0 1 3-3.71 4 4 0 0 1 3.24 1.07 11.73 11.73 0 0 0 3.68 2.64 3 3 0 0 1 -2.98 1.99z" fill="#d24643"/><path d="m-1012.85-445.95c-1.56-.18-3.64.65-4-2 1.32-.63 2.12.27 3 1h1l1.28.51z" fill="#d94c4b"/><path d="m-1000.91-439h-5a3.33 3.33 0 0 1 5 0z" fill="#d04036"/><path d="m-1016.83-435c1.33 1.39 2.65 1.4 4 0a4.85 4.85 0 0 1 4.08-.16 2.06 2.06 0 0 1 0 2.43 4.26 4.26 0 0 1 -2.4 1c-4.06.3-8.15-.11-12.21.32-4.38.88-8.75 1.62-13.08-.24-.52-3.31 2.25-2.54 3.76-2.69 2.72-.26 5.45-.25 8.08-1.13 2.6.21 5.22-.53 7.77.47z" fill="#cd4941"/><path d="m-1008.87-433v-2q-.54-.33-.36-.66c.12-.22.24-.34.36-.34 4.29.56 8.76-1.17 12.92 1-1.85 1.26-6.37-2.82-6 3l-.6.53c-2.07.76-4.14 1.14-6.19-.11a1 1 0 0 1 -.13-1.42z" fill="#ca4a42"/><path d="m-1016.83-435h-7.95c-.34-.22-.45-.44-.34-.66s.23-.33.34-.33h7.95c.01.31 0 .64 0 .99z" fill="#cc443d"/><path d="m-1008.87-436v1h-4c-.39-.2-1.58-.48-.64-.82 1.4-.51 3.09-.18 4.64-.18z" fill="#cb413a"/><path d="m-996.94-432c-1.4 1.62-3.29.76-5 1l-.39-.49.38-.5h5z" fill="#ca4a42"/><path d="m-1008.87-433v1c2.17 1.43 4.78-.33 7 1a2.84 2.84 0 0 1 -2.28 1.14c-2.61 2-5.55 1.1-8.4 1a24.86 24.86 0 0 0 -12.15-.09c-2.67.62-5.49 0-8.11 1a27.87 27.87 0 0 1 -6.64.37c-1.65-.05-3.29 0-4.94-.05-2.2 0-4.4-.53-6.61-.11-9.35.33-18.7.08-28 .17-5.52.16-11.07-.46-16.57.39a8 8 0 0 1 -2.53.09 23.24 23.24 0 0 0 -7.25-.47 23.82 23.82 0 0 1 -4.92-.42c-3.21-1.13-6.62-.26-9.87-1-2.42-1.61-6.46 1-8-3h13.92c3.41.54 6.75-1 10.17-.42 13.76 1.21 27.52-.13 41.27-.15 3.77 0 7.45 1.75 11.23.42 3.28-.4 6.54-.95 9.83-1.23 1.79-.15 3.66-.15 5 1.38 4.31-.39 8.74.95 12.92-1a34.29 34.29 0 0 0 12.93 0z" fill="#c8494b"/><path d="m-1032.89-429.13c2.57-1.54 5.53-.42 8.21-1.19a89.58 89.58 0 0 1 11.7-.1l8.8.52 9.86 2a2.85 2.85 0 0 1 .41.77l-5 .07a3.65 3.65 0 0 1 -3.7.66c-7.94-2-16-1-24-.94-2.34.05-4.72.59-6.28-1.79z" fill="#130f0c"/><path d="m-1166-409a2 2 0 0 0 1 1.82 5.5 5.5 0 0 1 -3.88 2c-.62-1.41-2.46-2-2.46-3.85l4.24-1.12z" fill="#c54a46"/><path d="m-1170.94-420.11c1.7-.65 3.15-2 5.13-1.89.78 3.9-2.94 3.69-4.77 5.22a1.55 1.55 0 0 1 -1.34-.32c.02-1.1-.16-2.27.98-3.01z" fill="#c14d50"/><path d="m-1171.92-417.1h.91c1.45.55 1.51 2 2 3.13l.21 1.57c-2.23 1.57-1.81-1.64-3.12-1.73-.34-.22-.45-.44-.34-.66s.23-.32.35-.32z" fill="#b04d4c"/><path d="m-1171.93-415.12v1c-2-.26-2.54-1.54-2.61-3.35 2.16-.36 1.33 2.06 2.61 2.35z" fill="#cc403e"/><path d="m-1032.89-429.13c5.51 1.08 11-.05 16.54 0a63.74 63.74 0 0 1 17.42 2.13c.4 1.79 4 1.31 2.9 4.15-3.89 1.29-7.43-.82-11.16-1.13-1.47-.35-2.92-1-4.48-.4-1.23 1.06-.62 2.46-.71 3.74-.39 6.48 1 12.85 1.06 19.29-.25 3.33-.08 6.68-.13 10a22 22 0 0 0 .34 3.88 7.13 7.13 0 0 1 -.59 3.75c-.79 1.74-2 2.1-3.67 1.15-1.81-1.06-1.28-3.5-2.8-4.75-6.47-.18-12.4 2.68-18.72 3.33-1.33.1-2.65.1-4 .11-5.94-.21-11.91.52-17.81-.58-2.66-.49-4.16 2.18-6.3 2.24-6.37.19-12.89 1.58-19.06-1.17-2.25-1-4.47-.81-6.78-.59-8 .79-15.66-1.43-23.36-3.09a10.82 10.82 0 0 0 -4.9-.1 4.1 4.1 0 0 1 -3.12-1.14c0-.24-.09-.48-.14-.71-2.38-2.16-5.25-1.77-5.76.87a23.71 23.71 0 0 0 -.11 3.87 2.64 2.64 0 0 1 -3 0c-1.57-1.42-1.29-3.34-1.4-5.16-.89-10.28.86-20.49.89-30.74-.32-1.36 1.32-3.69-1.84-3.67-3.75-.15-7.42 1.29-11.2.54a3.28 3.28 0 0 1 -2-2.45 3 3 0 0 1 .32-1.62c1.45-2 3.93-2 5.89-3 6.35-.83 12.7-.28 19 0 3.5 2.1 7.54-.15 11.12 1.37l5 .08c2.2 1.15 4.76-.34 7 .91l2.08-.25c5.34-.52 10.69-.1 16-.24 10.06 1.09 20.12-.46 30.18 0 1.5-.17 3 .08 4.51 0 2-.18 4 1.77 5.88-.32z" fill="#010101"/><path d="m-1007.91-425.25 11.88 2.37c.55 9.62-1.58 18.73-5.24 27.54.5 2.27-.86 3.49-2.54 4.54-1.22.37-2.73 0-3.58 1.36a1.78 1.78 0 0 1 -1.25.51c-1.72-.46-3.24-1.14-3.69-3.11-.22-3 .4-6.13-.35-9.15-.67-7-1.41-13.92-1-20.93.28-2.75 2.39-2.94 4.47-3.18a1.52 1.52 0 0 1 1.3.05z" fill="#e9eaea"/><path d="m-1004.06-391.27 2.79-4.07 3.34-1.88c1.43 3.1-.47 5.31-2.1 7.54-1.24 1.7-2.81 3.21-2.8 5.54a7.52 7.52 0 0 1 -.09.83l-2.88 2.25c-1.07-1.16-1.33-2.8-2.34-4-.37-1.52.61-2.49 1.39-3.55a11.91 11.91 0 0 1 2.69-2.66z" fill="#0d0606"/><path d="m-985.1-418.29c2.1-.29 4.13.58 4.61 2.33s-1.77 2.81-3.13 3.85-2.91 2-4.36 3a5.76 5.76 0 0 1 -2.23-5 3.16 3.16 0 0 1 2.53-.88c2.68.33 2.13-1.9 2.58-3.3z" fill="#3c3e44"/><path d="m-1002.83-384.14c-.71-1.34-1.35-2.75.22-3.88 3.14-2.29 4.05-5.66 4.68-9.2h1a.93.93 0 0 1 1.26 0c.59 1.64-.51 2.74-1.27 3.94l-.85 2z" fill="#220202"/><path d="m-990-414.12c.93 1.56 2.39 2.91 2 5-4 1.2-4 1.2-3.84-5.06a1.21 1.21 0 0 1 1.84.06z" fill="#3a4544"/><path d="m-990-414.12-1.85-.05.72-1a1.79 1.79 0 0 0 .8-2.06c-.7-3.82 1.14-3.26 3.4-1.95-.35 1.68 4.75 3.48-.11 5.07z" fill="#54434e"/><path d="m-986.09-404.22c-1.1.86-2.21 1.65-3.73 1.11.11-3.53 1-4.11 4.86-3z" fill="#020a03"/><path d="m-982.11-406.3-2.82.23c.56-3.43 2.36-5.05 5.95-4.05-.82 1.46-3.25 1.59-3.13 3.82z" fill="#1e0a09"/><path d="m-995.84-397.19h-1.11c.83-2.49 1.56-5.1 5.17-3.9.19 1-.43 1.57-1.07 2.15-.34.25-.67.5-1 .78l-1.09 1.11c-.34.35-.64.34-.9-.14z" fill="#1e0202"/><path d="m-986.91-419.21c-1.71-.12-3.87-.84-2.55 2.4.56 1.38-.64 1.54-1.65 1.62.45-1.85-.95-4.21 1-5.53 1.27-.85 2.48.25 3.2 1.51z" fill="#433b40"/><path d="m-987-414.13c2.49-1.64-1-3.4.11-5.07l1.79.91c2.1 2.65 2.1 4.29-1.9 4.16z" fill="#453a46"/><path d="m-993.71-399.16c.64-.66 1.28-1.32 1.93-2l1.79-1.12v2c-.84 1.84-2.07 2.21-3.72 1.12z" fill="#a7484c"/><path d="m-1061.57-352.49c-.3-1.27-3.07-.6-2.21-2.43.48-1 2-.45 3.12-.09 1.68.54 3.37 1 5.06 1.52-1.75 1.8-3.97.71-5.97 1z" fill="#c74641"/><path d="m-1084.44-355.47v1c-1.38.14-2.93-.43-4 1-1.38-.15-2.93.41-4-1 .49-.69 1.5-.34 2-1 2.03-.98 4.01-.65 6 0z" fill="#d04b47"/><path d="m-1090.4-355.47a2.12 2.12 0 0 1 -2 1c-1.09 0-2.25.14-3-1z" fill="#c33e3e"/><path d="m-1066.54-376.35h-13.92a7.34 7.34 0 0 1 -6.19.65 2.59 2.59 0 0 1 -2.14-2.43c0-1.44 1.08-1.94 2.23-2.26a16.41 16.41 0 0 1 4.43-.31c11.54 0 23.09.17 34.61-.64a39.08 39.08 0 0 0 13.28-1 6.28 6.28 0 0 1 2.06-.7c2.92.63 5.9 1 8.55 2.56a1.4 1.4 0 0 1 -.24 1.44c-1.57 1.17-3.41.94-5.19 1a33.84 33.84 0 0 0 -7.78.56 23.39 23.39 0 0 1 -2.76.35c-6.21.84-12.53-.13-18.75 1.53-2.52.73-5.6.96-8.19-.75z" fill="#cf493e"/><path d="m-1046.65-380.32c-10.43 1.34-20.92.93-31.4 1-2.47 0-4.94 0-7.41 0-.93 0-2.28-.23-2.36 1.1s1.24 1.76 2.42 1.81c1.64.09 3.29 0 4.94 0-2.28 3.3-5.12 2.09-8 1a2.33 2.33 0 0 1 -1.55-.92 18.22 18.22 0 0 0 -1.46-1.94c-1.13-1.32-3.45-.62-4.27-2.49a1.6 1.6 0 0 1 .69-1.21c1.69-.89 3.5-.73 5.31-.61a9.42 9.42 0 0 1 1.57.29c1.83.71 3.75.47 5.65.5 8.55-.34 17.12.7 25.64-.62 5.23.33 10.39-2.45 15.67-.41.92 1.13.36 1.64-.79 2-1.49.48-3.17-.48-4.65.5z" fill="#ce4941"/><path d="m-1109.29-376.35-3-1a23.16 23.16 0 0 1 -7.68-1.47 1.53 1.53 0 0 1 -.6-1.16c-.34-.72 1.7-.6.55-1.6a6.43 6.43 0 0 1 -2-1.1 1.93 1.93 0 0 1 -.56-1.14 1.63 1.63 0 0 1 .68-1.05c1.34-.69 3-.58 4.22-1.55a2.73 2.73 0 0 1 1.32-.25c2.55.5 5.13.76 7.69 1.12 1.45.2 3.5-.17 3.49 2.34-1.31 1.49-3.32.79-5 1.48 1.87.31 3.86-.17 5.08 1.68-.35 2.44-3.34 1.85-4.19 3.7z" fill="#cb4a44"/><path d="m-1035.72-374.36h-1c-1-4.3 3.11-2.46 4.6-3.77a12 12 0 0 1 2.32-.19 22.07 22.07 0 0 1 7.44 1 6.32 6.32 0 0 1 2.48 1.47 1.78 1.78 0 0 1 .36 1.3c-.31 1.71-2.8.13-3 2a1.62 1.62 0 0 1 -.86.77c-1.91.25-3.83.65-5.66-.33-1.9-1.71-4.87-.26-6.68-2.25z" fill="#d04747"/><path d="m-1066.54-376.35 26.85-2a1.67 1.67 0 0 1 -.1 2.35c-3.48 1.27-7.1.36-10.65.63-2.08.15-4.27-.38-6.16 1-3.3-.71-7.25 1.8-9.94-1.98z" fill="#ce4941"/><path d="m-1120.23-379.33c2.77.22 5.87-.93 8 2l1 3c-1.33 1.49-3.27 1.43-5 2-2.27-.9-3.13-3.91-6-4l-.42-.45a2 2 0 0 1 .19-1.74 2.72 2.72 0 0 1 2.23-.81z" fill="#d14744"/><path d="m-1109.29-376.35c-.5-3.43 2.1-2.72 4-3a5.86 5.86 0 0 1 2.09.14 14.81 14.81 0 0 0 7.65-.11c1.77.1 3.66-.44 5.18 1a2.1 2.1 0 0 1 1 2 20.63 20.63 0 0 1 -13.91 0z" fill="#c94b44"/><path d="m-1103.32-376.35h13.91c.34.33.67.66 1 1-.54 1.06-1.37 2.17-2.57 1.78-3.32-1.07-6.7-.71-10.06-.8a2.07 2.07 0 0 1 -2.28-1.98z" fill="#d0474a"/><path d="m-1056.6-374.36c.94-2.05 2.77-2 4.61-2h12.3c.45 1.06-.09 1.62-1 2z" fill="#d04747"/><path d="m-1109.29-369.39c.66 4.85-2.24 3.78-5 3-1.07-.74-2.49-1.16-2.56-2.81a1.84 1.84 0 0 1 .57-1.16c2.59-1.38 4.83-.49 6.99.97z" fill="#cb4a42"/><path d="m-1020.8-368.39c-2.84-.09-5.62.06-8 2h-2l-.21-.73c.91-2.9 2.78-4.86 5.89-4.57 1.87.15 4.53.12 4.32 3.3z" fill="#ca4b3e"/><path d="m-1030.75-366.4c-5.19 1.9-5.43 1.61-5-6 2-.88 3.8-.38 5.62.43 1.27 1.24.14 2-.69 2.55-1.52 1.09-1 2 0 3z" fill="#cd4944"/><path d="m-1040.69-374.36 1-2v-2h3c1.55.87 3.59-.69 5 1-1 2-4.69-.31-5 3a2.1 2.1 0 0 1 -1 2 6.14 6.14 0 0 1 -3-2z" fill="#cd4944"/><path d="m-1029.75-371.38c-2 0-4.12.19-6-1v-2h5.94c1.67 0 1.32 1 1 2a1.17 1.17 0 0 1 -.94 1z" fill="#d4454b"/><path d="m-1116.25-372.37c.66-3.16 3.21-1.58 5-2a1.84 1.84 0 0 1 2 2c-2.32 3-4.64 2.4-7 0z" fill="#d2464a"/><path d="m-1116.25-372.37a6.55 6.55 0 0 0 7 0v3c-2.41.31-4.68-.42-7-1z" fill="#cc4947"/><path d="m-1120.23-364.42v-3c2.06-1.67 3.65-1 5 1-1.03 2.31-3.08 2-5 2z" fill="#d7433d"/><path d="m-1090.4-356.45c-.27-.95-.68-2 1-2h7.25c-2.1 1.88-4.75 0-6.21 2a1.36 1.36 0 0 1 -2.04 0z" fill="#d44b45"/><path d="m-1105.77-374.17a1.56 1.56 0 0 1 1.36 1.71c0 .88-.22 1.74-1.25 1.63a1.76 1.76 0 0 1 -1.45-1.72 1.35 1.35 0 0 1 1.34-1.62z" fill="#cc4b3d"/><path d="m-1040.69-374.36c1.45 0 2.88 0 3 2-.49.83-1 2-2.11 1.47-1.51-.68-.66-2.28-.89-3.47z" fill="#cb4b3d"/><path d="m-1038.7-361.43-2-1c.19-1.3-.35-3.48 2.2-2.28 2.33 1.09.79 2.23-.2 3.28z" fill="#cd4944"/><path d="m-1115.26-366.4a8.19 8.19 0 0 0 -5-1c.12-3.07 1.93-2.77 4-2 .66 1 1.32 2 2 3z" fill="#cf493b"/><path d="m-1050.63-357.46a2.1 2.1 0 0 0 -2 1h-3c-.49-.68-1.5-.3-2-1a5.78 5.78 0 0 1 7 0z" fill="#d3483d"/><path d="m-1090.4-356.45h2c1.37.14 2.92-.43 4 1h-6z" fill="#ca423a"/><path d="m-1057.59-357.46a2.09 2.09 0 0 1 2 1 15.63 15.63 0 0 1 -2.47 0c-.46-.08-1.47.55-1.29-.61.01-.24 1.14-.27 1.76-.39z" fill="#d84c48"/><path d="m-1029.75-371.38 1-1c2-.05 4-.73 6 0a2 2 0 0 1 2 1l2 3h-2c-4.49-4-5.36-3.83-10 2-1.19-.25-3.23.68-3.39-1-.27-2.82 3.14-2.44 4.39-4z" fill="#c94b42"/><path d="m-1015.85-372.87-.11.44-1.85-1.94a2.92 2.92 0 0 1 -1-1.39c-.53-2.8-.89-5.6.48-8.3a1.43 1.43 0 0 1 1.49-.44c1.66 2.36 1.06 5.25 1.81 7.83a5.54 5.54 0 0 1 0 2.43 4.82 4.82 0 0 1 -.82 1.37z" fill="#b65351"/><path d="m-1017.83-375.35v1c.19 2.18-.78 3.21-3 3a2.1 2.1 0 0 1 -2-1c.64-1.19 2.46-.61 3-2v-1a1.57 1.57 0 0 1 1-.55 1.48 1.48 0 0 1 1 .55z" fill="#d1474b"/><path d="m-1015.85-372.87.09-1.49c2.33-1.79 4.6-3.82 7.85-2-.62 1.21-1.83 1.66-2.93 2.24-1.43 1.38-3.03 2.12-5.01 1.25z" fill="#1f100e"/><path d="m-1007.91-376.35c-2.89-.43-5 2.38-7.85 2l-.18-1.8c-.62-2.52-.83-5 1.07-7.13 1.19.55 2.09.56 2.07-1.12 2.24 2.89 3.24-1.23 5-.88 2.32.63 2.36 2.33 2 4.23-.37.9-1.35 1.6-.91 2.77a1.38 1.38 0 0 1 -.28 1.91v-.07a3.68 3.68 0 0 1 -.92.09z" fill="#0a0404"/><path d="m-993.71-399.16 3.71-1.06h1a10.51 10.51 0 0 1 -4 5c0-1.07.16-2.2-.88-3a1.12 1.12 0 0 1 .17-.94z" fill="#d14b4d"/><path d="m-995.84-397.19a1.77 1.77 0 0 1 .91.1c.08 1.68-.29 3.12-2 3.83.34-1.31.72-2.62 1.09-3.93z" fill="#a94c4c"/><path d="m-1007-376.38c.09-.64.19-1.28.28-1.91.91.78.72 1.41-.28 1.91z" fill="#bf5c5e"/><path d="m-1145-424c4.26-.61 8.49-1.53 12.83-1.27 1.31.63 1.15 2.16 1.89 3.13q-.48 16.26-1 32.52l-.15.61a1.4 1.4 0 0 1 -1.14-.37c-.37-.73-1.31-.72-1.76-1.35-.24.59.07 1.19 0 1.79a3.69 3.69 0 0 1 -1.81 2.73c-2.23.15-2.25-1.79-2.92-3.1a3.47 3.47 0 0 0 -2-2.94c-1.26-.22-.91-1.23-1-2a4 4 0 0 1 .6-1.29c.5-.88 2.13-1.64.91-2.74-.7-.64-1.51.94-2.49 1l-1.29-2c-1.81-.89-.82-2.88-1.63-4.16.73-2.75-2.41-5-1-7.8-1-3.65-.23-7.39-.51-11.07.17-1.35 1.15-1.69 2.47-1.69z" fill="#e9eaea"/><path d="m-1155-422 1.77.12c1.31 1.73.35 3.72.65 5.57-.31 2.06-1.28 4.16.35 6.11v1c-1.3 1.27-2.6.75-3.91 0-2-.05-3-1.59-4-3a3.71 3.71 0 0 1 .7-1.05c1.52-1.48 1.11-2.81-.31-4.07a3 3 0 0 1 -.57-1.15c.17-1.53 1.71-1 2.48-1.67l2.93-2z" fill="#423e3f"/><path d="m-1146.07-427v1a1.31 1.31 0 0 1 -2 0c-3.34-.43-5.47 1.22-6.9 4.05l-6.11-1.08a29.84 29.84 0 0 1 10.81-4.09c1.47-.98 2.86-1.23 4.2.12z" fill="#0e0100"/><path d="m-1169-414c-1.52-.5-1.75-1.81-2-3.13 1-2.43 4.64-2 5.2-4.89l1.82-.19a3.8 3.8 0 0 0 1-.06c-1.17 3.42-4.73 5.05-6.02 8.27z" fill="#320703"/><path d="m-1143.09-397.25c1.17-.94.13-3.74 2.64-3.39a2.79 2.79 0 0 1 2.13 2.51c.26 2.7-2.23 2.88-3.79 3.89-1.14-.76-.72-1.98-.98-3.01z" fill="#ece4e9"/><path d="m-1159-412.15-1.14.06c-2.82-1.32-6.43-2.41-1.83-6a1.31 1.31 0 0 1 1.91-.1l.16.14c.9 1.88-.18 4.05.9 5.9z" fill="#334040"/><path d="m-1147.07-423v11.86c-1.67-3.92-.76-8.06-1-12.1a.79.79 0 0 1 1 .24z" fill="#dedddd"/><path d="m-1156.11-409.12h3.91c.24.83 1.5 1.91.48 2.45-2.39 1.25-3.11-1.27-4.39-2.45z" fill="#403e3f"/><path d="m-1152.2-410.2c-3-1.17-3.2-2.83-.85-4.93.58.11.66.69 1 1z" fill="#403e3f"/><path d="m-1147.07-423-1-.24a2.34 2.34 0 0 1 0-2.79h2l1 2.09c-.21 1.22-1.44.34-2 .94z" fill="#070403"/><path d="m-1152.06-414.09-1-1q-.08-3.37-.14-6.75c2.68 2.22.41 5.21 1.14 7.75z" fill="#070403"/><path d="m-1141.12-392.22c2.95-.07 3.21.31 2 2.94a2.5 2.5 0 0 0 -.86-.4z" fill="#e2e2e1"/><path d="m-1146-403.37 1.63 4.16c-4.22.05-1.42-2.65-1.63-4.16z" fill="#070403"/><path d="m-1160.07-418.19-1.91.1c.62-2.25 2.08-2.71 4.13-1.94z" fill="#070403"/><path d="m-1126.19-371.38c2.27-2.77-1.34-6.19 1-8.95 1.53.93 1.59 3 3 4 .78 3.33-1.74 4.04-4 4.95z" fill="#ce4742"/><path d="m-1116.25-369.39c-1.71-.09-3.22.2-4 2-1.2-.12-2.48-.39-2.52-1.81s1.44-1.05 2.21-1.53c1.53-.95 2.85.42 4.29.36z" fill="#c74d3c"/><path d="m-1136.18-386.18 1-3.09a2.36 2.36 0 0 1 2.8-.17l.35.31a16.45 16.45 0 0 1 0 6.81l-1.19 1.16c-1.87-1.11-2.62-2.94-2.96-5.02z" fill="#e9ece9"/><path d="m-1132-382.32v-6.81c.24-.14.48-.29.71-.45 0 1.76.07 3.52.11 5.28-.25.66-.51 1.3-.82 1.98z" fill="#07070e"/><path d="m-1105.31-383.31c-2.7-1.74-5.85-1.26-8.75-1.37-1.62-.07-2.16-1-3.19-1.57-1.92.91-3.91 2.17-5-1v-1.06l2.81.15a34.94 34.94 0 0 1 10.19 1.53c6.71 2.07 13.59 2.11 20.48 2.25 4.75.11 9.25 1.66 14.08 1.8 8.62.24 16.91-2.33 25.49-2 2.43.1 4.92.12 7.38.09a1.12 1.12 0 0 1 1.43.59v.85l-.41.76c-5.34-.37-10.54 1.63-15.9 1-8.76 1.06-17.56.19-26.33.48-1.83-.2-3.73.46-5.49-.49h-1c-2.72-1.08-5.37-.54-8 .27-2.75.03-5.78.62-7.79-2.28z" fill="#b74c4f"/><path d="m-1122.24-387.27c1.41 1.61 3.32.74 5 1v1c-1.47 1.22-3.51-.33-5 1v1a2.09 2.09 0 0 1 -3 0c-.05-2.15.42-3.86 3-4z" fill="#d2454b"/><path d="m-1122.22-376.35c-2.57-.14-3.06-1.85-3-4 0-.66 0-1.32 0-2 1.46-.54 2.06.66 2.88 1.42.56.83.91 1.67.08 2.54z" fill="#da423d"/><path d="m-1123.2-380.33-2-2c0-.33 0-.66 0-1h3c.72 1.33-.11 2.19-1 3z" fill="#cb3e36"/><path d="m-1036.71-432-14.91 1c-3 1-5.34.57-6.28-2.9a3.14 3.14 0 0 1 1.7-1.73c4.86-1.34 9.79-.64 14.71-.52l.8.17h15.91v1a9.29 9.29 0 0 1 -6.83 2c-1.71-.02-3.64-.66-5.1.98z" fill="#d2483b"/><path d="m-1056.6-435-1 1a3.21 3.21 0 0 1 -2.53 1.31c-9.11 0-18.23.9-27.32-.42a2.68 2.68 0 0 1 -1.6-2.17 2.54 2.54 0 0 1 .63-1.7c10.56 1.79 21.21.7 31.81 1l.39.5z" fill="#c94b41"/><path d="m-1120.23-435v-1h15.91l.7-.11c1.79.05 3.88-.55 4.47 2.09-1.31 1.56-3.53 1.09-5 2.25a4.13 4.13 0 0 1 -1.43.24c-2.22-.26-4.51.54-6.67-.49-1.29-1.52-3-.88-4.63-1s-3.12.12-3.35-1.98z" fill="#d0493e"/><path d="m-1019.81-448.93-3 3c-2.63-.34-1.81-2.41-2-4 1.43-1 1.61-2 0-3-1.43-1.23-3.67-.43-5-2a.89.89 0 0 1 -.3-.75c0-.28.08-.42.14-.42a.9.9 0 0 1 1.16.17h3l1 1a7 7 0 0 1 4 1l1 1a2.9 2.9 0 0 1 0 4z" fill="#cd4a41"/><path d="m-1056.6-436a2.08 2.08 0 0 1 2.33-2h11.27a2.06 2.06 0 0 1 2.32 2 53.36 53.36 0 0 1 -15.91 0z" fill="#cf4848"/><path d="m-1088.41-437v1c-2.71 2.14-5.92 1.66-8.84 1.15-2.35-.41-4.8-.29-7.07-1.16.31-.55.6-1.55.94-1.57 5-.32 10.05-1.33 14.97.58z" fill="#ce484a"/><path d="m-1102.33-456.89c-.1.85 4.45 2.37-.41 2.57-2.88.11-5.8 1.38-8.53-.57 1-.69 2.28-1.08 3.1-2.1a5.24 5.24 0 0 1 2.32-1.35c1.17 0 2.36-.66 3.49.17a.91.91 0 0 1 .26.85c-.07.32-.15.43-.23.43z" fill="#cc473a"/><path d="m-1029.76-455.89v1l-3 1c-1.81-1.1-3.83-1-5.82-1a6.41 6.41 0 0 1 -2-.35c-1.36-.27-3.07 1.68-4.12-.62 1.05-1.43 2.6-.87 4-1 1.4-1.05 3.12-.85 4.69-1.23a1.15 1.15 0 0 1 1.27.24h2c.9.79 2.11 1.13 2.98 1.96z" fill="#d34440"/><path d="m-1106.31-457.88-1 2a2.45 2.45 0 0 1 -3 0c-.72-1.14-1.89-1-3-1a10.08 10.08 0 0 1 7-2q.54.33.36.66t-.36.34z" fill="#d04848"/><path d="m-1102.33-456.89v-1c0-.61.61-.71 1-1 2.6-.24 4.26 1.44 6 3z" fill="#cc4841"/><path d="m-1024.78-452.91c1.08.32 3-.76 3.11 1s-1.61 2-3.11 2z" fill="#d1483b"/><path d="m-1124.21-450.92v-2h2c.2.83 1.23 1.66.33 2.51s-1.69.31-2.33-.51z" fill="#d44c46"/><path d="m-1044.66-455.89c1.32.95 2.65 0 4 0 .25.22.34.44.25.66s-.17.33-.25.33c-1.65 1-3.42 1.36-4.85-.09-.84-.82.4-.72.85-.9z" fill="#d94b44"/><path d="m-1038.69-455.89c2.23-.08 4.39.06 6 2h-3c-.6-1.3-3.31.62-3-2z" fill="#d44e42"/><path d="m-1038.69-455.89 3 2c-1.68-.22-3.58.65-5-1v-1z" fill="#c84a3a"/><path d="m-1120.23-445.95h-4v-1c.7-1.2 2.1-.32 3-1 1.96-.14.57 1.39 1 2z" fill="#cc4742"/><path d="m-1121.23-447.94c-.72 1.15-1.88 1-3 1 .03-3.28 1.8-1.29 3-1z" fill="#d74b47"/><path d="m-1034.73-457.88h-1a3.87 3.87 0 0 1 -4 0v-1c1.73.23 3.61-.64 5 1z" fill="#cb3f43"/><path d="m-1110.29-455.9h3c-1 1.43-2.59.86-4 1-.82-1.46.59-.75 1-1z" fill="#da5249"/><path d="m-1039.69-457.89h4c-1.4 1.63-3.29.76-5 1z" fill="#dc4b4a"/><path d="m-1121.22-430c-6.65 0-13.33-.71-19.91.88-2.93.38-5.68 2.23-8.81 1.11-2.35-1.08-4.72.44-7.07-.07 3.89-2.68 8.42-3.28 12.93-4 2.52 1.34 5.41-.32 7.94 1 2.69 0 5.2-1.48 8-1 2.29 2.25 5.56-.1 8 1.67-.19.77-.52.9-1.08.41z" fill="#c74945"/><path d="m-1136.14-431c-2.64-.39-5.5 1-7.94-1h2c1.96.29 4.19-.82 5.94 1z" fill="#d5444b"/><path d="m-1112.27-432h8c.25.22.34.44.25.66s-.17.33-.25.33c-3.3-.44-6.8 1-9.94-1z" fill="#d4444a"/><path d="m-1101.34-458.86-1 1h-4v-1a2.13 2.13 0 0 0 2-1h2z" fill="#d0504f"/><path d="m-1149.94-428 8.81-1.11c-1.24 1.65-3.52.83-4.94 2.06l-4.15-.14a7 7 0 0 1 .28-.81z" fill="#3e0503"/><path d="m-1029.76-455.89a3 3 0 0 1 -3-2 5.48 5.48 0 0 1 4 2z" fill="#d04842"/><path d="m-1019.81-448.93c0-1.33 0-2.66 0-4 2 .1 3.08 1.41 4 3 .61 1 2.13 1.46 2 3l-3-1z" fill="#cd494a"/><path d="m-1010.86-433a17.81 17.81 0 0 1 -12.93 0z" fill="#ca4a42"/><path d="m-1001.91-431-6.86-.18c-.09 0-.23-.22-.25-.35a1.51 1.51 0 0 1 .15-.47h7z" fill="#d1464b"/><path d="m-1104.32-431v-1c4.82-2.29 10.16-.56 15.1-2h.81 30.82c1.2 2.58 3.35 3.25 6 3-2.33 2.23-4.68 0-7 .06-10.47.24-21-.61-31.42.83-4.84.64-9.49-1.61-14.31-.89z" fill="#d24642"/><path d="m-1049.63-428.37c-10 .27-19.89 1.79-29.87.37-.31-.23-.41-.45-.3-.67s.21-.33.32-.33l29.84-.06c.24.15.33.3.25.46s-.16.23-.24.23z" fill="#bd575a"/><path d="m-1079.48-429v1l-16.78-.3c5.52-1.61 11.18-.36 16.78-.7z" fill="#b25e61"/><path d="m-1013-430.42-11.7.1a21.53 21.53 0 0 1 11.7-.1z" fill="#ca4a42"/><path d="m-1039.69-428.86c-.18.41-.26 1-.58 1.2-2.89 2-2.91 2-4.51-.47-.26-.44-.16-.72.35-.82z" fill="#030b01"/><path d="m-1121.22-430 1-.38c3.27.79 6.81-.51 9.93 1.32-3.65-.3-7.42.9-10.93-.94z" fill="#2e1212"/><path d="m-1098.36-428c-2.34-.13-4.82.77-7-.91 2.36-.01 4.83-.59 7 .91z" fill="#2e1212"/><path d="m-1044.43-428.95a5.94 5.94 0 0 0 -.35.82l-4.85-.24c0-.23 0-.46 0-.69z" fill="#c54b40"/><path d="m-1069.23-422c4.12-1.81 8.44-.67 12.67-.86 3.82 1.56 8-1.6 11.73.82 0 1 0 2 .08 3-.65.82-.37 1.8-.42 2.71a2 2 0 0 0 .22 1.34 1 1 0 0 1 .41-1.34c1.14 4.72.5 9.55.88 14.32.19 2.42-1.23 2.63-3.06 2.72-5.45.3-10.9.8-16.35 1-6.65.24-6.66.15-6.29-6.87a102.92 102.92 0 0 0 .13-16.84z" fill="#eaeaea"/><path d="m-1117.26-424.93c4.36-.07 8.76-.43 12.78 1.85-1.07 5.45.4 11-.77 16.46.62 4.33.39 6.56-5.57 5.62-15.37-2.43-15.43-2-14.5-17.15a24.86 24.86 0 0 0 .1-4c-.36-3.6 1.15-4.45 4.3-3.11 0-.67.13 1-.24.4s-1-.17-.43.14c1.5.87 2.9.12 4.33-.21z" fill="#e9e9e9"/><path d="m-1100.18-401.19v-1c1.23-4.43-.48-9 .78-13.47l.15-7.41a8 8 0 0 1 5.45-.05l7.4.25c3.82 1.05 7.82-.47 11.62.83.1 7.08.14 14.17.31 21.25 0 1.84-.36 2.75-2.42 2.6-4.25-.33-8.57.33-12.77-.87 1.64-2.48 4.91-.33 6.66-2.36-2.19-1.32-4.67-1.21-7-1.59a8.43 8.43 0 0 1 -1.31-.26c-3.54-1.62-5 .54-6 3.37a2.07 2.07 0 0 1 -2.87-1.29z" fill="#eaeaea"/><path d="m-1019-422.08q.15 3.78.28 7.56a25.06 25.06 0 0 1 -.12 10.17 25 25 0 0 1 -9 2c-2-.53-4-1.1-6.11-1.5a2.24 2.24 0 0 1 -1-1.54 5.12 5.12 0 0 1 .29-2.09c-.43.66-.39 1.53-1 2.13a1.91 1.91 0 0 1 -.8.48c-1.07.07-1.69-.7-2.42-1.27v.08c-.88-4.49-.22-9-.38-13.53-.07-1.93 1.08-3.32 2.41-4.57h-.08c2.29-.95 4.79.17 7.08-.71l3-.05c2 1.75 5-.5 6.89 1.82.39.33.68.68.96 1.02z" fill="#eaeaea"/><path d="m-1080.4-393.28h15.82a15.68 15.68 0 0 1 8.43.07c-1.3 1.95-2.86 1.22-4.16 1.37-.22.61-.28.1-.07.1 3.4-.13 6.87-.15 9.76-2.38 3.32-.24 6.52-1.59 9.92-1a.92.92 0 0 1 -.13 1.19c-1.31.95-3 .76-4.35 1.34a1.76 1.76 0 0 0 -.69.6c1.79 0 3.54-.75 5.28 0a3.51 3.51 0 0 1 2.08 1.75 55.85 55.85 0 0 1 -16.07 2 49.63 49.63 0 0 1 -9.2.4 1.32 1.32 0 0 1 -1.08-.78 2 2 0 0 1 .86-1 17.79 17.79 0 0 1 3.78-.09c-1.24.21-3.36-.67-5 1-1.78.75-3.65.31-5.47.44-3.1-.11-6.21.25-9.3-.26a4.38 4.38 0 0 1 -1.41-.91c-1.7-2.4-5.65-.42-7.25-3.75a15.22 15.22 0 0 1 8.25-.09z" fill="#434443"/><path d="m-1040.71-384.36c-14 1.08-28 2.88-42.15 1.7-12.28-1-24.64-1.8-36.53-5.52 4.16-1.89 8.2-.27 11.88 1.11 5.93 2.23 12 1.53 17.94 1.48a22.71 22.71 0 0 1 6.14.87c6.81 1.79 13.61 3 20.38-.45a7.78 7.78 0 0 1 4.81-.68c5.92 1.24 11.89 0 17.8.68a.61.61 0 0 1 -.27.81z" fill="#140303"/><path d="m-1080.4-393.28h-7.32c2.32 2.37 6.21-1 7.26 3-1.47 1.38-3.24 1.38-5.06 1.08-3-1-6-1.31-8.8.8-1.48.1-3 .38-4.22-.78a1.59 1.59 0 0 0 -.76-1.15c-1.1-.77-3.42-1-2.82-2.66.73-2 3-1.34 4.69-1 1.41.29 2.71 1.13 4-.13 4.37.22 8.8-.94 13.03.84z" fill="#3f3f3f"/><path d="m-1106.16-395.3 1.84.09c.1.22.21.44.31.65a2.09 2.09 0 0 1 -.93 1c-1.75.91-3.41-.34-5.14-.23.86.09 1.83 0 2 1.21-.31 1.11-1.3 1.28-2.17 1.62a1.92 1.92 0 0 1 -2-.34c-3-.61-6.2-.49-9-2.1a2.59 2.59 0 0 1 0-3.77c3.1-.79 5.93 1.17 9 .93 1.88 1.24 4.18-.17 6.09.94z" fill="#404040"/><path d="m-1017.07-384.3h-.73a20.61 20.61 0 0 0 -2.05-.7 9.42 9.42 0 0 0 -2.31.1c-1.7.39-3.39.81-5.12 1.06-1.77.57-3.52 1.28-5.45.89-1.56-.29-3.6.3-3.93-2.2 5.52-1.35 11-2.72 16.56-4 1.24-.29 2.62-.71 3.38.92.4 1.34.92 2.71-.35 3.93z" fill="#bd5051"/><path d="m-1080.46-389.27h10c1.82 1.3 4.13-.27 6 1 .33.2.44.39.33.58s-.22.29-.33.29c-8-.17-16 1-23.92-.7a1.07 1.07 0 0 1 .28-1.52c2.5-.18 5.1-.49 7.64.35z" fill="#404143"/><path d="m-1110.27-391.3a2.08 2.08 0 0 1 2-1c1-1.41 3-.58 4-2a13.92 13.92 0 0 1 8 0l3 .13c-.19 1.48-1.07 2.08-2.42 1.55a10.36 10.36 0 0 0 -6.1-.37c1.82.76 3.22 1.05 4.25 1.83 1.92 1.45.15 1.6-.87 1.93l-2.76-.21c-1.12-1.58-2.81-.2-4.12-.8l-1.92-.19c-.95-.75-2.3.12-3.06-.87z" fill="#434244"/><path d="m-1038.51-390.19a2.43 2.43 0 0 1 -2.18-1.07 1.18 1.18 0 0 1 -.52-.9 2.89 2.89 0 0 1 .51-2.08c0-.28 0-.55 0-.82l3.91-.33c1.61.25 3.32 0 4.76 1 1.09.84 2.68.9 3.47 2.21a21.47 21.47 0 0 1 -9.95 1.99z" fill="#404040"/><path d="m-1050.62-394.1c.15 2.1-.92 2.7-2.92 2.92a27.86 27.86 0 0 1 -9.93-1h5.65v-1.06h-6.8c4.62-1.71 9.34-.76 14-.86z" fill="#3f3f3f"/><path d="m-1032.73-393.25c-.89-1.59-3.25-.39-4.06-2.14 3.83-1.58 7.89-1.79 11.93-2.05a2.06 2.06 0 0 1 1.49 2c-.08 1-.82 1.55-1.36 2.26a2.2 2.2 0 0 1 -2.46 0c-1.32-.82-2.49-.12-3.69.34a2 2 0 0 1 -1.85-.41z" fill="#3f3f3f"/><path d="m-1024.73-393.16a2.08 2.08 0 0 1 1-2.09c.67-.82-.16-2.19 1-2.84 1.63.13 3.75-2.72 4.83.43 1.15 3.34-1.84 3.56-3.9 4.21a13.78 13.78 0 0 1 -2.93.29z" fill="#434343"/><path d="m-1007.77-385.29-3.56 4.18c-1.1-.85.19-2.88-1.47-3.3.41-.95 1.26-1.76 1-2.94.13-3.09 2.74-1.06 4-1.92 1.11-.53 1.64.1 2 1z" fill="#e6ece9"/><path d="m-1100.18-401.19 2.76.88c.94-2.95 2.25-5.34 6-3.88h1c.79 1.34 4.18 2.47.33 4.16-1.06.42-2.42-.63-3.32.64-2.3-.39-5.25 1.59-6.77-1.8z" fill="#eaeaea"/><path d="m-1036.7-405.18c1.63-.92.34-3.29 2.3-4.31 1.66 1.59-.72 3.77.67 5.3.32.94 1 1.89 0 2.83-1.59-.41-4 3.58-4.83-.87.64-.98.21-2.61 1.86-2.95z" fill="#e7e7e7"/><path d="m-1036.75-424.15c-3.18 5.75-1.48 12-2 18.1-1.16-5.17-.59-10.45-1-15.67-.15-2.42 1.07-2.76 3-2.43z" fill="#e7e7e7"/><path d="m-1093.39-399.39c-.18-.54-.73-1.22 0-1.59 1.13-.59 2 .44 3 .76a17.72 17.72 0 0 1 4.09-1.24 11.73 11.73 0 0 0 4.63-1 1.08 1.08 0 0 1 1.22.21c.12 2-.68 3-2.84 3s-4.24.08-6.36.13z" fill="#f1f1f1"/><path d="m-1105.25-406.62q-.21-7.62-.43-15.23c0-.82.51-1.1 1.2-1.23.11 5.5.48 11.01-.77 16.46z" fill="#e6e7e7"/><path d="m-1069.23-422a38 38 0 0 1 -.13 16.84z" fill="#eee"/><path d="m-1121.25-397.15v3.77c-2.13-.67-5.42.16-5-3.85a4 4 0 0 1 3.65-.9 6.52 6.52 0 0 1 1.36.77z" fill="#3b3b3b"/><path d="m-1088.4-389.28c0 .39 0 .78-.07 1.17l-5.85-.28c2-3.21 4.62-3.94 7.89-1.88-.47.69-1.47.34-1.97.99z" fill="#464448"/><path d="m-1033.72-401.36c.27-.94-1.15-1.88 0-2.83 2.62-1.44 4.08.84 5.94 1.85-1.95.56-3.83 1.49-5.94.98z" fill="#ededed"/><path d="m-1017.07-384.3c.12-1.32.23-2.64.35-4 1.69 1.26.05 3.75 1.85 5-.36 2.38-.72 4.75-1.07 7.13-1.53-2.54-.44-5.46-1.13-8.13z" fill="#2d0500"/><path d="m-1099.4-415.7c-.71 4.46 1.67 9.11-.78 13.47.04-4.5-.49-9.04.78-13.47z" fill="#eaeaea"/><path d="m-1019.8-422.09a4.12 4.12 0 0 0 -4.4-1.16c-2.31 1-1.79-1.08-2.55-1.69l3.53-.25c2.71-.7 4.66-.56 3.42 3.1z" fill="#ececee"/><path d="m-1007.88-389.27c-.86 1.59-3.06.41-4 1.92-1.07-.9-.6-2-.37-3-.17-.49 0-.77.51-.85 1.74-.13 2.52 1.4 3.86 1.93z" fill="#f8e4e7"/><path d="m-1036.66-385.15c.94 1.4 3.05.27 3.92 1.82l-.66.53c-2.52 1.15-5 1.28-7.27-.5 0-.35 0-.71 0-1.06a5.5 5.5 0 0 0 .27-.81z" fill="#b84d4a"/><path d="m-1064.55-387.41v-.87l10 .06c-3.24 1.65-6.67.66-10 .81z" fill="#3c413f"/><path d="m-1074.78-422.08c-3.86-.43-7.85.92-11.62-.83 3.88.16 7.85-.87 11.62.83z" fill="#eaeaea"/><path d="m-1044.83-422.09c-3.9-.41-7.92.89-11.73-.82l5.56-.28a9.35 9.35 0 0 1 6.07.12z" fill="#ecf0ed"/><path d="m-1117.26-424.93a4.45 4.45 0 0 1 -3.61 1.28c-1-.06-2.25 2.18-2.78.15-.57-2.2 1.75-1.19 2.73-1.71z" fill="#efeff1"/><path d="m-1011.69-391.24-.51.85a39.9 39.9 0 0 1 -.48-10.8c1.68 3.19.31 6.67.99 9.95z" fill="#e9e6e7"/><path d="m-1018.82-404.35.12-10.16c.4 3.39 1.7 6.79-.12 10.16z" fill="#e3e3e3"/><path d="m-1096.36-394.25h-8v-1c2.69.36 5.51-.75 8 1z" fill="#3f3f3f"/><path d="m-1105.42-390.19c3.61-1.63 3.92-1.57 4.12.8-1.45.11-2.92.39-4.12-.8z" fill="#3f3f3f"/><path d="m-1008.88-424.95c-1.37 1.32-3.92.67-4.8 2.83-.2-1.35-.76-2.76.62-3.85 1.24.97 3.06-.25 4.18 1.02z" fill="#f5f5f7"/><path d="m-1019.8-422.09c.3-2.62-1.42-3-3.42-3.1 3-1.14 5.07-1 4.24 3.11z" fill="#e3e3e3"/><path d="m-1121.16-397.36a5.24 5.24 0 0 1 -1 .11c-.5-.85-2.62 0-2.08-1.95 2.65-2.04 2.93-.19 3.08 1.84z" fill="#0f0f0f"/><path d="m-1130.33-422.11a3.36 3.36 0 0 1 -1.89-3.13c3.71-.76 1.5 1.95 1.89 3.13z" fill="#f5f4f6"/><path d="m-1029.75-424.89c-2.23 1.52-4.68.8-7.08.71 2.28-1.08 4.69-.82 7.08-.71z" fill="#d4d5d5"/><path d="m-1044.93-423.07-6.07-.12c2-.44 4.08-1.65 6.07.12z" fill="#eaeaea"/><path d="m-1093.8-423.16-5.45.05c1.8-1.6 3.63-.72 5.45-.05z" fill="#eaeaea"/><path d="m-1124.21-399.2 2.08 1.95h-4c-.18-1.43.57-2 1.92-1.95z" fill="#434343"/><path d="m-1106.16-395.3c-2-.22-4.29.85-6.11-.92 2.07.11 4.27-.5 6.11.92z" fill="#3f3f3f"/><path d="m-1036.7-405.18-1.85 2.95-.24-3.9a2.1 2.1 0 0 1 2.09.95z" fill="#f3f3f3"/><path d="m-1026.77-394.25a2.33 2.33 0 0 0 2.06 1.06c-.79 1.07-2 .88-3.06.91-.51-.43-1.28-.62-1.27-1.49a1.35 1.35 0 0 1 2.27-.48z" fill="#404040"/><path d="m-1028.76-393.26 1 1a1.79 1.79 0 0 1 -.79.12c-1.41-.29-3.07.38-4.17-1.09h2a1.34 1.34 0 0 1 1.96-.03z" fill="#454545"/><path d="m-1022.76-398.09c-.06 1 .1 2.18-1 2.84-.36-.73-.72-1.46-1.07-2.19a2 2 0 0 1 2.07-.65z" fill="#393939"/><path d="m-1008.88-424.95-4.18-1c1.76-.1 3.6-.69 5.15.72z" fill="#130f0c"/><path d="m-1110.27-391.3c1 .08 2.18-.13 2.93.92-1.67-.08-3.48.59-4.89-.9z" fill="#3f3f3f"/><path d="m-1044.54-416.37a3 3 0 0 1 -.28.88c-.33.5-.73.43-.77-.16-.09-1.22-.32-2.51.84-3.43z" fill="#f2f2f2"/><path d="m-1005.85-388.26-2-1c-.7-4.44 1.84-2.69 3.82-2a3.42 3.42 0 0 1 -1.82 3z" fill="#e9e6e7"/><path d="m-1004.43-406c.67.1 1.25.37 1.29 1.14a1.21 1.21 0 0 1 -1.46 1.41 1.14 1.14 0 0 1 -1.06-1.33c.01-.72.52-1.09 1.23-1.22z" fill="#f1e7eb"/><path d="m-1006.88-398.22c-1 .91.4 3.08-1 3.19-1.73.15-2.12-1.6-2-3.19a2.14 2.14 0 0 1 3 0z" fill="#e9e6e7"/><path d="m-1007-404.31c-.18.64-.4 1.42-1.17 1.24-.29-.07-.53-1-.52-1.57a1.3 1.3 0 0 1 .79-1c.9-.08.9.64.9 1.33z" fill="#e3edec"/><path d="m-1006.88-398.22h-3c.15-1 .41-2 1.73-1.79 1.03.13 1.15 1.01 1.27 1.79z" fill="#f0e9ed"/><path d="m-1032.74-383.33 5-1.95c1.22 1 2.68.24 4 .57a2.64 2.64 0 0 1 1.49 1.46 2.22 2.22 0 0 1 -1.49 2.92c-3.27.64-6.08-.76-8.94-2-.25-.22-.34-.44-.26-.66s.17-.33.25-.33z" fill="#ca4a3e"/><path d="m-1021.8-376.34-8-1a1.34 1.34 0 0 1 0-2h6c1.43-1 2.64-.91 3.52.73.07 1.15.28 2.4-1.52 2.27z" fill="#d84342"/><path d="m-1046.65-380.32c1.51-2.07 4.44.08 6-2 2.43-.44 5-1.55 7 1-4.29 1.6-8.62 1.55-13 1z" fill="#d74442"/><path d="m-1020.8-378.34c-.72-1.14-1.89-1-3-1v-1l1-3c1-1.11 2.06-2.07 3.52-.6.28 2.1 1.68 4.49-1.52 5.6z" fill="#ce4839"/><path d="m-1029.75-379.33v2h-2c-1.68-.23-3.58.64-5-1 2.25-1.13 4.63-1 7-1z" fill="#ce4941"/><path d="m-1033.73-381.32c-2.17-1.37-4.6-.92-7-1v-1h7.94v1z" fill="#ce4941"/><path d="m-1105.31-383.31a21.69 21.69 0 0 0 8 1c.5.65 1.51.27 2 1v1a2.43 2.43 0 0 1 -1.14.75c-2.63.21-5.52-1.16-7.81 1.24l-1-1c-1.93-1.89-4.41-.53-6.56-1.11-1-.26-2-.62-1.79-1.87.16-1.07 1.19-.95 2-1 2.03-.02 4.16 0 6.3-.01z" fill="#cf4643"/><path d="m-1083.44-381.31h26.84c-3.35 2.09-7 .76-10.56.92-5.41.25-10.85.06-16.28.07-.33-.22-.45-.44-.33-.66s.22-.33.33-.33z" fill="#d2474b"/><path d="m-1096.36-380.33h1c1.76.42 4.31-1.16 5 2h-6a1.39 1.39 0 0 1 0-2z" fill="#cf493e"/><path d="m-1095.37-381.32a2.09 2.09 0 0 1 -2-1c2.64.38 5.49-1 7.95 1z" fill="#c84a43"/><path d="m-1083.44-381.31v1c-1.68-.23-3.58.64-5-1z" fill="#d4464b"/><path d="m-1120.23-382.32c1.49.15 3.14-.4 4.62.82-1.41 1.87-3.16.88-4.62 1.18-1 .18-1.43-.31-1.32-1.24.09-.72.64-.92 1.32-.76z" fill="#c84c41"/><path d="m-1120.23-382.32c-1 .67-1 1.33 0 2v1a2.07 2.07 0 0 1 -2 1 2.13 2.13 0 0 0 -1-2c.33-1 .65-2 1-3a2.12 2.12 0 0 1 2 1z" fill="#ce5145"/><path d="m-1122.21-384.3c1.26-2.29 3.37-.33 5-1-1.43 1.64-3.33.77-5 1z" fill="#d94c4d"/><path d="m-1020.8-378.34c1.78-1.74.68-4 1-6a.93.93 0 0 1 1.4.44c-.07 2.84.57 5.71-.41 8.51h-1a2.13 2.13 0 0 1 -2-1 2.12 2.12 0 0 0 1.01-1.95z" fill="#cf4a42"/><path d="m-1019.81-374.37c.78 3.31-1.87 1.49-3 2-.98-3.63 2.03-1.32 3-2z" fill="#df3f4b"/><path d="m-1096.36-380.33v2c-2.65 1.83-5.3 1.15-8 0 1.36-6.16 5.24-1.75 8-2z" fill="#d54739"/><path d="m-1018.82-375.35v-8.95a1.34 1.34 0 0 1 0-2 2.12 2.12 0 0 1 1 2v8.95z" fill="#cc4b4a"/><path d="m-1132.34-389.44-2.8.17c.24-1-.49-2.13.44-3 .11 1.49 3.46.27 2.36 2.83z" fill="#f2eeed"/><path d="m-1159-412.15c-2.89-1.57-1-3.87-.9-5.9 3.61 1.46 4.17 3.39.9 5.9z" fill="#4a474c"/><path d="m-1056.6-436h15.91c-5.19 2.1-10.62.47-15.91 1z" fill="#cd4941"/><path d="m-1104.32-436h15.91v2a13.69 13.69 0 0 1 -10.94 0c-1.18-1.88-3.79-.14-4.97-2z" fill="#d34640"/><path d="m-1099.35-434h10.94c-1.2 2.52-3.52 1.95-5.59 2-3.44 0-6.88 0-10.32 0 .66-3.19 3.22-1.6 4.97-2z" fill="#c94c3c"/><path d="m-1085.43-400.21h-5c2.72-1.32-1.56-2.64 0-4a22.1 22.1 0 0 1 9.94 2h-1c-1.11 1.03-2.81.93-3.94 2z" fill="#e8e8e8"/><path d="m-1078.13-407.1v-10.9l1.36-.05c.31 3.63.87 7.25-1.36 10.95z" fill="#eaeaea"/><path d="m-1096.65-406.63a27.57 27.57 0 0 1 -1.2-14.39c.02 4.6 2.15 9.02 1.2 14.39z" fill="#eaeaea"/><path d="m-1091.4-404.19c-3.21-.58-4.16 2.35-6 3.88-.2-5.21.79-5.85 6-3.88z" fill="#e7e7e7"/><path d="m-1080.24-405.15v-12.85a27.51 27.51 0 0 1 0 12.85z" fill="#eaeaea"/><path d="m-1080.42-406.18c-.54 2.21-1.78 1.94-3.37 1.82.6-2.05 2.08-1.73 3.37-1.82z" fill="#eaeaea"/><path d="m-1022-416.94c.09 3.42.82 5.9-1.41 8-.9-2.65-.19-4.89 1.41-8z" fill="#e7e7e7"/><path d="m-1034.51-421.93c.49 2.55 1.55 5.07-.85 7.17.28-2.39.57-4.78.85-7.17z" fill="#e7e7e7"/><path d="m-1040.69-392.26v1c-2.65-1-5.3 2.54-8 0a8.44 8.44 0 0 1 5.84-1.92 3 3 0 0 1 2.16.92z" fill="#474645"/><path d="m-1040.69-392.26h-2c-.78-1-2.19-.05-3-1 1.4-1.62 3.29-.76 5-1 .1.68 1.07 1.34 0 2z" fill="#454545"/><path d="m-1045.66-393.26c1.09.05 2.25-.15 3 1-2.1-.34-4 .67-6 1 .12-2.01 1.56-2 3-2z" fill="#3b3b3b"/><path d="m-1088.4-389.28a2 2 0 0 1 2-1h6v1z" fill="#3a3f3b"/><path d="m-1064.52-389.56a6.39 6.39 0 0 1 5.81 0z" fill="#3c413f"/><path d="m-1064.55-388.28c-2-.31-4.22.79-6-1h6z" fill="#3c413f"/><path d="m-1104.32-394.25c-.34 2.64-2.41 1.81-4 2-.58-1.2-2-.66-3.47-2z" fill="#3f3f3f"/><path d="m-1018.82-386.28v2h-1l-3 1c-.34-.33-.67-.67-1-1 .5-.82 1.38-1.27 2-2z" fill="#d54a4b"/><path d="m-1021.8-386.28a1.83 1.83 0 0 1 -2 2c-1.38-.12-2.93.42-4-1z" fill="#d44c52"/><path d="m-1028.76-393.26h-2c1-1.61 2.09-2.89 4-1a2.13 2.13 0 0 0 -2 1z" fill="#3d3d3d"/><path d="m-1085.43-400.21c.76-1.8 2.28-2.08 4-2-.78 1.8-2.29 2.09-4 2z" fill="#eaeaea"/></g></svg>