<svg xmlns="http://www.w3.org/2000/svg" preserveAspectRatio="none" viewBox="0 0 223.7 122.4"><path fill="#0c0606" d="M213 37c1 2 2 4 5 4a12 12 0 014 3l2 3v1l-4 8-4 4a9 9 0 00-2-1c-2-1-2-3-1-4a4 4 0 011-1c3-2 4-4 3-6a25 25 0 00-10-8 3 3 0 01-1-1 5 5 0 010-3 3 3 0 011-2h2a6 6 0 014 3z"/><path fill="#0a0e0a" d="M215 59h1c1 3 0 4-2 6l-4 5a14 14 0 01-2 2l-3 2-1 2a8 8 0 01-5 5c-2 1-4 2-4 5v1a47 47 0 01-4 3 5 5 0 01-3 1c-2 0-3-1-2-3a24 24 0 013-2c3-3 7-6 9-10l1-3a9 9 0 013-4c4-1 5-6 8-8 1-2 3-1 5-2z"/><path fill="#080302" d="M39 95l-7-6h-1l-2-2c-2-2-4-3-5-6 0-1 1-3-1-4a4 4 0 010-2 3 3 0 011-1 3 3 0 012 0 6 6 0 011 1 17 17 0 013 3 23 23 0 002 2 30 30 0 014 4 5 5 0 002 2 6 6 0 011 2 10 10 0 012 2l1 2c1 1 3 3 2 5h-3a4 4 0 01-2-2z"/><path fill="#0a0504" d="M198 26l1 2a2 2 0 010 2 5 5 0 01-2 2 2 2 0 01-1 0l-5-3a10 10 0 00-7-6 7 7 0 01-4-2v-5h3c2 1 5 2 7 5l4 3a3 3 0 012 0 8 8 0 012 2z"/><path fill="#110704" d="M197 32a2 2 0 011-3c1-1 2 1 4 1s4 2 5 4v2c-3 1-5-2-8-2a5 5 0 01-1 0c-1-1-2-1-1-2z"/><path fill="#0a0b17" d="M202 30c-2 2-3 0-4-1l1-1a5 5 0 013 2z"/><path fill="#090606" d="M10 63L2 52l-2-5c2-5 5-7 9-9a1 1 0 001 0 2 2 0 011 0 3 3 0 012 2l-5 5c-2 2-3 5 0 7 1 3 3 5 3 8a4 4 0 01-1 3z"/><path fill="#bd4b4a" d="M207 39h1a3 3 0 012 3c0 3 3 5 4 7a4 4 0 010 2l-1 2a6 6 0 000 1 17 17 0 010 1 3 3 0 01-2 3 2 2 0 01-2-1 8 8 0 01-1-4c2-3 0-5-2-6l-5-3c-1-1-3-1-2-3 2-1 4 0 5-3a2 2 0 013 1z"/><path fill="#180000" d="M207 39l-3-1-4-1c-1-1-2-2-1-4 3 0 5 2 8 3v3z"/><path fill="#1e0a09" d="M209 42l-1-3c4 1 7 4 10 8l-1 2a5 5 0 01-2-2l-3-2a8 8 0 00-2-2 2 2 0 01-1-1z"/><path fill="#140808" d="M217 48l1-1c2 4 1 6-3 7a2 2 0 01-1-1 4 4 0 010-2v-1l3-2z"/><path fill="#230706" d="M211 57l2-2v-1h1v1c0 1-1 3 1 4l-4 2c-1 1-2 0-2-1a2 2 0 012-3z"/><path fill="#ba5d53" d="M215 52v2a1 1 0 00-1 1v-1a1 1 0 01-1-1l2-1z"/><path fill="#0a0504" d="M162 109c-3 0-5 2-8 3l-19 7a15 15 0 00-7 1 2 2 0 01-2 0 3 3 0 011-4l7-2a89 89 0 0112-3 6 6 0 004-3 4 4 0 012-1 8 8 0 012 0l6-2 10-6a5 5 0 014-1 3 3 0 011 2c0 3-3 4-6 6a8 8 0 01-3 0c-2 0-2 3-4 3z"/><path fill="#180808" d="M199 76c-2 5-6 7-9 11h-3a2 2 0 010-1l2-4 4-4a7 7 0 011-1c2-1 3-2 5-1z"/><path fill="#180808" d="M189 90l-3 2a7 7 0 01-4 2 3 3 0 01-2-2c0-2 2-2 3-4a10 10 0 013-2 1 1 0 011 0 1 1 0 010 2c-1 3 1 2 2 2z"/><path fill="#29100f" d="M210 60l1 1c-3 3-3 8-9 9a5 5 0 011-4 5 5 0 011-1l4-5a1 1 0 012 0z"/><path fill="#cc565d" d="M204 66l-2 4-2 3a1 1 0 01-2 1 1 1 0 01-1-1 4 4 0 011-2c2-2 2-6 6-5z"/><path fill="#a74d4e" d="M198 73h2l-1 3-4 2c-1-3 1-4 3-5z"/><path fill="#0d0f05" d="M187 88v-2l3 1z"/><path fill="#d04741" d="M30 78a7 7 0 01-3-3 4 4 0 011-3l2-4 2-2a5 5 0 013 2l1 7-2 4c-2 1-3 0-4-1z"/><path fill="#110505" d="M44 97c0-2-3-3-3-5h4a12 12 0 012 1c2 2 6 3 6 6a5 5 0 01-4 3c-3-1-5-2-5-5z"/><path fill="#080704" d="M20 77a8 8 0 00-1 0c0-3-2-5-4-6a1 1 0 010-1c1-2 3-3 5-2a6 6 0 012 2l2 4v1l-4 2z"/><path fill="#c34c52" d="M40 90l-1-2c-1-2 0-3 1-4a3 3 0 011-1 3 3 0 012 0l3 4a6 6 0 011 3 4 4 0 01-1 2 2 2 0 01-1 0l-4-2a1 1 0 01-1 0z"/><path fill="#cc4946" d="M30 78l4 1 2-3 2 2a3 3 0 010 1 5 5 0 01-3 4l-4-3-1-2z"/><path fill="#060207" d="M20 77c0-3 2-2 4-2v1l-1 3z"/><path fill="#040405" d="M23 79l1-3c2 1 2 3 1 5z"/><path fill="#ad4d46" d="M24 74l-2-4a2 2 0 012 0 5 5 0 012 2 3 3 0 010 3z"/><path fill="#c24a48" d="M41 84l-2 4-1-1a2 2 0 01-2-2c1-2 3-2 5-1z"/><path fill="#ab4b47" d="M31 80l4 2c2 1 2 2 1 3h-1z"/><path fill="#d75550" d="M26 75v-3l3-1v2l-2 2a2 2 0 01-1 0z"/><path fill="#210505" d="M45 92a4 4 0 001 0 1 1 0 010 1l-5-1-1-2h1a7 7 0 014 2z"/><path fill="#100605" d="M35 85a6 6 0 001 0h1l1 2c-3 1-3-1-3-2z"/><path fill="#000a00" d="M126 120l-5 1a4 4 0 01-2 1c-5 1-9-1-13-1l-6-1h-5c-2-2-5-1-7-2h-5c-2-2-6-2-8-3a1 1 0 010-2 5 5 0 013-1c9 3 18 3 27 4l4 2c3 1 6 0 9-2 3 0 6-1 9 1z"/><g fill="#0a0504"><path d="M78 113l-4 1a1 1 0 01-1 0l-7-2a12 12 0 00-7-3l-1-1-1-1-7-4-1-2 4-2a1 1 0 011 0 20 20 0 016 3 8 8 0 010 1l4 2a6 6 0 011 1l4 1a5 5 0 013 2c1 2 5 1 6 4zM88 118c3 0 5-1 7 2l-7-2zM105 121h-2l-3-1c2 0 4-1 5 1z"/></g><path fill="#0b0605" d="M78 0l7 1 2 1c2 1 3 2 4 1l9 2a3 3 0 011 1l3 2v2c-3 1-6 0-8-1a30 30 0 00-7-2 7 7 0 01-2-1c-4-3-7-1-11-1l-1 1c-7 1-14 3-20 7l-4 2c-4 3-9 5-12 9a6 6 0 01-2 2 11 11 0 01-4 2 3 3 0 01-2 0c-1-2 0-3 1-4a7 7 0 003-4c1-2 4-2 6-4l5-3 8-4c1-3 4-3 6-4 6-2 11-6 18-5z"/><path fill="#060505" d="M35 20c0 2 2 4-2 4l-2 3c-1 3-5 3-6 6s-4 4-6 5a15 15 0 01-3 2 3 3 0 01-3-1l-2-1c0-3 3-4 6-6a4 4 0 003-2c2-2 6-3 8-6z"/><path fill="#040b04" d="M104 10c0-2-3-1-3-3 1-2 3-2 5-1l1 1a12 12 0 008-1 8 8 0 012-1h4a10 10 0 002 0l4-2 5-1 2-1h5l2-1 6 1 6 1c9 3 18 7 26 13 1 2-1 3-3 3a4 4 0 01-1 0l-11-7-4-2a41 41 0 00-18-4c-7 0-11 4-17 5a43 43 0 00-10 1 12 12 0 01-11-2z"/><path fill="#160807" d="M180 14a5 5 0 010 1 9 9 0 001 6l-3-1-2-2c1-1 3-1 3-3z"/><path fill="#100a0a" d="M110 7h5c-2 2-5 1-8 0z"/><path fill="#230100" d="M184 22c3 1 6 2 7 6v1a5 5 0 01-4-1 6 6 0 01-1-2c-1-1-3-2-2-4z"/><path fill="#b14e4e" d="M184 22l3 3c-5 1-7-1-10-4a2 2 0 011-2l3 2z"/><path fill="#ca5157" d="M197 32l1 1c-1 2-2 1-4 1a4 4 0 01-3-2 2 2 0 011-2c2-1 3 0 4 1a2 2 0 001 1z"/><path fill="#2a0f0f" d="M196 31l-4-1c-1 0-2 0-1-2 2 1 5 0 5 3z"/><path fill="#cc443b" d="M194 33h5l2 3c1 2 0 4-1 5l-4-2-5-1c-1 0-2-1-1-2a12 12 0 014-3z"/><path fill="#0e0405" d="M20 69c-2-1-3 1-5 1l-5-7v-4a1 1 0 011 0c3 2 3 6 7 7 1 1 2 1 2 3z"/><path fill="#160707" d="M11 59h-1c0-2-2-4-4-6-3-4-2-6 2-9a2 2 0 010 2 6 6 0 002 7 5 5 0 012 4 3 3 0 01-1 2z"/><path fill="#300e0d" d="M8 46v-2l5-5h3c0 3-2 3-4 5l-4 2z"/><path fill="#1f0a09" d="M201 43l7 4c3 2 3 4 1 6l-1 2c-2-5-6-7-8-11l1-1z"/><path fill="#d6514c" d="M213 44c1 1 2 1 2 3 1 1 0 2-1 3-3-2-5-4-5-8h1l3 2z"/><path fill="#cd4c43" d="M210 60h-1l-2 2a19 19 0 01-4 1 2 2 0 01-2-1 2 2 0 011-2l4-3a3 3 0 014 0h1z"/><path fill="#cc464c" d="M199 40a6 6 0 002-4l3 2 1 3h-6z"/><path fill="#1f0a09" d="M199 41l2 2c-2 2-4 3-6 1v-4c2-1 3 0 4 1z"/><path fill="#c8555c" d="M210 57h-4a2 2 0 01-1-1l3-2 1-1 1 4z"/><path fill="#c94842" d="M215 52l-1 1-1 1v-1l-1-1 2-1 1 1z"/><path fill="#d25753" d="M212 52l1 1a1 1 0 01-1 0v-1z"/><path fill="#b33a36" d="M212 53h1a1 1 0 010 1z"/><path fill="#a2454b" d="M214 50a3 3 0 011-3c2-1 2 1 2 1 0 2-1 2-3 2z"/><path fill="#bb585d" d="M213 44a3 3 0 01-3-2c2 0 2 1 3 2z"/><path fill="#bd6258" d="M213 54v-1h1a4 4 0 000 1z"/><path fill="#110505" d="M78 113c-2-2-4-1-5-2-2 0-2-1-1-2 2-2 5 0 7 1l18 4 5 1 29-1a4 4 0 013 1c-2 2-5 1-7 2h-11c-3 2-6 2-10 0l-24-2-4-2z"/><path fill="#170908" d="M180 92l2 1c-1 5-5 5-8 6-5 1-9 5-14 7a3 3 0 01-1-1 3 3 0 011-2 4 4 0 011-2 7 7 0 012 0 12 12 0 003-1 24 24 0 004-3 28 28 0 005-3 14 14 0 013-2 5 5 0 012 0z"/><path fill="#1a0a08" d="M134 115h-3a3 3 0 011-3 6 6 0 012 0 21 21 0 0010-3 9 9 0 011 0 27 27 0 015-1 3 3 0 011 1c-1 2-2 3-4 3l-13 3z"/><path fill="#be4a48" d="M160 103v2l-6 3h-2a2 2 0 01-1-2c2-4 4-5 9-3z"/><path fill="#cd4944" d="M151 107l1 1-1 1h-1c-2-1-3 0-5 1h-8c-1 0-2 0-2-2 2-2 5-2 8-2h2c2 0 4-1 6 1z"/><path fill="#091304" d="M174 99c3-2 6-3 8-6 1 0 2-2 4-1a3 3 0 000 1c-1 3-4 4-6 5-2-1-3 3-5 2z"/><path fill="#1a0a08" d="M154 108c1-2 4-3 6-3v1l-6 2z"/><path fill="#c24b4c" d="M187 86h-1a2 2 0 01-2 0c-2-1 0-3 0-5s0-4 3-4c2 2 5 3 2 6z"/><path fill="#ce4534" d="M189 83c2-2-2-3-2-6a4 4 0 013-2c2 0 2 2 3 3-1 3-2 5-4 5z"/><path fill="#c94942" d="M198 73c-1 2-3 3-3 5h-2v-3c2-2 3-3 5-2z"/><path fill="#ac4a44" d="M180 92l-2 1a2 2 0 01-1-2 8 8 0 015-3 2 2 0 011 1c0 2-2 1-3 3z"/><path fill="#b74448" d="M183 89a2 2 0 01-1-2 2 2 0 012-1h2l-3 3z"/><path fill="#ce4540" d="M204 66c-3 1-3 4-5 5h-1a5 5 0 01-2-2 3 3 0 010-3 4 4 0 012-1 12 12 0 004-1 3 3 0 012 0 2 2 0 011 2z"/><path fill="#a64b52" d="M205 66l-1-2a2 2 0 011-1 8 8 0 002-2l2-1c0 3-2 5-4 6z"/><path fill="#cf4243" d="M198 73l-4 2a2 2 0 01-1-2 4 4 0 012-2h4z"/><path fill="#2c0401" d="M34 68l-2-2c-2-1-5 0-4-3 5-1 8 0 9 5 2 2 4 5 4 8a3 3 0 01-1 1c-3 0-3-2-4-4l-2-5z"/><path fill="#d0483d" d="M29 73c0-2-2 0-3-1l-2-2 3-4c2-1 3 1 4 2-1 2 0 4-2 5z"/><path fill="#b54f4b" d="M34 68c3 2 3 7 5 9l1 2c-1 1-2 0-2-1l-2-2c-1 0-2 0-1-1z"/><path fill="#bf5454" d="M31 68l-4-2a5 5 0 01-3-1 18 18 0 01-2-2 8 8 0 01-1-2 2 2 0 010-1 3 3 0 012-1 10 10 0 014 3 2 2 0 011 1c1 2 3 1 3 3z"/><path fill="#d74d44" d="M35 75l1 1c0 2 0 3-2 3 0-1-1-3 1-4z"/><path fill="#c4494f" d="M60 102c-3 0-4-2-6-3-2-3-5-4-7-5l-1-1a2 2 0 000-1 2 2 0 011-2 4 4 0 012 0 7 7 0 012 1l5 3a2 2 0 010 1c1 0-2 1 0 2a5 5 0 014 4 2 2 0 010 1z"/><path fill="#a44b4c" d="M47 94c3 0 6 1 7 5a5 5 0 01-1 0c-2-3-5-3-6-5z"/><path fill="#c74b48" d="M23 63a2 2 0 012 1 46 46 0 00-1 6h-2l-2-1-2-3a4 4 0 01-1-1 2 2 0 011-2h5z"/><path fill="#ce474a" d="M37 85h-1l-1-3 3-3a5 5 0 012 2 6 6 0 011 1v2z"/><path fill="#140f0a" d="M40 79l-1-2h1l3 2a5 5 0 011 3 2 2 0 01-1 1h-2a2 2 0 01-1-1v-3z"/><path fill="#330c09" d="M43 83l1-1c2 1 4 2 3 5a1 1 0 01-1 0l-3-4z"/><path fill="#ac4a46" d="M45 92a7 7 0 01-4-3c2 0 3 1 4 3zM46 87a2 2 0 011 0 2 2 0 011 1v2h-1z"/><path fill="#c85d60" d="M40 79l1 3h-1l-2-3v-1z"/><path fill="#0a0504" d="M106 117h10c1 1 2 3 0 3-3 0-7 1-10-3z"/><path fill="#b74b4b" d="M60 102c1-2 2-1 3-1l18 7c0 2-1 2-2 3l-7-2-3-1a8 8 0 01-4-2c-2-1-4-1-5-3v-1z"/><path fill="#110505" d="M60 103c1 1 4 1 5 3-3 0-5 0-5-3zM65 106c1 0 3 0 4 2-3 1-3-1-4-2z"/><path fill="#d04844" d="M37 26l1-2c1-1 2-3 4-3 1 0 3-1 4 1 1 3 2 4 5 4a8 8 0 015 2 3 3 0 010 3 3 3 0 010 1 6 6 0 01-4 0c-5-1-9 0-13 1a12 12 0 01-5-1c-2-1-2-2 0-3l3-3z"/><path fill="#160606" d="M104 10c7 2 14-2 21 0-3 3-6 3-10 3a39 39 0 00-6 0 6 6 0 01-1 0l-5-1-8-1a15 15 0 01-5-3l-2-2c4-1 7 1 11 3a11 11 0 005 1z"/><path fill="#c74945" d="M37 26c1 1 1 2-1 3-1 0-3 0-3 2-1 3-2 4-4 4s-3 2-2 3c0 3-2 3-3 2l-5-2a3 3 0 01-1-1c2-1 5-2 7-5a35 35 0 018-5z"/><path fill="#160606" d="M55 12c5-5 13-6 20-7v1a3 3 0 01-2 1 70 70 0 00-12 5 16 16 0 01-3 1 6 6 0 01-2 0 3 3 0 01-1-1z"/><path fill="#160908" d="M42 22c-2 0-2 2-4 1 3-4 8-6 13-9a2 2 0 010 2 5 5 0 01-1 2 4 4 0 01-1 1l-7 3z"/><path fill="#380602" d="M75 6V5h1c4-1 7-2 11 0l1 1 2 2h-6c-3-2-7 0-9-2z"/><path fill="#120a07" d="M33 27a24 24 0 01-8 5c0-3 4-3 6-5z"/><path fill="#160606" d="M87 5H76c4-1 7-4 11 0z"/><path fill="#310401" d="M51 16v-1c1-1 2-3 4-2h2c-1 3-3 4-6 3z"/><path fill="#b85a56" d="M18 37h1a3 3 0 010 3l-3 3-3 2c-1-1-2-1-1-2l4-4 2-2z"/><path fill="#2d0401" d="M125 9c6-2 11-6 17-5 1 0 3 0 2 2l-6 2-7 2h-6z"/><path fill="#120706" d="M144 5l-2-1a32 32 0 0119 4v1a2 2 0 01-2 1l-5-1c-3-2-7 0-10-4z"/><path fill="#160807" d="M165 10c3 3 8 2 10 7a2 2 0 01-1 1 6 6 0 01-3-1l-7-5c-1-1 0-2 1-2z"/><path fill="#bd5c5d" d="M174 18l1-1a1 1 0 001 1l2 1v1c-2 2-4 1-4-1a2 2 0 010-1z"/><path fill="#25110e" d="M165 10l-1 1a1 1 0 01-1 1c-2-1-3-1-2-3a2 2 0 010-1z"/><path fill="#cc4944" d="M174 18c1 2 2 3 4 2 2 3 5 4 9 5v2c-1 2-2 2-4 2a4 4 0 00-5 0l-4-1c-2-1-5 0-7 1-4-1-4-2 0-7a33 33 0 013-2c2 0 0-1 1-2a2 2 0 013 0z"/><path fill="#d14744" d="M183 27c1 2 3 0 4 0l4 1 1 2v1c-1 2-3 2-4 1h-12a13 13 0 01-4-1l-1 1c-1 2-3 2-4 0a3 3 0 01-1-1l1-2v-1c2-3 5-2 8-1 1 1 2 2 3 0a6 6 0 015 0z"/><path fill="#cc4b39" d="M188 31h4l2 2c0 2-2 3-3 3h-5l-4-1c-2-3-1-4 1-4h5z"/><path fill="#c04e47" d="M187 34a5 5 0 014 2 4 4 0 000 1 1 1 0 010 2 4 4 0 01-2 0c-3 0-7 1-9-2l2-2 5-1z"/><path fill="#b85551" d="M190 39l1-1a6 6 0 015 0 3 3 0 013 2v2l-4-1c-2 1-3 0-5-1a2 2 0 010-1z"/><path fill="#d2494d" d="M196 38h-5v-1l5 1z"/><path fill="#2c0406" d="M18 65v1c-5 0-5-4-7-7v-3l2 1a33 33 0 013 4l2 4z"/><path fill="#be4d48" d="M13 57l-2-1a56 56 0 00-3-4c-2-3-2-4 0-6l4-3 1 1a2 2 0 011 2l-1 3a4 4 0 01-1 2h-1l1 1 3 2a4 4 0 012 0v3h-4z"/><path fill="#050302" d="M190 39l5 1c0 5 3 3 6 3l2 4c4 1 5 4 5 7l-2 2a2 2 0 01-1 1 6 6 0 00-5 3 3 3 0 01-2 1c-1 0-3 0-3 2a5 5 0 01-1 2 4 4 0 01-2 1c-3 0-3 2-5 4a7 7 0 01-1 0c-1 1-2 3-4 0l2-8a59 59 0 002-18c0-1 1-2-1-3v-2h5z"/><path fill="#ba5a5b" d="M205 56h1v1c0 3-2 3-4 3h-1c0-3 2-3 4-4z"/><path fill="#ba474a" d="M202 60v2l-1 2a2 2 0 01-1 1 4 4 0 01-3-3 2 2 0 012-2 2 2 0 013 0z"/><path fill="#cb4436" d="M207 61a2 2 0 01-2 2c-1 1-1 0-1-1l3-1z"/><path fill="#ce4c4d" d="M204 62l1 1-1 1h-2a1 1 0 01-1 0l1-2z"/><path fill="#c25358" d="M132 113l-1 2a144 144 0 01-30 1c1-3 3-2 5-3h16l6-1a7 7 0 012 0 3 3 0 012 1z"/><path fill="#bb4d55" d="M79 111l1-2 8 1 3 1a30 30 0 014 1c1 1 2 2 1 3a60 60 0 01-17-4z"/><path fill="#c74641" d="M96 115l-1-2c0-2 2-2 4-2 3-1 5 1 6 4-1 0-2-1-4 1l-5-1z"/><path fill="#d04842" d="M105 115c-2-1-3-4-6-3a4 4 0 00-1-1c-1 0-2 0-3-2l4-1c-1 1-4-1-5 2v1a2 2 0 01-1 1l-5-1c-2 0-5 0-8-2-6-1-11-5-17-7a3 3 0 011-1 17 17 0 004-2 6 6 0 012 0c1 0 3 0 3-2a16 16 0 000-2 5 5 0 00-1-3l-1-3h4a14 14 0 015 0c5 2 10 2 15 1 3 1 6 1 9-1a39 39 0 0113 0c3 2 7 1 10 2h14a5 5 0 012 0c1 1 1 3 2 2a7 7 0 012-1 2 2 0 011 0 4 4 0 011 2c0 3-2 7 4 5a5 5 0 012 0 5 5 0 003 1c2 0 3 0 3 2l-1 1c-3 0-7-1-9 4h-6a2 2 0 01-1-2l1-2a4 4 0 00-1 2 4 4 0 01-1 2 15 15 0 00-8 2 2 2 0 01-2 0 17 17 0 00-6 0h-1c0 1 0 1 0 0a6 6 0 012 0h3a30 30 0 005 1v1c-2 1-4 0-6 2h-2c-2 1-4-2-6 1l-17 1z"/><path fill="#c74a4c" d="M170 98a9 9 0 01-4 3l-2-2c-1-2-2-3-1-4l3-3 3 1c2 1 5 2 1 5z"/><path fill="#d6443b" d="M161 102h-3c-2 0-3 0-3-2 1-4 5-3 8-3a5 5 0 011 1c1 1 0 3-1 4z"/><path fill="#b34b54" d="M170 98c4-3-2-2-2-4a1 1 0 010-1l5-1a3 3 0 012 2c-1 3-3 3-5 4z"/><path fill="#b75658" d="M175 94l-2-2 3-2a2 2 0 011 0 1 1 0 010 1l1 2-3 1z"/><path fill="#ca4543" d="M163 102l1-4h1l1 3a3 3 0 01-3 1z"/><path fill="#c35051" d="M135 111l1-1h1c3 0 5-4 7 0-3 3-6 3-10 3l1-2z"/><path fill="#c54344" d="M135 111l-1 2h-4c1-3 3-2 5-2z"/><path fill="#b96064" d="M145 110c2-1 3-3 5-1l-5 1z"/><path fill="#c83f38" d="M137 110h-6c0-2 1-2 2-1h2a2 2 0 012 1z"/><path fill="#ce4843" d="M143 107v-3c1-1 2 0 2 1v2z"/><path fill="#b75957" d="M187 77a6 6 0 00-2 5c-1 2-2 2-3 2a2 2 0 01-2-1 4 4 0 010-1c2-3 3-6 6-7 1 0 2 1 1 2z"/><path fill="#dd4a4a" d="M182 84l3-2c2 2-2 3-1 4l-1 1c-1 1-2 2-3 1s0-3 2-4z"/><path fill="#c24b4c" d="M187 77l-1-2v-2a30 30 0 003-4 2 2 0 011-1c2 0 2 1 2 3a5 5 0 01-2 3 3 3 0 000 1z"/><path fill="#d64540" d="M190 75l-1-1c1 0 3-2 5-1v2l-1 3c-2 0-2-2-3-3z"/><path fill="#c74b4f" d="M182 84c0 1-2 2-1 4a11 11 0 002-1v2l-6 2v-1-1a6 6 0 01-1-1 4 4 0 011-3c1-1 2-3 4-2z"/><path fill="#ca493e" d="M194 73a8 8 0 01-5 1c0-1 2-1 2-3l4-5a2 2 0 012 0v3c0 2-1 2-2 3z"/><path fill="#ce4c4d" d="M197 66h-2a1 1 0 01-1 0 2 2 0 010-2 5 5 0 000-1 3 3 0 014-1 4 4 0 012 2c0 2-2 1-2 2z"/><path fill="#d44841" d="M195 72a3 3 0 012-3 2 2 0 012 2z"/><path fill="#d44f45" d="M198 66l2-2h2c-1 3-3 2-4 2z"/><path fill="#070201" d="M16 54h-1a2 2 0 01-1-2c1-4 4-6 6-9a5 5 0 013-1 7 7 0 016 2c1 2-1 2-3 3-1 0-3 0-3 2-3 2-1 3 1 5a42 42 0 004 3c1 0 2 3 3 0v-1l-1-4v-7a2 2 0 01-1-1c1-4 3-5 6-4 2 1 1 2 1 4l1 11 2 8c0 1-1 3 1 4a7 7 0 011 2l1 3 2 2a7 7 0 010 4l-1 1-3-2c-1-8-5-13-12-14h-1l-11-9z"/><path fill="#d64334" d="M24 70c-2-2-2-4 1-6l2 2c1 3-1 4-3 4z"/><path fill="#210b0a" d="M16 54h2l9 8-4-2-6-2v-2z"/><path fill="#c44d45" d="M18 65a7 7 0 01-3-4 6 6 0 014-2 2 2 0 012 1v1a2 2 0 01-2 2 2 2 0 00-1 2z"/><path fill="#c84749" d="M19 63l2-2a2 2 0 012 2c-1 0-3 2-4 0z"/><path fill="#aa484c" d="M21 60l-2-1c-2 0-2-1-1-2 2 0 3 2 5 3z"/><path fill="#cb4a43" d="M64 102h-1a3 3 0 00-3 0c0-3-5-4-4-7a6 6 0 011-1l4-4c4-2 5 1 7 3a4 4 0 010 1 3 3 0 010 2 2 2 0 01-1 1c-1 0-3-2-3 1a4 4 0 010 2 2 2 0 010 2z"/><path fill="#030102" d="M48 90v-2c-1-2 1-2 2-3l1-1a6 6 0 012-2c1 0 2-1 3 1v4c0 6-1 7-6 4z"/><path fill="#2b0906" d="M50 91c4 0 4 0 5-6a29 29 0 011-3c-2-2-2-5 1-7 1 0 4-2 5 2-3 1-4 4-4 8 0 3 1 7-3 9-2 0-4-1-5-3z"/><path fill="#c04e4a" d="M56 94l1-13c0-5 1-5 4-4a2 2 0 011 1 2 2 0 010 2 4 4 0 00-2 3 11 11 0 010 2 15 15 0 01-1 2c0 2 2 6-1 8h-2l-1-1z"/><path fill="#d35755" d="M40 82h1v1z"/><path fill="#070403" d="M51 85c0 2-3 2-3 3l-1-1c0-2-3-3-3-5l-1-3a3 3 0 001-2 2 2 0 011 0 31 31 0 013 3l3 5z"/><path fill="#d04842" d="M167 28l2 1-2 1c-2 2-5 2-8 2l-15-1a22 22 0 00-17 0c-11 1-21 2-31 0-6-1-11-2-17 0-5 2-10 0-16 1-2 0-5 0-7-2v-2c-1-2 1-2 3-3a4 4 0 003-4v-2a2 2 0 00-2 1 6 6 0 01-1 2 17 17 0 01-6 3c-4 2-5 1-6-3a4 4 0 010-2l12-5a2 2 0 002-2 3 3 0 011-1 34 34 0 018-3 3 3 0 014 1c1 0-2 1 0 1s6 2 8-2h6a38 38 0 016 1l10 1c1 2 2 0 3 1h8c6 1 12-2 17-3l6-1c2 0 4-2 6-1a2 2 0 010 1 3 3 0 01-1 2 8 8 0 01-3 1h3a25 25 0 005 0h3a26 26 0 013 0l5 2a6 6 0 011 3 13 13 0 001 5v2h3c1-1 2-2 4-1l-3 3c-1 3 0 3 2 3z"/><path fill="#cd4a42" d="M48 21c0 4 2 5 5 3l7-4a3 3 0 014 0c0 4-1 6-5 6a3 3 0 00-3 2c-3 1-6-1-9-1-4 0-1-4-1-6a1 1 0 012 0z"/><path fill="#ce4a39" d="M27 38c-2 0-3 0-2-2 0-1 0-2 2-2 3 1 4-1 6-3h6c1 1 4 1 3 4a4 4 0 01-2 1l-12 3z"/><path fill="#ca473f" d="M42 34l-3-3c4-1 8-2 13 0 1 2 4 0 4 3a2 2 0 01-1 1c-3 1-5 2-8 1-1-1-4 0-5-2z"/><path fill="#ce4b43" d="M56 34c-1-2-4-1-5-2-1 0-1-1 0 0l1-1h11a22 22 0 005 1c2 0 4 0 4 3a4 4 0 01-3 1c-4-1-9 1-13-2z"/><path fill="#c55d5d" d="M48 21h-2c-2 1-3 2-4 1 2-1 4-4 7-3l-1 1v1z"/><path fill="#cc443d" d="M64 31h-8v-1h8a1 1 0 010 1z"/><path fill="#bb595a" d="M133 10c-8 3-16 3-25 2 5-2 10 0 15-1l2-1 6-1 2 1z"/><path fill="#bc5c5a" d="M94 10h-6a30 30 0 00-6-2V6a4 4 0 013 0l5 1z"/><path fill="#be575a" d="M107 12c-1 0-3 2-3-1l3 1z"/><path fill="#b54b48" d="M23 43l-2 1a1 1 0 01-1 0 3 3 0 01-1-1 5 5 0 012-3 5 5 0 013-1c1 1 2 1 3-1 2 0 4-2 7 0a2 2 0 010 2c-4 1-7 3-11 3z"/><path fill="#cb4546" d="M24 39c-1 2-2 1-3 1a1 1 0 01-2 0v-3l5 2z"/><path fill="#be5051" d="M71 10l-9 3c-1 0-2-1-1-2l13-5h5c1 2 0 2-1 2-2 2-5 0-7 2z"/><path fill="#b15b5c" d="M51 16a13 13 0 006-3 2 2 0 011 0 2 2 0 010 1c-2 3-4 5-8 3z"/><path fill="#a65652" d="M80 7l-6-1h1c3 0 6-2 10 0l-4 1a1 1 0 01-1 0z"/><path fill="#c45b56" d="M58 13l3-2 1 2v1a3 3 0 01-2 0 3 3 0 01-2-1z"/><path fill="#cc4742" d="M58 13h2a1 1 0 010 2c-4 3-7 6-12 5l1-1 1-2c3 1 6 0 8-4z"/><path fill="#ca4946" d="M20 43v1a3 3 0 01-2 1c-2 1-3 2-5 1v-2c1 0 1-2 3-2 2-1 3-1 4 1z"/><path fill="#cb554a" d="M20 43a7 7 0 00-4-1 3 3 0 013-2h2z"/><path fill="#c14c4f" d="M144 8l-6 1a1 1 0 010-2l6-2 11 3c1 1 3 0 3 3a3 3 0 01-3 0 16 16 0 00-4-1 18 18 0 01-2-1l-5-1z"/><path fill="#b85f5c" d="M138 7v1l-5 1h-2z"/><path fill="#b36260" d="M161 9c0 2 1 1 2 2a1 1 0 010 2 4 4 0 01-4-1 2 2 0 010-3z"/><path fill="#bc4b43" d="M159 9v2c-1 1-1 0-1-1l-3-2a5 5 0 014 1z"/><path fill="#ac5855" d="M163 12v-1h1l7 5a2 2 0 01-2 1c-2 0-3-2-5-3a3 3 0 01-1-2z"/><path fill="#c24549" d="M168 16h3l3 2-3 1a1 1 0 01-1 1l-2-4z"/><path fill="#d24643" d="M168 22a5 5 0 00-4 2c-1 1-3 3-4 1s0-3 1-5a4 4 0 013-3 4 4 0 013 1 12 12 0 004 2 3 3 0 01-3 2z"/><path fill="#d94c4b" d="M171 20c-2 0-4 1-4-2l3 1h1l1 1z"/><path fill="#d04036" d="M183 27h-5a3 3 0 015 0z"/><path fill="#cd4941" d="M167 31c1 2 3 2 4 0a5 5 0 014 0 2 2 0 010 3 4 4 0 01-2 1h-13c-4 1-8 2-13 0 0-4 3-3 4-3l8-1h8z"/><path fill="#ca4a42" d="M175 33v-2q-1 0 0 0v-1c4 1 9-1 13 1-2 2-6-2-6 3l-1 1h-6a1 1 0 010-2z"/><path fill="#cc443d" d="M167 31h-8v-1h8v1z"/><path fill="#cb413a" d="M175 30v1h-4-1l5-1z"/><path fill="#ca4a42" d="M187 34c-2 2-3 1-5 1h-1l1-1h5z"/><path fill="#c8494b" d="M175 33v1c2 2 5 0 7 1a3 3 0 01-2 2c-3 2-6 1-9 1a25 25 0 00-12-1l-8 1a28 28 0 01-7 1H88a8 8 0 01-2 0 23 23 0 00-8 0 24 24 0 01-4-1l-10-1c-3-1-7 1-8-3h65c4 0 7 2 11 0l10-1 5 1c4 0 9 1 13-1a34 34 0 0013 0z"/><path fill="#130f0c" d="M151 37l8-1a90 90 0 0112 0h9l10 2a3 3 0 010 1h-5a4 4 0 01-4 1c-8-2-16-1-24-1-2 0-5 1-6-2z"/><path fill="#c54a46" d="M18 57a2 2 0 001 2 6 6 0 01-4 2c-1-1-3-2-3-4l5-1z"/><path fill="#c14d50" d="M13 46l5-2c1 4-3 4-5 6a2 2 0 01-1-1l1-3z"/><path fill="#b04d4c" d="M12 49h1l2 3v2c-2 2-2-2-3-2 0 0-1 0 0 0v-1z"/><path fill="#cc403e" d="M12 51v1c-2 0-3-1-3-3 2 0 2 2 3 2z"/><path fill="#010101" d="M151 37h16a64 64 0 0118 2c0 2 4 2 3 5-4 1-8-1-11-2h-5l-1 4 2 19-1 10a22 22 0 001 4 7 7 0 01-1 4c-1 1-2 2-4 1l-2-5c-7 0-13 3-19 3l-4 1-18-1c-3-1-4 2-6 2-7 0-13 2-19-1l-7-1c-8 1-16-1-23-3a11 11 0 00-5 0 4 4 0 01-3-1l-1-1c-2-2-5-1-5 1a24 24 0 000 4 3 3 0 01-3 0c-2-1-2-3-2-5-1-10 1-21 1-31 0-1 1-3-2-3H39a3 3 0 01-2-2 3 3 0 010-2l6-3h19c4 2 8 0 11 1h5c3 2 5 0 7 1h53c2 0 4 2 6 0z"/><path fill="#e9eaea" d="M176 41l12 3c0 9-2 18-5 27 0 2-1 4-3 5l-4 1a2 2 0 01-1 0c-2 0-3-1-4-3v-9l-1-21c0-2 3-3 5-3a2 2 0 011 0z"/><path fill="#0d0606" d="M180 75l3-4 3-2c1 3-1 5-2 8-1 1-3 3-3 5a8 8 0 010 1l-3 2-2-4c-1-1 0-2 1-3a12 12 0 013-3z"/><path fill="#3c3e44" d="M199 48l4 2-3 4-4 3a6 6 0 01-2-5 3 3 0 012-1c3 1 2-1 3-3z"/><path fill="#220202" d="M181 82v-4c3-2 4-5 5-9h1a1 1 0 011 0c1 2 0 3-1 4l-1 2z"/><path fill="#3a4544" d="M194 52l2 5c-4 1-4 1-4-5a1 1 0 012 0z"/><path fill="#54434e" d="M194 52h-2l1-1a2 2 0 000-2c0-4 2-3 4-2 0 2 5 4 0 5z"/><path fill="#020a03" d="M198 62c-1 1-2 2-4 1 0-3 1-4 5-3z"/><path fill="#1e0a09" d="M202 60h-3c0-3 2-5 6-4-1 2-3 2-3 4z"/><path fill="#1e0202" d="M188 69h-1c1-2 1-5 5-4l-1 2-1 1-1 1h-1z"/><path fill="#433b40" d="M197 47c-2 0-4-1-3 3 1 1 0 1-1 1 0-2-1-4 1-5 1-1 2 0 3 1z"/><path fill="#453a46" d="M197 52c2-1-1-3 0-5l2 1c2 3 2 4-2 4z"/><path fill="#a7484c" d="M190 67l2-2 2-1v2c-1 2-2 2-4 1z"/><path fill="#c74641" d="M122 114c0-1-3-1-2-3h3l5 2c-2 2-4 1-6 1z"/><path fill="#d04b47" d="M99 111v1c-1 0-3-1-4 1l-4-1 2-1h6z"/><path fill="#c33e3e" d="M93 111a2 2 0 01-2 1l-3-1z"/><path fill="#cf493e" d="M117 90h-14a7 7 0 01-6 1 3 3 0 01-2-3l2-2a16 16 0 015 0l34-1a39 39 0 0014-1 6 6 0 012-1c3 1 6 1 8 3a1 1 0 010 1c-2 2-3 1-5 1a34 34 0 00-8 1 23 23 0 01-3 0c-6 1-12 0-19 2-2 1-5 1-8-1z"/><path fill="#ce4941" d="M137 86l-31 1h-8l-2 1 2 2h5c-2 3-5 2-8 1a2 2 0 01-1-1 18 18 0 00-2-2c-1-1-3 0-4-2a2 2 0 011-2h5a9 9 0 012 0l5 1 26-1c5 0 10-2 16 0 1 1 0 1-1 2h-5z"/><path fill="#cb4a44" d="M75 90l-3-1a23 23 0 01-8-1 2 2 0 01-1-2s2 0 1-1a6 6 0 01-2-1 2 2 0 01-1-1 2 2 0 011-1l4-2a3 3 0 011 0l8 1c2 0 4 0 4 2-2 2-4 1-5 2 2 0 4-1 5 1-1 3-4 2-4 4z"/><path fill="#d04747" d="M148 92h-1c-1-4 3-2 5-4a12 12 0 012 0 22 22 0 017 1 6 6 0 013 2 2 2 0 010 1c0 2-2 0-3 2a2 2 0 01-1 1l-5-1c-2-1-5 0-7-2z"/><path fill="#ce4941" d="M117 90l27-2a2 2 0 010 2c-3 2-7 1-11 1l-6 1c-3-1-7 2-10-2z"/><path fill="#d14744" d="M64 87c2 0 5-1 8 2l1 3c-2 2-4 1-5 2-3-1-4-4-6-4h-1a2 2 0 010-2 3 3 0 013-1z"/><path fill="#c94b44" d="M75 90c-1-3 2-3 4-3a6 6 0 012 0 15 15 0 007 0l5 1a2 2 0 011 2 21 21 0 01-13 0z"/><path fill="#d0474a" d="M81 90h13l1 1-2 2-10-1a2 2 0 01-2-2z"/><path fill="#d04747" d="M127 92c1-2 3-2 5-2h12c1 1 0 2-1 2z"/><path fill="#cb4a42" d="M75 97c0 5-3 4-5 3s-3-1-3-3a2 2 0 011-1c2-1 4 0 7 1z"/><path fill="#ca4b3e" d="M163 98c-3 0-6 0-8 2h-2v-1c1-3 3-5 6-4 2 0 4 0 4 3z"/><path fill="#cd4944" d="M153 100c-5 2-5 2-5-6h6c1 2 0 2-1 3-2 1-1 2 0 3zM143 92l1-2v-2h3c2 1 4-1 5 1-1 2-5 0-5 3a2 2 0 01-1 2 6 6 0 01-3-2z"/><path fill="#d4454b" d="M154 95l-6-1v-2h6c2 0 1 1 1 2a1 1 0 01-1 1z"/><path fill="#d2464a" d="M68 94c0-3 3-2 5-2a2 2 0 012 2c-3 3-5 2-7 0z"/><path fill="#cc4947" d="M68 94a7 7 0 007 0v3l-7-1z"/><path fill="#d7433d" d="M64 102v-3c2-2 3-1 5 1-1 2-3 2-5 2z"/><path fill="#d44b45" d="M93 110l1-2h8c-2 2-5 0-7 2a1 1 0 01-2 0z"/><path fill="#cc4b3d" d="M78 92a2 2 0 011 2l-1 2a2 2 0 01-1-2 1 1 0 011-2z"/><path fill="#cb4b3d" d="M143 92c2 0 3 0 3 2l-2 2-1-4z"/><path fill="#cd4944" d="M145 105l-2-1c0-1 0-4 2-2 3 1 1 2 0 3z"/><path fill="#cf493b" d="M69 100a8 8 0 00-5-1c0-3 1-3 4-2l2 3z"/><path fill="#d3483d" d="M133 109a2 2 0 00-2 1h-3l-2-1a6 6 0 017 0z"/><path fill="#ca423a" d="M93 110h2l4 1h-6z"/><path fill="#d84c48" d="M126 109a2 2 0 012 1 16 16 0 01-2 0l-2-1h2z"/><path fill="#c94b42" d="M154 95l1-1h6a2 2 0 012 1l2 3h-2c-4-4-5-4-10 2-1 0-3 1-3-1-1-3 3-2 4-4z"/><path fill="#b65351" d="M168 94l-2-2a3 3 0 01-1-1v-9a1 1 0 012 0c2 2 1 5 2 8a6 6 0 010 2 5 5 0 01-1 2z"/><path fill="#d1474b" d="M166 91v1c0 2-1 3-3 3a2 2 0 01-2-1l3-2v-1a2 2 0 011-1 1 1 0 011 1z"/><path fill="#1f100e" d="M168 94v-2c2-2 5-4 8-2l-3 2c-1 2-3 2-5 2z"/><path fill="#0a0404" d="M176 90l-8 2v-2c-1-2-1-5 1-7 1 1 2 1 2-1 2 3 3-1 5-1 2 1 2 2 2 4l-1 3a1 1 0 010 2 4 4 0 01-1 0z"/><path fill="#d14b4d" d="M190 67l4-1h1a11 11 0 01-4 5l-1-3a1 1 0 010-1z"/><path fill="#a94c4c" d="M188 69a2 2 0 011 0c0 2 0 3-2 4l1-4z"/><path fill="#bf5c5e" d="M177 90v-2 2z"/><path fill="#e9eaea" d="M39 42l13-1 2 3-1 33h-1a1 1 0 01-1 0l-2-1v1a4 4 0 01-1 3c-3 0-3-2-3-3a3 3 0 00-2-3l-1-2a4 4 0 010-1c1-1 2-2 1-3l-2 1-2-2-1-4c1-3-3-5-1-8l-1-11 3-2z"/><path fill="#423e3f" d="M29 44l2 1v5c0 2-1 4 1 6v1h-4c-2 0-3-1-4-3a4 4 0 010-1c2-1 1-3 0-4a3 3 0 010-1c0-2 1-1 2-2l3-2z"/><path fill="#0e0100" d="M38 39v1a1 1 0 01-2 0c-4 0-6 2-7 4l-6-1a30 30 0 0111-4h4z"/><path fill="#320703" d="M15 52c-2 0-2-1-2-3 1-2 4-2 5-5h2a4 4 0 001 0c-1 4-5 5-6 8z"/><path fill="#ece4e9" d="M41 69c1-1 0-4 2-3a3 3 0 013 2c0 3-3 3-4 4l-1-3z"/><path fill="#334040" d="M25 54h-1c-3-1-7-2-2-6a1 1 0 012 0l1 6z"/><path fill="#dedddd" d="M37 43v12c-2-4-1-8-1-12a1 1 0 011 0z"/><path fill="#403e3f" d="M28 57h4v3c-2 1-3-2-4-3zM32 56c-3-1-4-3-1-5l1 1z"/><path fill="#070403" d="M37 43h-1a2 2 0 010-3h2l1 2c0 2-2 1-2 1zM32 52l-1-1v-6c2 2 0 5 1 7z"/><path fill="#e2e2e1" d="M43 74c3 0 3 0 2 3a3 3 0 00-1 0z"/><path fill="#070403" d="M38 63l1 4c-4 0-1-2-1-4zM24 48h-2c0-2 2-2 4-2z"/><path fill="#ce4742" d="M58 95c2-3-2-6 1-9l3 4c0 3-2 4-4 5z"/><path fill="#c74d3c" d="M68 97c-2 0-4 0-4 2-2 0-3 0-3-2s1-1 2-1h5z"/><path fill="#e9ece9" d="M48 80l1-3a2 2 0 012 0h1a16 16 0 010 7l-1 1c-2-1-3-3-3-5z"/><path fill="#07070e" d="M52 84v-7h1v5l-1 2z"/><path fill="#b74c4f" d="M79 83c-3-2-6-1-9-1-2 0-2-1-3-2-2 1-4 2-5-1v-1h2a35 35 0 0111 2c6 2 13 2 20 2l14 2c9 0 17-3 26-2h7a1 1 0 011 0v2c-5 0-11 2-16 1l-26 1-6-1h-9c-2 0-5 1-7-2z"/><path fill="#d2454b" d="M62 79c1 2 3 1 5 1v1l-5 1v1a2 2 0 01-3 0c0-2 0-4 3-4z"/><path fill="#da423d" d="M62 90c-3 0-3-2-3-4v-2l2 1 1 3z"/><path fill="#cb3e36" d="M61 86l-2-2v-1h3l-1 3z"/><path fill="#d2483b" d="M147 34l-15 1c-3 1-5 1-6-3a3 3 0 012-1c4-2 9-1 14-1h17v1a9 9 0 01-7 2l-5 1z"/><path fill="#c94b41" d="M127 31l-1 1a3 3 0 01-2 2c-9 0-19 1-28-1a3 3 0 01-1-2 3 3 0 010-2c11 2 22 1 32 1l1 1z"/><path fill="#d0493e" d="M64 31v-1h16c2 0 4 0 5 2-2 2-4 1-5 3a4 4 0 01-2 0l-6-1-5-1c-2 0-3 0-3-2z"/><path fill="#cd4a41" d="M164 17l-3 3c-3 0-2-2-2-4 1-1 2-2 0-3-1-1-4 0-5-2v-1a1 1 0 011 0h3l1 1a7 7 0 014 1l1 1a3 3 0 010 4z"/><path fill="#cf4848" d="M127 30a2 2 0 013-2h11a2 2 0 012 2 53 53 0 01-16 0z"/><path fill="#ce484a" d="M95 29v1c-2 3-6 2-8 2l-7-2v-1c5-1 10-2 15 0z"/><path fill="#cc473a" d="M82 10c-1 0 4 2-1 2h-8l3-3a5 5 0 012-1h3a1 1 0 011 1l-1 1z"/><path fill="#d34440" d="M154 11v1l-3 1c-2-2-4-1-6-1a6 6 0 01-2-1c-1 0-3 2-4 0 1-2 3-1 4-1 2-2 3-1 5-2a1 1 0 011 1h2l3 2z"/><path fill="#d04848" d="M78 9l-1 2a2 2 0 01-3 0c-1-2-2-1-3-1a10 10 0 017-2v1z"/><path fill="#cc4841" d="M82 10V9l1-1c2-1 4 1 6 3z"/><path fill="#d1483b" d="M159 13l3 1c0 1-1 2-3 2z"/><path fill="#d44c46" d="M60 15v-2h2v3c-1 1-2 0-2-1z"/><path fill="#d94b44" d="M139 11h4s1 0 0 0c-1 1-3 2-5 0h1z"/><path fill="#d44e42" d="M145 11c2-1 5 0 6 2h-3c0-2-3 0-3-2z"/><path fill="#c84a3a" d="M145 11l3 2-5-1v-1z"/><path fill="#cc4742" d="M64 20h-4v-1l3-1c2 0 0 2 1 2z"/><path fill="#d74b47" d="M63 18c-1 2-2 1-3 1 0-3 1-1 3-1z"/><path fill="#cb3f43" d="M149 9h-1a4 4 0 01-4 0V8c2 0 4-1 5 1z"/><path fill="#da5249" d="M74 11h3l-4 1c-1-2 0-1 1-1z"/><path fill="#dc4b4a" d="M144 9h4l-5 1z"/><path fill="#c74945" d="M63 36l-20 1c-3 1-6 3-9 1h-7l13-4c2 2 5 0 8 1l8-1c2 3 5 0 8 2h-1z"/><path fill="#d5444b" d="M48 35c-3 0-6 1-8-1h2l6 1z"/><path fill="#d4444a" d="M72 34h8v1c-4 0-7 1-10-1z"/><path fill="#d0504f" d="M82 8l-1 1h-4V8a2 2 0 002-1h2z"/><path fill="#3e0503" d="M34 38l9-1c-2 2-4 1-5 2h-4a7 7 0 010-1z"/><path fill="#d04842" d="M154 11a3 3 0 01-3-2 5 5 0 014 2z"/><path fill="#cd494a" d="M164 17v-4l4 3 2 3-3-1z"/><path fill="#ca4a42" d="M173 33a18 18 0 01-13 0z"/><path fill="#d1464b" d="M182 35h-7a2 2 0 010-1h7z"/><path fill="#d24642" d="M80 35v-1c4-2 10 0 15-2h31c1 3 4 4 6 3-2 3-4 0-7 0l-31 1c-5 1-10-1-14-1z"/><path fill="#bd575a" d="M134 38c-10 0-20 2-30 0s0-1 0-1h30v1c-1 0 0 0 0 0z"/><path fill="#b25e61" d="M104 37v1H88c5-2 11 0 16-1z"/><path fill="#ca4a42" d="M171 36h-12a22 22 0 0112 0z"/><path fill="#030b01" d="M144 38v1c-3 2-3 2-5-1v-1z"/><path fill="#2e1212" d="M63 36h1l10 1c-4 0-8 1-11-1zM85 38c-2 0-4 1-7-1l7 1z"/><path fill="#c54b40" d="M139 37a6 6 0 000 1h-5v-1z"/><path fill="#eaeaea" d="M115 44h12c4 1 8-2 12 0v3 3a2 2 0 000 1 1 1 0 010-1l1 14c0 3-1 3-3 3l-16 1c-7 0-7 0-7-7a103 103 0 001-17z"/><path fill="#e9e9e9" d="M67 41c4 0 8 0 12 2v17c0 4 0 6-6 5-15-2-15-2-14-17a25 25 0 000-4c-1-3 1-4 4-3v1h-1c2 1 3 0 5-1z"/><path fill="#eaeaea" d="M84 65v-1-13l1-8a8 8 0 015 0l7 1h12v22c0 1 0 2-2 2-4 0-9 1-13-1 2-2 5 0 7-2l-7-2a8 8 0 01-1 0c-4-1-5 1-6 3a2 2 0 01-3-1zM165 44v8a25 25 0 010 10 25 25 0 01-9 2l-6-1a2 2 0 01-1-2 5 5 0 010-2l-1 2a2 2 0 01-1 1l-2-2V47c-1-2 1-4 2-5h7l3-1c2 2 5 0 7 2l1 1z"/><path fill="#434443" d="M103 73h16a16 16 0 019 0l-4 2h-1c4 0 7 0 10-3l10-1a1 1 0 010 1l-4 2a2 2 0 00-1 0h5a4 4 0 012 2 56 56 0 01-16 2 50 50 0 01-9 1 1 1 0 01-1-1 2 2 0 011-1 18 18 0 014 0c-2 0-4-1-5 1h-15a4 4 0 01-2-1c-1-2-5 0-7-4a15 15 0 018 0z"/><path fill="#140303" d="M143 82c-14 1-28 3-42 2-12-1-25-2-37-6 5-2 9 0 12 1 6 3 12 2 18 2a23 23 0 016 1c7 1 14 3 21-1a8 8 0 015 0h17a1 1 0 010 1z"/><path fill="#3f3f3f" d="M103 73h-7c2 2 6-1 7 3-1 2-3 2-5 1-3-1-6-1-8 1l-5-1a2 2 0 000-1c-2-1-4-1-3-3 0-2 3-1 4-1 2 1 3 2 4 0 5 1 9-1 13 1z"/><path fill="#404040" d="M78 71h2v1a2 2 0 01-1 1h-5l2 1-2 1a2 2 0 01-2 0c-3-1-7 0-9-2a3 3 0 010-4c3-1 6 1 9 1l6 1z"/><path fill="#bd5051" d="M167 82h-1a21 21 0 00-2-1 9 9 0 00-2 0l-5 2h-6c-1 0-4 1-4-2l17-4 3 1v4z"/><path fill="#404143" d="M103 77h10l6 1 1 1h-1c-8 0-16 1-24-1a1 1 0 011-1h7z"/><path fill="#434244" d="M74 75a2 2 0 012-1c1-1 3 0 4-2a14 14 0 018 0h3c-1 2-2 2-3 2a10 10 0 00-6-1l4 2c2 2 0 2-1 2h-2c-1-2-3 0-4-1h-2l-3-1z"/><path fill="#404040" d="M145 76a2 2 0 01-2-1 1 1 0 010-1 3 3 0 010-2v-1h4l5 1 3 2a21 21 0 01-10 2z"/><path fill="#3f3f3f" d="M133 72c0 2-1 3-3 3a28 28 0 01-10-1h6v-1h-7c5-2 10-1 14-1zM151 73c-1-1-3 0-4-2 4-2 8-2 12-2a2 2 0 011 2l-1 2a2 2 0 01-2 0c-2-1-3 0-4 1a2 2 0 01-2-1z"/><path fill="#434343" d="M159 73a2 2 0 011-2l1-3c2 0 4-2 5 1s-2 3-4 4a14 14 0 01-3 0z"/><path fill="#e6ece9" d="M176 81l-4 4c-1-1 1-3-1-3l1-3c0-3 3-1 4-2l2 1z"/><path fill="#eaeaea" d="M84 65l2 1c1-3 3-5 6-4h1c1 2 5 3 1 4l-4 1c-2 0-5 2-6-2z"/><path fill="#e7e7e7" d="M147 61c2-1 0-3 2-4 2 1 0 4 1 5v3c-1 0-4 4-5-1 1-1 0-2 2-3zM147 42c-3 6-1 12-2 18l-1-15c0-3 1-3 3-3z"/><path fill="#f1f1f1" d="M90 67v-2l3 1a18 18 0 015-1 12 12 0 004-1 1 1 0 011 0c0 2 0 3-2 3h-7z"/><path fill="#e6e7e7" d="M79 60l-1-15 1-2v17z"/><path fill="#eee" d="M115 44a38 38 0 01-1 17z"/><path fill="#3b3b3b" d="M63 69v4c-3-1-6 0-5-4a4 4 0 013-1 7 7 0 012 1z"/><path fill="#464448" d="M95 77v1h-5c2-3 4-4 7-2l-2 1z"/><path fill="#ededed" d="M150 65v-3c3-1 4 1 6 2-2 1-4 2-6 1z"/><path fill="#2d0500" d="M167 82v-4c2 1 0 4 2 5l-1 7c-2-2-1-5-1-8z"/><path fill="#eaeaea" d="M84 51c0 4 2 9 0 13V51z"/><path fill="#ececee" d="M164 44a4 4 0 00-4-1c-3 1-2-1-3-2h4c2 0 4 0 3 3z"/><path fill="#f8e4e7" d="M176 77c-1 2-3 1-4 2v-4l4 2z"/><path fill="#b84d4a" d="M147 81c1 2 3 1 4 2l-1 1c-2 1-5 1-7-1v-1a6 6 0 000-1z"/><path fill="#3c413f" d="M119 79v-1h10c-3 2-6 1-10 1z"/><path fill="#eaeaea" d="M109 44c-4 0-8 1-12-1l12 1z"/><path fill="#ecf0ed" d="M139 44c-4 0-8 1-12-1h6a9 9 0 016 0z"/><path fill="#efeff1" d="M67 41a4 4 0 01-4 2c-1 0-2 2-3 0 0-2 2-1 3-2z"/><path fill="#e9e6e7" d="M172 75v1a40 40 0 01-1-11c2 3 0 7 1 10z"/><path fill="#e3e3e3" d="M165 62V52c1 3 2 7 0 10z"/><path fill="#3f3f3f" d="M87 72h-8v-1c3 1 6-1 8 1zM78 76c4-1 4-1 5 1l-5-1z"/><path fill="#f5f5f7" d="M175 41c-1 2-4 1-5 3 0-1-1-2 1-4l4 1z"/><path fill="#e3e3e3" d="M164 44c0-2-1-3-3-3 3-1 5-1 4 3z"/><path fill="#0f0f0f" d="M63 69a5 5 0 01-1 0c-1-1-3 0-2-2 2-2 3 0 3 2z"/><path fill="#f5f4f6" d="M54 44a3 3 0 01-2-3c3-1 1 2 1 3z"/><path fill="#d4d5d5" d="M154 42h-7 7z"/><path fill="#eaeaea" d="M139 43h-6 6zM90 43h-5 5z"/><path fill="#434343" d="M60 67l2 2h-4c0-1 0-2 2-2z"/><path fill="#3f3f3f" d="M78 71c-2 0-5 1-6-1l6 1z"/><path fill="#f3f3f3" d="M147 61l-2 3v-4a2 2 0 012 1z"/><path fill="#404040" d="M157 72a2 2 0 002 1l-3 1-1-1a1 1 0 012-1z"/><path fill="#454545" d="M155 73l1 1a2 2 0 01-1 0c-1 0-3 1-4-1h2a1 1 0 012 0z"/><path fill="#393939" d="M161 68l-1 3-1-2a2 2 0 012-1z"/><path fill="#130f0c" d="M175 41l-4-1 5 1z"/><path fill="#3f3f3f" d="M74 75l2 1c-1 0-3 1-4-1z"/><path fill="#f2f2f2" d="M139 50a3 3 0 010 1h-1l1-4z"/><path fill="#e9e6e7" d="M178 78l-2-1c-1-4 2-3 4-2a3 3 0 01-2 3z"/><path fill="#f1e7eb" d="M179 60l2 2a1 1 0 01-2 1 1 1 0 01-1-1l1-2z"/><path fill="#e9e6e7" d="M177 68l-1 3c-2 1-2-1-2-3a2 2 0 013 0z"/><path fill="#e3edec" d="M177 62l-1 1-1-1a1 1 0 011-1l1 1z"/><path fill="#f0e9ed" d="M177 68h-3c0-1 0-2 2-2l1 2z"/><path fill="#ca4a3e" d="M151 83l5-2 4 1a3 3 0 012 1 2 2 0 01-2 3c-3 1-6-1-9-2v-1c0-1 0 0 0 0z"/><path fill="#d84342" d="M162 90l-8-1a1 1 0 010-2h6c1-1 3-1 4 1 0 1 0 2-2 2z"/><path fill="#d74442" d="M137 86c2-2 5 0 6-2 3 0 5-1 7 1-4 2-8 2-13 1z"/><path fill="#ce4839" d="M163 88l-3-1v-1l1-3c1-1 2-2 4-1 0 3 1 5-2 6z"/><path fill="#ce4941" d="M154 87v2h-2c-2 0-4 1-5-1l7-1zM150 85l-7-1v-1h8v1z"/><path fill="#cf4643" d="M79 83a22 22 0 008 1l2 1v1a2 2 0 01-2 1c-2 0-5-1-7 1l-1-1c-2-2-5 0-7-1l-2-2 2-1h7z"/><path fill="#d2474b" d="M100 85h27c-3 2-7 1-10 1h-17v-1c0-1 0 0 0 0z"/><path fill="#cf493e" d="M87 86h1c2 0 5-1 5 2h-6a1 1 0 010-2z"/><path fill="#c84a43" d="M88 85a2 2 0 01-2-1c3 0 6-1 8 1z"/><path fill="#d4464b" d="M100 85v1c-1 0-3 1-5-1z"/><path fill="#c84c41" d="M64 84l4 1c-1 2-3 1-4 1l-2-1 2-1z"/><path fill="#ce5145" d="M64 84v3a2 2 0 01-2 1 2 2 0 00-1-2l1-3a2 2 0 012 1z"/><path fill="#d94c4d" d="M62 82c1-2 3 0 5-1-2 2-4 1-5 1z"/><path fill="#cf4a42" d="M163 88c2-2 1-4 1-6a1 1 0 011 1v8h-1a2 2 0 01-2-1 2 2 0 001-2z"/><path fill="#df3f4b" d="M164 92c1 3-2 2-3 2-1-4 2-1 3-2z"/><path fill="#d54739" d="M87 86v2c-2 2-5 1-8 0 2-6 6-2 8-2z"/><path fill="#cc4b4a" d="M165 91v-9a1 1 0 010-2 2 2 0 011 2v9z"/><path fill="#f2eeed" d="M51 77h-2v-3c0 2 4 0 2 3z"/><path fill="#4a474c" d="M25 54c-3-1-1-4-1-6 4 2 4 4 1 6z"/><path fill="#cd4941" d="M127 30h16c-5 2-10 1-16 1z"/><path fill="#d34640" d="M80 30h15v2a14 14 0 01-11 0c-1-1-3 0-4-2z"/><path fill="#c94c3c" d="M84 32h11c-1 3-3 2-5 2H80c0-3 3-1 4-2z"/><path fill="#e8e8e8" d="M98 66h-5c3-1-1-2 0-4a22 22 0 0110 2h-1l-4 2z"/><path fill="#eaeaea" d="M106 59V48h1c0 4 1 8-1 11zM87 60a28 28 0 01-1-15c0 5 2 9 1 15z"/><path fill="#e7e7e7" d="M92 62c-3 0-4 3-6 4 0-5 1-6 6-4z"/><path fill="#eaeaea" d="M104 61V48a28 28 0 010 13zM103 60c0 2-1 2-3 2 1-2 2-2 3-2z"/><path fill="#e7e7e7" d="M162 49c0 4 1 6-2 8l2-8zM149 44c1 3 2 6-1 8l1-8z"/><path fill="#474645" d="M143 74v1c-3-1-5 3-8 0a8 8 0 016-2 3 3 0 012 1z"/><path fill="#454545" d="M143 74h-2l-3-1 5-1v2z"/><path fill="#3b3b3b" d="M138 73l3 1-6 1c0-2 2-2 3-2z"/><path fill="#3a3f3b" d="M95 77a2 2 0 012-1h6v1z"/><path fill="#3c413f" d="M119 77a6 6 0 016 0zM119 78c-2 0-4 1-6-1h6z"/><path fill="#3f3f3f" d="M80 72c-1 3-3 2-4 2l-4-2z"/><path fill="#d54a4b" d="M165 80v2h-1l-3 1-1-1 2-2z"/><path fill="#d44c52" d="M162 80a2 2 0 01-2 2c-1 0-3 1-4-1z"/><path fill="#3d3d3d" d="M155 73h-2c1-1 2-3 4-1a2 2 0 00-2 1z"/><path fill="#eaeaea" d="M98 66c1-2 3-2 4-2 0 2-2 2-4 2z"/></svg>