<svg xmlns="http://www.w3.org/2000/svg" viewBox="0 0 1165.4 992.4"><path d="M1097 992H60c-10-18-15-37-15-58a129 129 0 00-2-14c-1-14-4-27-7-40-2-8-4-16-4-25l-1-22a103 103 0 00-3-20 50 50 0 01-1-6 75 75 0 00-5-17 95 95 0 01-6-39v-6a26 26 0 018-19l8-7a16 16 0 018-4c7-2 14-1 21 2a41 41 0 019 6 18 18 0 003 3 3 3 0 004-2v-10a48 48 0 01-3-15l-3-12a187 187 0 01-6-18 28 28 0 00-1-3 23 23 0 01-2-8 51 51 0 00-5-16l-6-17a50 50 0 00-5-12 40 40 0 01-5-15 69 69 0 01-1-16 19 19 0 00-3-14 27 27 0 01-6-18 22 22 0 00-4-14 28 28 0 01-4-10l-2-8a33 33 0 00-3-10 16 16 0 01-3-7 71 71 0 00-3-15l-2-12a50 50 0 00-4-12 37 37 0 01-3-9l-1-10a7 7 0 00-2-4v-5l3-3a56 56 0 0111-9l28-14 25-10 13-2a3 3 0 003-2l2-6a31 31 0 003-18 35 35 0 010-9 73 73 0 015-21 27 27 0 003-12 13 13 0 015-12 9 9 0 004-6 25 25 0 015-12l15-24a149 149 0 0118-23l14-16a18 18 0 017-6 14 14 0 008-7 45 45 0 0112-14l35-30a54 54 0 0115-9 27 27 0 0012-10 49 49 0 003-4 112 112 0 0118-24l16-16a53 53 0 007-7c6-8 13-15 21-20a21 21 0 007-5c5-7 13-11 21-14l10-4a62 62 0 0012-7c19-14 41-24 63-32 15-6 30-10 45-14a104 104 0 0120-5 35 35 0 0012-3 25 25 0 0113-2l9 1a12 12 0 009-3h14a18 18 0 0012 4 16 16 0 0110 4l7 5a7 7 0 004 2l9 1a5 5 0 005-2c4-7 10-10 17-12l5-2h45l5 2a19 19 0 017 4c2 3 5 4 8 3a66 66 0 0119 2l20 5a109 109 0 0120 5l44 20c12 6 24 14 35 22a47 47 0 0013 7 42 42 0 0112 6c10 8 19 15 27 25a14 14 0 006 5c6 2 10 5 13 9l10 11a9 9 0 012 3 17 17 0 006 8c6 4 10 10 14 17l3 6a17 17 0 009 7 31 31 0 015 3 136 136 0 0116 11l23 18a12 12 0 015 5c1 4 4 7 7 9a93 93 0 0124 23 38 38 0 0011 10 19 19 0 018 11 8 8 0 003 5c4 2 6 5 8 8l10 16 6 9a39 39 0 014 9l8 16a74 74 0 0111 40 101 101 0 01-1 15l1 5a18 18 0 014 8 26 26 0 000 3 7 7 0 006 5l5 1 24 4c14 5 27 12 40 18a6 6 0 014 6 14 14 0 000 5v9l-5 6c-2 2-3 4-1 7s1 4-1 7c-6 5-9 12-7 20a7 7 0 01-2 7 4 4 0 00-2 4c1 4-1 7-3 9a10 10 0 00-2 1c-2 3-4 5-8 4a2 2 0 00-1 0 2 2 0 00-1 2 13 13 0 001 3 13 13 0 010 8 64 64 0 00-1 7l-1 7a7 7 0 01-5 5l-2 1a3 3 0 00-1 3 6 6 0 000 2c2 4 1 7-1 11a73 73 0 00-5 20l-1 10-3 12a9 9 0 01-2 3 12 12 0 00-2 7 11 11 0 01-1 6 16 16 0 00-3 8 44 44 0 01-2 11 40 40 0 00-2 14 13 13 0 01-1 6 19 19 0 00-3 11 33 33 0 01-1 9c-2 8-2 16-1 24a27 27 0 001 6c1 3 3 4 5 3a48 48 0 005-3l14-5a23 23 0 0111 0 19 19 0 0114 20l-1 13c-1 7-2 14-1 21l1 11c3 6 3 11 3 17 1 6 0 12-1 18l-1 21a45 45 0 01-1 16 145 145 0 00-3 18 152 152 0 01-6 25 287 287 0 00-10 40 230 230 0 01-15 53 131 131 0 01-13 24z"/></svg>