<svg xmlns="http://www.w3.org/2000/svg" viewBox="0 0 816 992.4"><path d="M0 442v-7l2-5 5-6a37 37 0 018-6 26 26 0 005-4 14 14 0 014-3 69 69 0 008-5 27 27 0 014-2l13-7a9 9 0 015-1c4 1 4-1 4-3a19 19 0 001-3 92 92 0 012-10 17 17 0 001-6 54 54 0 01-1-12l2-11 1-9 3-15a14 14 0 015-11 4 4 0 001-4 25 25 0 012-9 41 41 0 013-7 90 90 0 006-14 51 51 0 015-12 76 76 0 006-12 37 37 0 018-12 8 8 0 002-3 34 34 0 016-10 13 13 0 014-4 9 9 0 005-5c3-9 9-17 15-24l11-12a147 147 0 0112-15 24 24 0 017-4 12 12 0 005-6 40 40 0 003-5l5-13a41 41 0 017-11 24 24 0 005-8 14 14 0 013-5 64 64 0 0011-14c2-5 4-9 8-13a4 4 0 001 0 21 21 0 015-5 18 18 0 005-8 11 11 0 014-4l8-7a13 13 0 016-3 9 9 0 003-2l8-6a13 13 0 004-5 9 9 0 014-3 24 24 0 005-5 30 30 0 0112-9 19 19 0 007-4c5-4 10-8 17-9a13 13 0 005-3 31 31 0 019-4l9-3a30 30 0 006-2 26 26 0 017-3l7-1a22 22 0 008-4 9 9 0 017-1h3c3 0 5 1 8-1a28 28 0 015-2h4a38 38 0 015 2 10 10 0 007 2 6 6 0 014 2 54 54 0 018 8 5 5 0 004 2 43 43 0 014 0 3 3 0 004-2 27 27 0 017-9 15 15 0 017-4 33 33 0 0113 0h2a22 22 0 008 0 26 26 0 015-1c6 0 11 3 14 8 1 2 1 2 3 2a16 16 0 019 0l6 3a26 26 0 0010 1 6 6 0 014 1l9 6 10 4a13 13 0 015 2l4 3 15 11a92 92 0 0116 12c5 5 10 11 16 15a13 13 0 004 3 16 16 0 015 3 39 39 0 018 9 21 21 0 005 6 15 15 0 014 4l5 10a9 9 0 005 4 13 13 0 016 6l3 5a25 25 0 005 7 6 6 0 012 3 14 14 0 003 7l3 3a38 38 0 016 11l6 14 2 3 7 4a56 56 0 015 6l17 19a10 10 0 003 2 14 14 0 016 10 6 6 0 001 3 101 101 0 0112 13 119 119 0 019 16 18 18 0 005 6c4 4 7 8 7 14a5 5 0 003 4 8 8 0 013 4l10 23a57 57 0 014 8 25 25 0 002 6 6 6 0 011 3c0 4 2 7 3 10 6 12 9 26 9 40a103 103 0 01-1 18 7 7 0 001 6 8 8 0 012 5l2 9a2 2 0 002 2 93 93 0 0115 3c4 1 7 1 11 4l12 7a2 2 0 001 1 10 10 0 015 3 16 16 0 005 4 4 4 0 012 3 7 7 0 011 5 5 5 0 000 3 9 9 0 01-1 10 8 8 0 00-2 3 4 4 0 01-1 3c-2 2-2 3-1 4a15 15 0 012 4c0 2 0 3-2 4a3 3 0 00-2 3 7 7 0 01-1 3 9 9 0 00-2 7 13 13 0 010 4 14 14 0 000 7c0 3 0 3-2 4a2 2 0 00-1 3v2a12 12 0 011 5 3 3 0 01-2 2c-2 0-2 2-3 3 0 3-1 3-4 2h-1l-2 1a6 6 0 001 4v11a7 7 0 00-1 4v8c0 3-1 4-4 5-2 1-2 1-2 3l1 6a11 11 0 01-1 7 6 6 0 000 3 28 28 0 01-2 7 20 20 0 00-1 5l-1 11a14 14 0 01-1 7 5 5 0 00-1 4 18 18 0 010 6 4 4 0 01-2 3 5 5 0 00-1 4v5a7 7 0 01-1 5 6 6 0 00-1 6 4 4 0 01-1 4 6 6 0 00-1 5 17 17 0 010 5c-2 4-2 8-1 12a12 12 0 01-2 6 17 17 0 00-1 9 39 39 0 01-1 12 20 20 0 00-1 5 29 29 0 01-1 8 9 9 0 000 5 19 19 0 011 6v4a6 6 0 002 4 2 2 0 003 0l3-2a8 8 0 003-3 6 6 0 016-3h8a6 6 0 015 3l2 3a13 13 0 013 8v11a39 39 0 01-1 11 20 20 0 000 5v18a20 20 0 001 9 14 14 0 011 5v23a8 8 0 010 3 13 13 0 00-1 6v24a28 28 0 01-1 8 21 21 0 000 5 9 9 0 01-1 3l-1 8a14 14 0 010 4 26 26 0 00-1 6 24 24 0 01-1 6l-4 18a19 19 0 000 3 86 86 0 01-2 12 41 41 0 00-1 11 7 7 0 01-1 3 11 11 0 00-1 4l-2 15a50 50 0 00-1 8 11 11 0 01-2 7 5 5 0 00-1 2 43 43 0 01-2 13 32 32 0 00-2 7 23 23 0 01-3 9 11 11 0 00-1 3 44 44 0 01-6 13H42a78 78 0 01-5-13l-3-14a51 51 0 01-1-5l-1-11a34 34 0 010-7 56 56 0 00-1-10l-3-30a71 71 0 00-1-11 53 53 0 01-2-11l-2-12-1-16-1-12v-16a21 21 0 00-1-6 19 19 0 01-1-6l-1-12-2-9a69 69 0 00-3-12 24 24 0 01-2-8v-29a25 25 0 015-14l6-9a8 8 0 017-5h2c3 0 7 0 10 2a30 30 0 017 7 9 9 0 003 3l2 1a2 2 0 001-3l-1-14a15 15 0 01-1-3l-1-17a7 7 0 00-1-4 8 8 0 01-2-4 16 16 0 00-1-5 12 12 0 01-1-5v-5a4 4 0 00-1-2c-2-2-2-4-2-6v-8a7 7 0 00-1-4 13 13 0 01-2-7 4 4 0 00-1-3c-2-2-2-5-2-8l-1-8a6 6 0 00-2-3 7 7 0 01-2-4 18 18 0 00-2-6 6 6 0 010-2c-1-7-3-14-2-21v-8a9 9 0 000-4l-5-10a17 17 0 01-1-7l-1-7c0-7-2-14-4-20a14 14 0 01-2-7v-3a7 7 0 00-1-5 7 7 0 01-1-4 6 6 0 00-1-4 5 5 0 01-1-3 67 67 0 01-1-8 17 17 0 00-1-7 12 12 0 01-1-3l-1-12-3-13a17 17 0 01-1-9c0-3 0-7-3-9z"/></svg>