<svg xmlns="http://www.w3.org/2000/svg" viewBox="0 0 1167 685.01"><title>head-bottom-silhouette</title><path d="M-102-43.72H934c-5.22,6.87-10.62,13.57-16.36,20-4.42,5-10,9.57-11.38,16.57-2.51,13-4.38,26.19-8.71,38.82-2.59,7.53-5.93,14.88-5.76,23.13a8.7,8.7,0,0,1-1.21,3.76c-3,6.06-4.1,12.61-4.43,19.23-.22,4.21-.5,8.31-2.18,12.2A26.52,26.52,0,0,0,882,101.25c.16,9.35-1.9,18.44-3.55,27.58-1.53,8.48-4.24,16.71-4.64,25.45a70,70,0,0,1-2.73,16.16c-3.37,11.7-5,23.82-6.47,35.71-1.63,13-6.26,25.06-8,37.88-1,7.06-4.26,13.67-5.92,20.53-3.12,12.94-6.16,25.86-11,38.28-5,13-9.24,26.31-15.92,38.72-4.12,7.66-6.78,16.11-12.44,23a5.85,5.85,0,0,0-1,2.24c-1.81,7.32-6.72,13.17-10.94,18.79-6.21,8.26-12.44,16.88-21,23.24a38.11,38.11,0,0,0-7.14,7.63c-8.56,11.22-18.45,21.27-27.81,31.78-3.75,4.22-8.62,7.54-11.88,12.06a164.74,164.74,0,0,1-17.17,20.09c-3.29,3.3-6.57,6.33-11.16,8.09-7,2.7-12.89,7.28-18,12.94S674.36,512.23,669,517.74a70.74,70.74,0,0,1-12.92,10,42.69,42.69,0,0,0-14.4,15.48c-2.84,5.14-3.53,11.48-6.85,15.65-7.63,9.58-12.66,21.37-23.41,28.43a49.69,49.69,0,0,0-7.3,5.18c-9.65,9.12-18.44,19.08-28.9,27.47-6.86,5.49-13.72,8.39-22.21,8.25a40.76,40.76,0,0,0-17.47,3.42c-6.2,2.81-12.3,4.65-19.16,4.62-35-.12-70,0-104.95-.13-5.37,0-10.24.67-14.46,4.16H379c-3.09-2-6.59-2.11-10.11-2.08-17.3.13-34.67.87-51.55-4-9.45-2.7-18.9-4.78-28.83-4.36-3.35.14-5.73-2.34-8-4.63-4.29-4.35-8.16-9.29-14.92-10.15-2-.26-3.37-2.08-4.72-3.55-3.77-4.1-7.59-7.94-13.78-8a5.67,5.67,0,0,1-3.55-1.65c-5.61-5.46-11.78-10.52-16.44-16.72-6.87-9.15-15.38-16.56-23.44-24.46-2.67-2.61-6.08-4.24-8.17-7.76-6.46-10.87-15.75-19.33-25.35-27.28a114.7,114.7,0,0,1-18.55-18.63c-5.22-6.87-8.4-15.29-15.2-20.87-5-4.07-10.41-7.46-12.49-14.11-.44-1.43-2.14-2.49-3.33-3.65-7.52-7.31-15.65-14.1-22.48-22C76.89,422,54.48,398.39,37.44,370.53,29.17,357,21,343.57,17.23,327.86c-2-8.41-4.83-16.63-7.45-24.88C6.6,293,2.72,283.2.1,273.07c-3.65-14.16-6.87-28.48-9.38-42.88-1.23-7.08-4.05-13.71-4.81-20.83-1.63-15.22-6.34-29.85-8.81-44.93-.92-5.68-1.09-11.73-3.15-17.06-3.76-9.74-4.73-20.07-6.71-30.08C-36,100.6-42.27,84.74-45.21,68c-2.38-13.56-7.08-26.69-10-40.18C-60,5.16-60,5.27-76.81-11A151.07,151.07,0,0,1-102-43.72Z" transform="translate(163 44.73)"/><rect width="1167" height="0.01" fill="none"/></svg>