<svg xmlns="http://www.w3.org/2000/svg" viewBox="0 0 1167 685"><path d="M61 1h1036l-16 20c-5 5-10 10-12 17-2 13-4 26-8 38-3 8-6 15-6 24a9 9 0 01-1 3c-3 6-5 13-5 20 0 4 0 8-2 12a27 27 0 00-2 11c0 9-2 18-4 28-1 8-4 16-4 25a70 70 0 01-3 16l-6 36c-2 13-7 25-8 38-1 7-5 13-6 20-3 13-6 26-11 39l-16 38c-4 8-7 16-13 23a6 6 0 00-1 3c-1 7-6 13-11 18-6 9-12 17-21 24a38 38 0 00-7 7c-8 11-18 21-28 32l-11 12a165 165 0 01-18 20c-3 3-6 6-11 8-7 3-13 7-18 13l-16 16a71 71 0 01-13 10 43 43 0 00-14 16l-7 16c-8 9-13 21-24 28a50 50 0 00-7 5c-10 9-18 19-29 28-7 5-14 8-22 8a41 41 0 00-17 3c-7 3-13 5-20 5H574c-5 0-10 1-14 4h-18c-3-2-7-2-10-2-17 0-35 1-52-4-9-3-19-5-28-4-4 0-6-3-8-5-5-4-9-9-15-10-2 0-4-2-5-4-4-4-8-8-14-8a6 6 0 01-3-1l-17-17-23-25-9-7c-6-11-15-20-25-28a115 115 0 01-18-18c-6-7-9-16-16-21-5-4-10-8-12-14l-3-4-23-22c-21-24-44-48-61-76-8-13-16-27-20-42l-7-25-10-30c-4-14-7-29-9-43l-5-21-9-45c-1-6-1-12-3-17-4-10-5-20-7-30-3-17-9-33-12-49l-10-40c-5-23-5-23-22-39A151 151 0 0161 1z"/><path fill="none" d="M0 0h1167H0z"/></svg>