<svg xmlns="http://www.w3.org/2000/svg" viewBox="0 0 817.2 684.24"><title>head-bottom-narrow-silhouette</title><path d="M54.72-44.24H780a12.72,12.72,0,0,1-2.4,5.16,19.39,19.39,0,0,0-2.77,4.46A39.16,39.16,0,0,1,769-25a14.2,14.2,0,0,0-2.85,4.68,18.24,18.24,0,0,1-3.64,6.67,9.33,9.33,0,0,0-2.18,6.44c.26,5.32-1.1,10.45-1.89,15.65a26.2,26.2,0,0,0-.55,5,23.35,23.35,0,0,1-.68,6.18q-1.53,6.78-3.25,13.51c-1.76,6.89-3.76,13.73-3.27,21a7.42,7.42,0,0,1-1.06,4.61,11.75,11.75,0,0,0-1.82,7.07,8,8,0,0,1-.65,4.46,6.62,6.62,0,0,0-.75,3.46c0,1.52,0,3,0,4.56,0,3.27.23,6.56-1.2,9.67a6.67,6.67,0,0,0-.32,2.12,4.64,4.64,0,0,1-.52,2.08,7.54,7.54,0,0,0-.85,4.17q0,5.63,0,11.27a11.09,11.09,0,0,1-.36,3.81,14.81,14.81,0,0,0-.64,5.2,44.21,44.21,0,0,1-.57,8.59c-1,4.94-2.17,9.83-2.42,14.89a14.38,14.38,0,0,1-.84,4.23,8.09,8.09,0,0,0-.46,3.3c.43,6.76-1.84,13.26-1.84,20a16.93,16.93,0,0,1-.45,2.59c-1,5.66-2.39,11.26-2,17.09a10.44,10.44,0,0,1-.47,4.74,14.18,14.18,0,0,0-1,5.86c0,1.35.17,2.78-.52,4a8.94,8.94,0,0,0-.9,4.65c0,2.15,0,4.31-.05,6.47a7.26,7.26,0,0,1-.45,3.07,13.19,13.19,0,0,0-1,5.86,13.56,13.56,0,0,1-1,5.1c-.77,2-1.73,4-1.83,6.18a84.18,84.18,0,0,1-.87,10.71c-.68,4-1.56,8-2,12a12.63,12.63,0,0,1-.87,3,19.24,19.24,0,0,0-1.64,7.67,21.08,21.08,0,0,1-.75,5.46c-.33,1.48-.86,2.92-1.13,4.4-1,5.26-2.22,10.48-2.51,15.85a3.4,3.4,0,0,1-.18.94,81.34,81.34,0,0,0-3,10.06c-.81,3.14-1.2,6.41-2.59,9.4-1,2.28-1.28,4.76-1.73,7.19-.95,5-3.13,9.72-4.13,14.74a9.45,9.45,0,0,1-1.11,2.89,28,28,0,0,0-3.91,12.17,10.58,10.58,0,0,1-1.22,5.07c-1.61,2.55-3.35,5-4.37,7.91-.6,1.71-1.21,3.41-1.7,5.17-.8,2.9-1.55,5.87-3.33,8.38a11.73,11.73,0,0,0-2.23,5,14.55,14.55,0,0,1-2.86,6.25c-1.83,2.5-3.7,5-4.61,8.08a9.48,9.48,0,0,1-1.39,2.5c-3.1,4.46-6.24,8.88-9.64,13.12a27.42,27.42,0,0,0-4.26,8,12,12,0,0,1-1.66,3.17c-2,2.71-4,5.39-5.94,8.13a24.76,24.76,0,0,0-4,7.54,7.64,7.64,0,0,1-1.24,2.32c-2.89,4.12-5.76,8.26-8.68,12.36a22.49,22.49,0,0,1-3.09,4,6.15,6.15,0,0,0-1.94,3c-1.17,4.24-3.94,7.64-6,11.42-2.54,4.73-6.16,8.75-9,13.29a4.46,4.46,0,0,1-2.93,2.3,3.93,3.93,0,0,0-2,1.27,12.1,12.1,0,0,1-5,3.56,3.36,3.36,0,0,0-1.45,1.21,54.87,54.87,0,0,0-4,5.4c-3.15,5.2-7.1,9.84-10.33,15-2.24,3.58-5.13,6.73-7.29,10.39a5.21,5.21,0,0,1-1.6,1.39c-1.63,1.25-3.7,1.94-4.92,3.7-2.2,3.15-4.38,6.31-6.51,9.49a8.7,8.7,0,0,0-1.58,4.23,6.81,6.81,0,0,1-1.25,3.56,11.92,11.92,0,0,0-2.3,7.15,12.16,12.16,0,0,1-3.11,8.82,4.66,4.66,0,0,0-1.25,2c-.5,2.62-2.06,4.64-3.49,6.75s-2.61,4.22-2.68,6.83a4.12,4.12,0,0,1-1.2,2.56c-2.31,2.62-5,4.9-7,7.86a1.64,1.64,0,0,1-.75.57,5.67,5.67,0,0,0-2.78,2.55c-3.63,5.75-7.94,11-11.62,16.75a41.15,41.15,0,0,1-5.88,7.85,36.93,36.93,0,0,0-5,5.68,14.39,14.39,0,0,1-12.49,6.3c-2.88,0-5.77-.18-8.35,1.49a1.39,1.39,0,0,1-.67.24c-2.52,0-4.75.56-6.06,3a.4.4,0,0,1-.19.14c-3.3,1.55-6.39,3.34-10.35,3.32-25.51-.13-51-.07-76.55-.07-.88,0-1.76,0-2.64,0a3.53,3.53,0,0,0-3.11,1.45,6.37,6.37,0,0,1-5.48,2.43c-2.24,0-4.48,0-6.72,0a8.64,8.64,0,0,1-4.4-.94,9.88,9.88,0,0,0-4.87-1c-6.72,0-13.44,0-20.16,0a12.1,12.1,0,0,1-6-1.23,6,6,0,0,0-3.24-.74,10.09,10.09,0,0,1-5.09-1.14,8.52,8.52,0,0,0-3.21-.83,7.48,7.48,0,0,1-4.93-2.16,7.19,7.19,0,0,0-5.2-2.08c-2.64,0-5.28,0-7.92,0a6.45,6.45,0,0,1-5.69-2.95c-1.76-2.68-3.64-5.27-5.44-7.91-1.11-1.62-2.28-3-4.49-3.2a5.12,5.12,0,0,1-3.69-2.43c-1.56-2.32-3.3-4.52-4.86-6.84a5.2,5.2,0,0,0-4.5-2.64,6,6,0,0,1-5.28-3.22c-.59-1-1.31-2-2-3l-8.23-11.79a4.11,4.11,0,0,1-.79-1.74,9.81,9.81,0,0,0-2.07-4.26q-6.7-9.49-13.35-19a7,7,0,0,0-2.22-2.13,7.27,7.27,0,0,1-3.32-4.25,16.88,16.88,0,0,0-2.08-4.54,5.94,5.94,0,0,1-1-2.43,6.74,6.74,0,0,0-1.36-3q-3.39-4.95-6.9-9.8c-2.55-3.51-4.45-7.64-8.33-10.08a1.78,1.78,0,0,1-.46-.55c-3.87-6.12-8.89-11.45-11.8-18.26a63.88,63.88,0,0,0-4.53-9.44,4,4,0,0,1-.43-1.12c-1.34-4.76-4.37-8.47-7.51-12.11a7.39,7.39,0,0,0-2.36-2,3.91,3.91,0,0,1-2.18-3.49,17,17,0,0,0-3.84-8.92c-4.39-5.6-8.22-11.59-12.46-17.3-1.8-2.43-3.44-5-5.2-7.43-2.94-4.12-5.26-8.57-7.86-12.87a31.09,31.09,0,0,1-2.32-3.61c-2.11-5-5.33-9.25-8.14-13.79-1.72-2.79-3.81-5.39-5.17-8.34-1.76-3.86-3.92-7.5-5.94-11.2-2.85-5.18-5.6-10.38-7.94-15.81-.83-1.9-1.55-3.86-2.47-5.72-2.38-4.79-4.38-9.74-6.5-14.64a134.93,134.93,0,0,1-6.67-20.23c-1.57-6.18-2.67-12.49-4-18.76-1.51-7.42-2.93-14.88-4.5-22.3-.57-2.67-1.67-5.18-2.16-7.84a91.65,91.65,0,0,0-2.55-11,20.72,20.72,0,0,1-1-6.6,11.83,11.83,0,0,0-.53-4c-.82-2.3-.85-4.7-1.24-7.05-.27-1.58-.56-3.15-.89-4.71-1-4.68-1.22-9.51-2.51-14.15a3.74,3.74,0,0,1-.07-1c-.14-6.24-2.31-12.24-2.2-18.51a7.34,7.34,0,0,0-.42-1.86c-1.11-4.43-2.07-8.87-1.81-13.49a13.09,13.09,0,0,0-.36-3.57,41.52,41.52,0,0,1-1.32-9,7.25,7.25,0,0,0-.54-2.81c-1.57-3.52-1.77-7.27-2.07-11s-.4-7.69-1.09-11.44a135.7,135.7,0,0,1-2.54-18.74c-.18-4.45-2.26-8.57-2.62-13.07-.23-2.84-1-5.64-.88-8.55a11.14,11.14,0,0,0-.6-4.73,31.91,31.91,0,0,1-1.73-8.91,37.6,37.6,0,0,0-.6-4.51c-1.1-5-1.57-10.09-2.59-15.11-.78-3.83-1.62-7.64-2.49-11.45a47.75,47.75,0,0,1-1.71-11.59A16.53,16.53,0,0,0,94,64.87a10.29,10.29,0,0,1-.86-4.2c.08-4.44-1.3-8.67-1.9-13S89.62,39,88.73,34.73c-.72-3.45-1.06-6.95-1.66-10.4-.93-5.27-2.16-10.49-2.52-15.84a12.08,12.08,0,0,0-2.68-6.78,62.17,62.17,0,0,1-5.75-8.26,16.22,16.22,0,0,0-2.31-3,37.61,37.61,0,0,1-5.74-8.23A71,71,0,0,0,64-25.41c-1.33-2-2.95-3.79-3.69-6.13-1.11-3.53-3-6.69-4.57-10A7.51,7.51,0,0,1,54.72-44.24Z" transform="translate(-12 44.73)"/><rect width="817.2" height="0.01" fill="none"/></svg>