<svg xmlns="http://www.w3.org/2000/svg" viewBox="0 0 816.04 992.4"><title>head-top-narrow-silhouette</title><path d="M13.48,243.73V237c1-1.53,1.18-3.49,2.38-4.95,1.63-2,3.19-4,4.88-5.93a37.49,37.49,0,0,1,7.79-6.3,26.45,26.45,0,0,0,5.1-3.93,14.39,14.39,0,0,1,4.13-3.24,69.31,69.31,0,0,0,7.75-4.79,27.23,27.23,0,0,1,4.14-2.41c4.39-1.92,8.6-4.21,12.88-6.36a8.62,8.62,0,0,1,5.06-1.22c3.64.53,3.42-.61,4.25-3.11a18.51,18.51,0,0,0,.82-3,91.74,91.74,0,0,1,2.19-9.83,16.78,16.78,0,0,0,.19-6.66,54.34,54.34,0,0,1-.41-12c.31-3.67,1-7.28,1.44-10.93.36-2.86.39-5.84,1.59-8.45,2.21-4.81,2.66-9.74,2.42-14.93a13.51,13.51,0,0,1,5.17-11.62,4,4,0,0,0,1.51-3.58,25.07,25.07,0,0,1,1.37-9A41.46,41.46,0,0,1,91,98.25a90.19,90.19,0,0,0,6.36-14.73,51.42,51.42,0,0,1,5.5-12,76.18,76.18,0,0,0,5.75-11.32A36.93,36.93,0,0,1,116.43,48a7.76,7.76,0,0,0,1.89-3,33.69,33.69,0,0,1,5.77-9.9,13.18,13.18,0,0,1,4.5-3.9,8.56,8.56,0,0,0,4.53-5.3c3.12-9.49,9.08-17.16,15.71-24.41,3.55-3.9,7.1-7.82,10.31-12a147,147,0,0,1,12.49-14.23,23.51,23.51,0,0,1,6.47-4.92,12.42,12.42,0,0,0,5.47-5.19A40.38,40.38,0,0,0,186-39.79c1.91-4.57,3.82-9.15,5.8-13.69a41,41,0,0,1,6.42-10.93A24.3,24.3,0,0,0,203-72.07a13.89,13.89,0,0,1,3.44-5.16A63.51,63.51,0,0,0,217.1-91.38c2.58-4.41,4.77-9.06,8.65-12.57a4.12,4.12,0,0,0,.44-.57,21.07,21.07,0,0,1,4.83-5,18.13,18.13,0,0,0,5.94-7.4,11.31,11.31,0,0,1,3.58-4.73c2.91-2.13,5.63-4.49,8.36-6.83a12.75,12.75,0,0,1,5.2-2.87,8.83,8.83,0,0,0,3.18-1.63q4.22-3.18,8.45-6.33a12.76,12.76,0,0,0,3.89-4.49,8.78,8.78,0,0,1,3.37-3.67,24,24,0,0,0,5.58-4.87,29.85,29.85,0,0,1,12.35-8.42,19,19,0,0,0,6.48-4c5-4.57,10.52-8.07,17.21-9.54a13,13,0,0,0,5.35-2.6,30.94,30.94,0,0,1,8.85-4.72c2.94-1,5.92-2,8.89-2.91a30.31,30.31,0,0,0,5.38-2,25.81,25.81,0,0,1,7-2.47c2.43-.52,4.82-1.17,7.24-1.72a21.83,21.83,0,0,0,8.07-3.52,9.22,9.22,0,0,1,7.54-1.49c.86.17,1.72.4,2.58.53,2.72.4,5.45.62,7.95-.83a27.9,27.9,0,0,1,5.29-2.24h3.84a38.35,38.35,0,0,1,5.2,2.42,10.39,10.39,0,0,0,6.36,1.81,6.1,6.1,0,0,1,4.59,1.72c1.17,1.08,2.31,2.21,3.38,3.39,1.35,1.48,2.66,3,3.9,4.56a4.56,4.56,0,0,0,4.12,2,42.7,42.7,0,0,1,4.8,0,3.16,3.16,0,0,0,3.37-2.07,27.19,27.19,0,0,1,7.54-9.21,14.88,14.88,0,0,1,6.39-3.15,33,33,0,0,1,13.08-.65c.71.12,1.42.22,2.14.33a22.47,22.47,0,0,0,7.63-.08,25.76,25.76,0,0,1,5.47-.61c6.09,0,10.84,2.31,13.79,7.87,1.09,2.05,1.2,2.08,3.41,1.6a16,16,0,0,1,8.29.46c2.13.67,4.24,1.4,6.35,2.16a26,26,0,0,0,10.56,1.83,6.49,6.49,0,0,1,3.87,1.05c3,1.81,6.1,3.51,9.05,5.42s5.71,3.47,9.15,4a13.27,13.27,0,0,1,5.24,2.29q2.12,1.36,4.15,2.85c5.1,3.73,10,7.76,15.32,11.13A92.16,92.16,0,0,1,575-144.91c5.23,5.16,10.27,10.53,16,15.15a13.29,13.29,0,0,0,4.07,2.44,15.63,15.63,0,0,1,5.44,3,39.06,39.06,0,0,1,8.08,9.12,20.7,20.7,0,0,0,4.8,5.63,15.35,15.35,0,0,1,3.62,4.43c1.85,3.27,3.75,6.52,5.56,9.81a8.57,8.57,0,0,0,4.48,4.11,13.19,13.19,0,0,1,6.66,6q1.44,2.49,2.95,4.94a24.54,24.54,0,0,0,5.18,6.56,5.72,5.72,0,0,1,1.84,3.8,14.3,14.3,0,0,0,2.93,6.74c.78,1,1.56,2,2.4,3A38.1,38.1,0,0,1,655.84-49c1.72,4.48,3.59,8.9,5.39,13.35.51,1.28,1.07,2.7,2.43,3.12,2.65.84,4.39,2.83,6.36,4.55a55.7,55.7,0,0,1,5.86,5.32c5.64,6.53,11.62,12.78,16.93,19.6A9.77,9.77,0,0,0,695-.91,13.93,13.93,0,0,1,701.16,9a5.63,5.63,0,0,0,1.8,3.26A101.19,101.19,0,0,1,714.1,24.77a119.26,119.26,0,0,1,9.58,16.33,17.9,17.9,0,0,0,4.66,6c4.22,3.41,7,7.66,7.44,13.19a5,5,0,0,0,2.57,4.09,7.81,7.81,0,0,1,3.29,4c3.11,7.8,6.65,15.41,10.32,23a57.06,57.06,0,0,1,3.43,8.43,25.26,25.26,0,0,0,2.37,5.75,6.16,6.16,0,0,1,1,3.16c-.07,3.58,1.27,6.73,2.77,9.84,6.12,12.7,8.64,26.19,8.83,40.19a103.29,103.29,0,0,1-1,18.18,6.64,6.64,0,0,0,1.32,5.63,7.93,7.93,0,0,1,1.88,5.1c0,3.22,1.36,6.05,2,9.08a2.22,2.22,0,0,0,2.15,1.9,92.87,92.87,0,0,1,14.81,2.75c3.62.95,7.41,1.75,10.51,3.93,4.06,2.84,8.87,4.48,12.54,7.93a1.89,1.89,0,0,0,.84.44,10.33,10.33,0,0,1,4.66,3.25,15.82,15.82,0,0,0,5.72,4.26,3.81,3.81,0,0,1,2.08,2.21,6.54,6.54,0,0,1,.35,4.91,5.15,5.15,0,0,0,.29,3.94,8.58,8.58,0,0,1-.85,9.06,8.43,8.43,0,0,0-1.75,3.9,4.24,4.24,0,0,1-1.87,2.93c-1.8,1.31-1.95,2.14-.71,4a15.43,15.43,0,0,1,1.86,3.61c.77,2.27.53,3-1.68,3.91a2.77,2.77,0,0,0-2,2.67,6.7,6.7,0,0,1-1.32,3.81,8.92,8.92,0,0,0-1.65,6.34,13.26,13.26,0,0,1-.14,4.53,13.82,13.82,0,0,0,0,7.11c.54,2.39.44,2.65-1.76,3.74a2.11,2.11,0,0,0-1.29,2.51c.12.71.32,1.4.5,2.1a11.51,11.51,0,0,1,.16,5,2.56,2.56,0,0,1-1.81,2.32c-1.69.42-2.17,1.57-2.48,3.12-.54,2.69-1.67,3.21-4.34,2.27-.3-.1-.59-.25-.89-.36-1-.35-1.57,0-1.69,1a6.28,6.28,0,0,0,.3,3.54c1.82,3.86,1.55,7.76.35,11.7a7.06,7.06,0,0,0-.57,3.28c.47,2.73-.1,5.43-.15,8.14s-1.54,4.53-4.23,5.46c-2,.67-2.28,1.1-1.93,3.15.31,1.89.82,3.75,1.16,5.63a11.12,11.12,0,0,1-1,7.47,5.52,5.52,0,0,0-.73,2.26,28.47,28.47,0,0,1-1.65,7,19.78,19.78,0,0,0-1.18,5.37c-.18,3.75-.38,7.5-.48,11.26a14,14,0,0,1-1.71,6.9,5.18,5.18,0,0,0-.69,3.92,18.06,18.06,0,0,1-.14,6,3.63,3.63,0,0,1-1.21,2.53,4.71,4.71,0,0,0-1.56,3.87c0,1.84,0,3.68,0,5.51a6.92,6.92,0,0,1-1.24,4.55,5.8,5.8,0,0,0-.92,6.05,4.41,4.41,0,0,1-.45,4.57,6.41,6.41,0,0,0-1.29,4.49,16.83,16.83,0,0,1-.32,5.49c-1.21,3.89-1.25,7.87-1.16,11.88a11.52,11.52,0,0,1-1.17,5.58,17.14,17.14,0,0,0-1.69,9.07,39.18,39.18,0,0,1-.93,11.92,19.61,19.61,0,0,0-.52,5.23,29.48,29.48,0,0,1-1,8.31,8.58,8.58,0,0,0,0,4.74,19.15,19.15,0,0,1,.62,6.17c0,1.36-.05,2.72,0,4.08A5.69,5.69,0,0,0,781,504.6a2.12,2.12,0,0,0,3.18.41c1.08-.68,2.08-1.51,3.19-2.12a8.27,8.27,0,0,0,3.31-3,5.93,5.93,0,0,1,5.43-2.94c2.8,0,5.6,0,8.39,0a6,6,0,0,1,5.41,3c.65,1,1.21,2.08,2,3a12.62,12.62,0,0,1,2.6,8.06c0,3.6,0,7.19,0,10.79a38.86,38.86,0,0,1-.9,10.48,19.56,19.56,0,0,0-.51,5.24c0,6.07,0,12.15-.07,18.23a20.13,20.13,0,0,0,1.64,8.64,14,14,0,0,1,1.27,5.81q0,11.16,0,22.31a8.17,8.17,0,0,1-.48,3.54,12.77,12.77,0,0,0-.91,5.63c0,8,0,16,0,24a28.44,28.44,0,0,1-.79,7.84,20.74,20.74,0,0,0-.66,5,8.61,8.61,0,0,1-.4,3.07c-1.13,2.6-1.07,5.3-1,8a14.36,14.36,0,0,1-.35,3.81,26.25,26.25,0,0,0-.68,6.18,24.34,24.34,0,0,1-.74,5.7q-2.21,9.21-4.38,18.43a18.87,18.87,0,0,0-.54,3.06,86.3,86.3,0,0,1-1.75,11.86,41,41,0,0,0-1.22,10.69,6.8,6.8,0,0,1-.64,3.26,11.26,11.26,0,0,0-.77,4.21c-.27,5.1-1.43,10.09-2.06,15.14a50.1,50.1,0,0,0-.81,7.34,10.8,10.8,0,0,1-1.95,7,5.06,5.06,0,0,0-.91,2.93,43.36,43.36,0,0,1-2.44,12.19,31.7,31.7,0,0,0-1.63,7,23.36,23.36,0,0,1-3.34,9.67,10.76,10.76,0,0,0-1.4,3,43.63,43.63,0,0,1-5.21,13.09H55.23a78,78,0,0,1-4.4-13.42c-.92-4.55-2.07-9-3.32-13.5a51.15,51.15,0,0,1-1.18-5.63c-.57-3.56-.21-7.2-.87-10.75a34.07,34.07,0,0,1-.46-7.41,55.81,55.81,0,0,0-.64-9.32C43,724,42.8,713.74,41.64,703.58a70.87,70.87,0,0,0-1.53-10.67A53.47,53.47,0,0,1,38,681.62c-.18-3.84-1.47-7.53-1.74-11.36-.37-5.43-.85-10.84-1.08-16.27-.18-4.15-.94-8.25-.82-12.43.15-5.2,0-10.4,0-15.59a21.29,21.29,0,0,0-.85-6.15,18.52,18.52,0,0,1-1.08-5.88c.18-4.11-.7-8.1-1.23-12.14-.39-3-1.6-5.88-2-8.87a69.17,69.17,0,0,0-2.94-12.33,24.31,24.31,0,0,1-1.48-7.74c0-9.6,0-19.19,0-28.79a25.47,25.47,0,0,1,4.41-14.46c2.11-3.12,4.4-6.11,6.36-9.31a8.23,8.23,0,0,1,6.87-4.13c.64,0,1.27-.19,1.91-.19,3.37,0,6.76,0,9.67,2.07a29.94,29.94,0,0,1,7.66,7.19,9.13,9.13,0,0,0,2.33,2.39c.71.49,1.43,1.18,2.38.7a2.25,2.25,0,0,0,1-2.27c-.08-4.77.59-9.6-1.24-14.24a14.62,14.62,0,0,1-.67-3c-.92-5.7-.91-11.47-1.38-17.2A6.77,6.77,0,0,0,63.15,488a7.63,7.63,0,0,1-1.36-4,16.12,16.12,0,0,0-1.42-5.54,12,12,0,0,1-1-4.42c-.07-1.59-.23-3.19-.34-4.78a3.71,3.71,0,0,0-.89-2.43c-1.56-1.63-1.85-3.67-1.92-5.78-.09-2.71-.13-5.43-.19-8.15a7.33,7.33,0,0,0-.9-3.93,12.69,12.69,0,0,1-2-7.53,4.31,4.31,0,0,0-.67-2.75c-1.7-2.32-2-5-2.2-7.73s-.55-5.25-.82-7.87a5.79,5.79,0,0,0-1.67-3.62,6.7,6.7,0,0,1-1.9-3.8,18.09,18.09,0,0,0-2-6.12,5.94,5.94,0,0,1-.66-2.05c-.9-6.72-2.32-13.39-1.71-20.25.26-2.86.22-5.75.27-8.63a8.77,8.77,0,0,0-.58-4c-1.53-3.25-3.07-6.49-4.52-9.77A16.58,16.58,0,0,1,35,358.16c0-2.56-.09-5.12-.07-7.67,0-7.13-2.38-13.67-4.93-20.13a14.42,14.42,0,0,1-1.34-6.23c.06-1.12,0-2.24.07-3.36a7.32,7.32,0,0,0-1.24-4.54,6.64,6.64,0,0,1-1.19-4.55,5.89,5.89,0,0,0-1.14-4.29,4.55,4.55,0,0,1-.85-2.46,66.91,66.91,0,0,1-.45-8.13,17,17,0,0,0-1.4-7.24,11.82,11.82,0,0,1-1-3.19c-.46-3.89-.94-7.78-1.48-11.66-.58-4.27-1.09-8.6-2.71-12.62a17.42,17.42,0,0,1-1.23-9.59C16.57,249.26,16.27,246.08,13.48,243.73Z" transform="translate(-13.48 198.24)"/></svg>