<svg xmlns="http://www.w3.org/2000/svg" viewBox="0 0 1165.44 992.4"><title>head-top-silhouette</title><path d="M936.24,794.64H-101.52c-9.19-18.28-14.42-37.53-14.74-58.09a129.26,129.26,0,0,0-1.45-14.78c-1.75-13.17-4.59-26.14-7.53-39.08-1.87-8.27-3.66-16.58-4.29-25-.55-7.33-.74-14.69-1-22a103.24,103.24,0,0,0-2.62-20.42,49.76,49.76,0,0,1-1.16-5.63,75,75,0,0,0-4.36-17.15,94.83,94.83,0,0,1-6.19-39c.12-1.92.19-3.84.17-5.76a25.67,25.67,0,0,1,7.9-19c2.48-2.49,5-5,7.44-7.49a15.6,15.6,0,0,1,8.32-4.44c7.19-1.47,14-.26,20.55,2.78a41,41,0,0,1,9.16,6.1,17.63,17.63,0,0,0,3.52,2.45,2.71,2.71,0,0,0,4-2c.36-3.33.7-6.7-.64-9.94a47.8,47.8,0,0,1-3-14.49c-.35-4.29-.41-8.73-2.1-12.73a186.94,186.94,0,0,1-6.35-18.07,27.85,27.85,0,0,0-1.32-3.09,23.08,23.08,0,0,1-2.2-7.32,50.63,50.63,0,0,0-4.5-16c-2.48-5.51-4-11.46-5.79-17.27a50.22,50.22,0,0,0-5.2-12.32,39.78,39.78,0,0,1-5.18-14.35,69.05,69.05,0,0,1-.6-16.74,18.9,18.9,0,0,0-3.81-13.48,27.11,27.11,0,0,1-5.72-18.39,22.22,22.22,0,0,0-3.88-14.08,28.46,28.46,0,0,1-4.09-9.67c-.67-2.8-1.31-5.6-1.91-8.42a32.73,32.73,0,0,0-3.37-9.45,16.21,16.21,0,0,1-2.2-7.28,70.73,70.73,0,0,0-2.89-15c-1-3.85-2.19-7.71-2.85-11.64a50.42,50.42,0,0,0-3.48-11.93,36.77,36.77,0,0,1-2.69-9.67c-.44-3.17-1-6.32-1.51-9.47a6.75,6.75,0,0,0-1.91-4.29v-4.8c.92-.88,1.85-1.74,2.76-2.64a55.56,55.56,0,0,1,11.5-9.34c9.19-5.22,18.53-10.11,28.18-14.42,8-3.6,16.43-6.26,24.73-9.16,4.09-1.44,8.14-2.88,12.59-2.45a3.1,3.1,0,0,0,3.3-2.25c.79-1.92,1.46-3.89,2.3-5.79a30.71,30.71,0,0,0,2.32-17.81,34.93,34.93,0,0,1,0-9.08A72.92,72.92,0,0,1-68,142.3a27.09,27.09,0,0,0,2.53-11.63,13.24,13.24,0,0,1,5.75-12A8.55,8.55,0,0,0-56,112.29,25,25,0,0,1-51,100c5.63-7.59,10.42-15.72,15.34-23.77A149.44,149.44,0,0,1-18,52.91c4.66-5,9.17-10.25,13.59-15.51A17.69,17.69,0,0,1,3.1,31.71a14.35,14.35,0,0,0,8.24-7.57A45,45,0,0,1,23.1,9.76Q40.82-5,58.44-19.76a54,54,0,0,1,14.67-9,26.58,26.58,0,0,0,12.07-9.89A49.21,49.21,0,0,0,88-43.12,111.58,111.58,0,0,1,105.58-67q7.82-8.15,16.3-15.57a53,53,0,0,0,7.33-7.57c5.9-7.68,12.74-14.31,21.22-19.16a20.65,20.65,0,0,0,6.31-5.1c5.47-7.08,12.82-11.43,21-14.64,3.27-1.29,6.56-2.54,9.8-3.9a62.35,62.35,0,0,0,12.24-6.55c19.54-14,40.93-24.34,63.37-32.6,14.56-5.36,29.47-9.68,44.35-14a104,104,0,0,1,20.66-4.18,35.34,35.34,0,0,0,12-3,25.26,25.26,0,0,1,13.1-2.07c3,.27,6.07.42,9.1.45a12.08,12.08,0,0,0,8.43-2.88h14.4a17.73,17.73,0,0,0,11.53,3.85,15.71,15.71,0,0,1,10.07,3.74c2.47,2,5.06,3.87,7.61,5.77a7,7,0,0,0,3.4,1.64c3.15.38,6.31.75,9.47,1.09a4.73,4.73,0,0,0,4.87-2.3c3.94-6.28,10-9.63,16.79-11.85,1.82-.59,3.59-1.29,5.38-1.94h45.12c1.45.66,2.9,1.33,4.36,2a18.5,18.5,0,0,1,6.78,4.42c2.24,2.57,4.95,3.18,8.17,3a65.65,65.65,0,0,1,19,1.74c6.85,1.55,13.72,3.07,20.62,4.42a108.5,108.5,0,0,1,19.33,5.57c15,6,29.68,12.72,44.09,20,12.44,6.32,23.81,14.35,35.22,22.31a47.06,47.06,0,0,0,12.71,6.56A42.18,42.18,0,0,1,682-121.33c9.85,7.2,19.1,15,26.5,24.83a13.87,13.87,0,0,0,6.8,5.09c5.18,1.69,9.25,4.94,12.82,9,3.18,3.59,6.19,7.34,9.84,10.49a9.32,9.32,0,0,1,2.4,3.54,17.19,17.19,0,0,0,5.49,7.14c6.13,4.66,10.46,10.71,14,17.42,1.12,2.12,2.32,4.21,3.61,6.22a16.56,16.56,0,0,0,8.39,6.84A30.74,30.74,0,0,1,777-28.24a135.73,135.73,0,0,1,16.37,11.71c7.43,6.06,14.73,12.3,22.71,17.66a11.6,11.6,0,0,1,4.67,5.35c1.44,3.77,4.1,6.33,7.36,8.55a93.31,93.31,0,0,1,23.53,23,37.93,37.93,0,0,0,11,10.53,18.67,18.67,0,0,1,8.52,10.6,8.35,8.35,0,0,0,3.25,4.6c3.1,2.15,5.11,5.23,7.09,8.34,3.34,5.27,6.74,10.49,10.14,15.72,2,3.08,4.09,6.11,6.07,9.21a38.56,38.56,0,0,1,4.64,8.91c1.8,5.7,4.72,10.79,7.81,15.86A74,74,0,0,1,921.22,162a101.48,101.48,0,0,1-1.32,14.78c-.32,2-.34,3.82,1,5.45a18.45,18.45,0,0,1,3.57,8.28,25.7,25.7,0,0,0,.92,3.22,6.71,6.71,0,0,0,5.08,4.62c1.88.4,3.77.72,5.67,1,8.06,1.17,16.17,2.08,24,4.35,14.23,4.12,27.13,11.25,40.23,17.93a5.72,5.72,0,0,1,3.33,5.41,14.31,14.31,0,0,0,.65,5.2v8.64c-1.26,2.47-3.32,4.29-5.15,6.29-2,2.21-2.75,4.41-1.14,7.35,1.73,3.17,1.35,3.95-1.39,6.65-5.57,5.5-8.43,11.94-6.9,19.91a6.94,6.94,0,0,1-2.14,7,4.43,4.43,0,0,0-1.61,4.65c.66,3.46-.7,6.26-3.28,8.53a9.75,9.75,0,0,0-1.46,1.24c-2.05,2.74-4.56,4.42-8.16,3.9a2.1,2.1,0,0,0-.94.18,1.74,1.74,0,0,0-1.32,1.78,13.41,13.41,0,0,0,.72,3.25,13.32,13.32,0,0,1,.35,8,64.1,64.1,0,0,0-1.08,6.61c-.31,2.22-.48,4.46-.83,6.67a6.66,6.66,0,0,1-4.57,5.66c-.76.26-1.55.43-2.27.76a2.59,2.59,0,0,0-1.58,2.72,6.24,6.24,0,0,0,.39,1.86c1.62,4,1.06,7.73-.56,11.61a72.83,72.83,0,0,0-5.1,19.43c-.4,3.33-.65,6.7-1.34,10-.9,4.22-2.14,8.36-3.3,12.51a8.52,8.52,0,0,1-1.29,2.55,11.9,11.9,0,0,0-2.33,7.65,10.52,10.52,0,0,1-1.59,5.92,16.19,16.19,0,0,0-2.21,7.78,43.61,43.61,0,0,1-2.24,11.26A40.06,40.06,0,0,0,940,445.75a13.3,13.3,0,0,1-1.5,6.95,19,19,0,0,0-2.15,10.19,32.7,32.7,0,0,1-1,9.51c-2,7.85-2.08,15.83-1.59,23.84a27,27,0,0,0,1.13,6.11c.78,2.54,2.77,3.49,5.28,2.61a48.31,48.31,0,0,0,5.24-2.37c4.32-2.1,8.66-4.16,13.4-5.18a23.48,23.48,0,0,1,10.93-.05,19.05,19.05,0,0,1,14.55,19.52c-.18,4.3-.81,8.59-1.21,12.89-.66,7-1.69,14-1.37,21,.19,4,.09,8.12,1.67,11.81,2.33,5.45,2.89,11.09,3,16.87.12,6.1-.8,12.12-1.37,18.17-.64,6.84-1.47,13.66-.85,20.56a44.52,44.52,0,0,1-1.25,15.72,145.36,145.36,0,0,0-3.29,17.91,152.2,152.2,0,0,1-5.51,25.26,287.34,287.34,0,0,0-10,40.49,230.49,230.49,0,0,1-14.88,52.5A130.75,130.75,0,0,1,936.24,794.64Z" transform="translate(161.04 197.76)"/></svg>