<svg xmlns="http://www.w3.org/2000/svg" viewBox="0 0 817.2 684.2"><path d="M43 0h725a13 13 0 01-2 6 19 19 0 00-3 4 39 39 0 01-6 10 14 14 0 00-3 4 18 18 0 01-3 7 9 9 0 00-3 7c1 5-1 10-2 15a26 26 0 000 5 23 23 0 01-1 6l-3 14c-2 7-4 14-3 21a7 7 0 01-1 4 12 12 0 00-2 8 8 8 0 01-1 4 7 7 0 00-1 3v5c0 3 1 7-1 10a7 7 0 000 2 5 5 0 01-1 2 8 8 0 000 4v11a11 11 0 01-1 4 15 15 0 000 5 44 44 0 01-1 9l-2 15a14 14 0 01-1 4 8 8 0 00-1 3c1 7-2 14-2 20a17 17 0 010 3l-2 17a10 10 0 01-1 5 14 14 0 00-1 6v4a9 9 0 00-1 4v7a7 7 0 010 3 13 13 0 00-1 6 14 14 0 01-1 5l-2 6a84 84 0 01-1 11l-2 12a13 13 0 01-1 3 19 19 0 00-2 7 21 21 0 010 6l-2 4-2 16a3 3 0 010 1 81 81 0 00-3 10l-3 9-2 8-4 14a9 9 0 01-1 3 28 28 0 00-4 12 11 11 0 01-1 6l-4 7-2 6-3 8a12 12 0 00-3 5 15 15 0 01-2 6l-5 8a9 9 0 01-1 3l-10 13a27 27 0 00-4 8 12 12 0 01-2 3l-6 8a25 25 0 00-4 8 8 8 0 01-1 2l-9 12a22 22 0 01-3 4 6 6 0 00-2 3c-1 5-4 8-6 12-2 5-6 9-9 13a4 4 0 01-3 2 4 4 0 00-2 2 12 12 0 01-5 3 3 3 0 00-1 1 55 55 0 00-4 6l-11 15-7 10a5 5 0 01-1 2l-5 3-7 10a9 9 0 00-1 4 7 7 0 01-2 4 12 12 0 00-2 7 12 12 0 01-3 9 5 5 0 00-1 2l-4 6c-2 2-2 5-3 7a4 4 0 01-1 3l-7 8a2 2 0 01-1 0 6 6 0 00-2 3l-12 16a41 41 0 01-6 8 37 37 0 00-5 6 14 14 0 01-12 6c-3 0-6 0-9 2-3 0-5 1-6 3h-1c-3 2-6 4-10 4l-76-1h-3a4 4 0 00-3 2 6 6 0 01-6 2h-6a9 9 0 01-5-1 10 10 0 00-5-1h-20a12 12 0 01-6-1 6 6 0 00-3-1 10 10 0 01-5-1 9 9 0 00-3-1 7 7 0 01-5-2 7 7 0 00-5-2h-8a6 6 0 01-6-3l-6-8c-1-1-2-3-4-3a5 5 0 01-4-2l-5-7a5 5 0 00-4-3 6 6 0 01-5-3l-2-3-9-12a4 4 0 010-2 10 10 0 00-2-4l-14-19a7 7 0 00-2-2 7 7 0 01-3-4 17 17 0 00-2-5 6 6 0 01-1-2 7 7 0 00-2-3l-7-10c-2-3-4-8-8-10a2 2 0 010-1c-4-6-9-11-12-18a64 64 0 00-5-9 4 4 0 010-1c-2-5-5-9-8-12a7 7 0 00-2-2 4 4 0 01-2-4 17 17 0 00-4-9l-13-17-5-8-8-13a31 31 0 01-2-3l-8-14-5-8-6-11-8-16-3-6-6-15a135 135 0 01-7-20l-4-19-4-22-2-8a92 92 0 00-3-11 21 21 0 01-1-6 12 12 0 00-1-4l-1-7-1-5-2-14a4 4 0 010-1c0-6-3-12-2-19a7 7 0 00-1-2l-2-13a13 13 0 000-4 42 42 0 01-1-9 7 7 0 00-1-2l-2-11-1-12a136 136 0 01-3-19l-2-13-1-8a11 11 0 00-1-5 32 32 0 01-1-9 38 38 0 00-1-4l-3-16-2-11a48 48 0 01-2-12 17 17 0 00-1-6 10 10 0 01-1-5l-2-13-2-13-2-10-2-16a12 12 0 00-3-7 62 62 0 01-6-8 16 16 0 00-2-3 38 38 0 01-6-8 71 71 0 00-4-8l-4-6-4-10a8 8 0 01-1-3z"/></svg>