<svg height="50" viewBox="0 0 50 50" width="50" xmlns="http://www.w3.org/2000/svg"><path d="m202.36 301v-20.11l-14.87 2c-2.21.29-4.4.71-6.62.86-1.69.12-2.38.56-2.36 2.31.12 7.66-.18 15.33.13 23 .24 6.13-4.79 9.73-9.64 10.72a12.69 12.69 0 0 1 -7.32-.52c-4-1.59-5.47-5.34-3.46-9 2.44-4.37 8.27-6.78 13.83-5.72l1.72.35v-30.26l33.55-4.57v34.88c0 5.64-3.48 9.67-9.43 10.89a13.38 13.38 0 0 1 -7.52-.32c-4.56-1.72-6-5.9-3.34-9.76 2.79-4.05 8.39-6.12 13.7-5.08z" transform="translate(-157.32 -270.06)"/></svg>