<svg viewBox="0 0 239.12 227.32" xmlns="http://www.w3.org/2000/svg"><path d="m45.88 227.32c2.89-16.24 5.66-31.92 8.46-47.59 1.82-10.14 3.56-20.29 5.56-30.39.7-3.51-.32-5.76-2.89-8.2-17.54-16.62-34.9-33.42-52.32-50.14-1.2-1.16-2.46-2.24-4.69-4.25 8-1.18 14.91-2.26 21.82-3.22 19.6-2.71 39.21-5.3 58.78-8.21 1.62-.24 3.5-2.26 4.32-3.92 10.78-21.92 21.39-43.92 32.08-65.89.79-1.63 1.64-3.23 2.81-5.51 1.11 2 2 3.42 2.78 5 10.74 22.12 21.51 44.23 32.13 66.41 1.28 2.68 2.72 3.89 5.84 4.3 25.38 3.38 50.72 7 76.07 10.61.64.09 1.27.26 2.52.52-1.38 1.46-2.42 2.65-3.56 3.75-17.41 16.75-34.75 33.58-52.33 50.15-3 2.86-4 5.5-3.23 9.51 4.67 25.15 9.16 50.34 13.69 75.51a5.43 5.43 0 0 1 -.2 1.4c-3.89-2-7.66-4-11.4-6-19.36-10.34-38.74-20.63-58-31.12-3-1.62-5.2-1.72-8.24-.08-21.62 11.74-43.36 23.26-65.06 34.85-1.48.76-2.95 1.48-4.94 2.51z"/></svg>